solid OpenSCAD_Model
  facet normal 1 -0 0
    outer loop
      vertex 27.5 25 15
      vertex 27.5 30 -15
      vertex 27.5 30 15
    endloop
  endfacet
  facet normal 1 0 0
    outer loop
      vertex 27.5 30 -15
      vertex 27.5 25 15
      vertex 27.5 25 -15
    endloop
  endfacet
  facet normal 0 0 1
    outer loop
      vertex 27.5 30 15
      vertex 2.5 25 15
      vertex 27.5 25 15
    endloop
  endfacet
  facet normal 0 0 1
    outer loop
      vertex 2.5 25 15
      vertex -2.5 30 15
      vertex 2.5 -20 15
    endloop
  endfacet
  facet normal -0 0 1
    outer loop
      vertex -2.5 30 15
      vertex 2.5 25 15
      vertex 27.5 30 15
    endloop
  endfacet
  facet normal -0 0 1
    outer loop
      vertex 2.5 -20 15
      vertex 27.5 -30 15
      vertex 27.5 -20 15
    endloop
  endfacet
  facet normal 0 0 1
    outer loop
      vertex 2.5 -20 15
      vertex -2.5 -30 15
      vertex 27.5 -30 15
    endloop
  endfacet
  facet normal 0 0 1
    outer loop
      vertex -2.5 -30 15
      vertex 2.5 -20 15
      vertex -2.5 30 15
    endloop
  endfacet
  facet normal 0 0 -1
    outer loop
      vertex 27.5 -30 -15
      vertex 2.5 -20 -15
      vertex 27.5 -20 -15
    endloop
  endfacet
  facet normal 0 0 -1
    outer loop
      vertex -2.5 30 -15
      vertex 2.5 -20 -15
      vertex -2.5 -30 -15
    endloop
  endfacet
  facet normal 0 0 -1
    outer loop
      vertex -2.5 -30 -15
      vertex 2.5 -20 -15
      vertex 27.5 -30 -15
    endloop
  endfacet
  facet normal 0 0 -1
    outer loop
      vertex 2.5 25 -15
      vertex 27.5 30 -15
      vertex 27.5 25 -15
    endloop
  endfacet
  facet normal 0 0 -1
    outer loop
      vertex 2.5 25 -15
      vertex -2.5 30 -15
      vertex 27.5 30 -15
    endloop
  endfacet
  facet normal 0 0 -1
    outer loop
      vertex 2.5 -20 -15
      vertex -2.5 30 -15
      vertex 2.5 25 -15
    endloop
  endfacet
  facet normal 1 -0 0
    outer loop
      vertex 2.5 -20 15
      vertex 2.5 25 -15
      vertex 2.5 25 15
    endloop
  endfacet
  facet normal 1 0 0
    outer loop
      vertex 2.5 25 -15
      vertex 2.5 -20 15
      vertex 2.5 -20 -15
    endloop
  endfacet
  facet normal 0 1 0
    outer loop
      vertex 27.5 30 15
      vertex 15 30 5
      vertex -2.5 30 15
    endloop
  endfacet
  facet normal 0 1 0
    outer loop
      vertex 27.5 30 15
      vertex 16.9134 30 4.6194
      vertex 15 30 5
    endloop
  endfacet
  facet normal 0 1 0
    outer loop
      vertex 27.5 30 15
      vertex 18.5355 30 3.53553
      vertex 16.9134 30 4.6194
    endloop
  endfacet
  facet normal 0 1 0
    outer loop
      vertex 27.5 30 15
      vertex 19.6194 30 1.91342
      vertex 18.5355 30 3.53553
    endloop
  endfacet
  facet normal 0 1 0
    outer loop
      vertex 27.5 30 15
      vertex 20 30 0
      vertex 19.6194 30 1.91342
    endloop
  endfacet
  facet normal 0 1 -0
    outer loop
      vertex 27.5 30 -15
      vertex 20 30 0
      vertex 27.5 30 15
    endloop
  endfacet
  facet normal 0 1 0
    outer loop
      vertex 16.9134 30 -4.6194
      vertex 27.5 30 -15
      vertex 15 30 -5
    endloop
  endfacet
  facet normal 0 1 0
    outer loop
      vertex 18.5355 30 -3.53553
      vertex 27.5 30 -15
      vertex 16.9134 30 -4.6194
    endloop
  endfacet
  facet normal 0 1 0
    outer loop
      vertex 19.6194 30 -1.91342
      vertex 27.5 30 -15
      vertex 18.5355 30 -3.53553
    endloop
  endfacet
  facet normal 0 1 0
    outer loop
      vertex 20 30 0
      vertex 27.5 30 -15
      vertex 19.6194 30 -1.91342
    endloop
  endfacet
  facet normal 0 1 -0
    outer loop
      vertex 13.0866 30 4.6194
      vertex -2.5 30 15
      vertex 15 30 5
    endloop
  endfacet
  facet normal 0 1 -0
    outer loop
      vertex 11.4645 30 3.53553
      vertex -2.5 30 15
      vertex 13.0866 30 4.6194
    endloop
  endfacet
  facet normal 0 1 -0
    outer loop
      vertex 10.3806 30 1.91342
      vertex -2.5 30 15
      vertex 11.4645 30 3.53553
    endloop
  endfacet
  facet normal 0 1 -0
    outer loop
      vertex 10 30 0
      vertex -2.5 30 15
      vertex 10.3806 30 1.91342
    endloop
  endfacet
  facet normal 0 1 0
    outer loop
      vertex -2.5 30 -15
      vertex 10 30 0
      vertex 10.3806 30 -1.91342
    endloop
  endfacet
  facet normal 0 1 0
    outer loop
      vertex -2.5 30 -15
      vertex 10.3806 30 -1.91342
      vertex 11.4645 30 -3.53553
    endloop
  endfacet
  facet normal 0 1 0
    outer loop
      vertex -2.5 30 -15
      vertex 15 30 -5
      vertex 27.5 30 -15
    endloop
  endfacet
  facet normal 0 1 0
    outer loop
      vertex 15 30 -5
      vertex -2.5 30 -15
      vertex 13.0866 30 -4.6194
    endloop
  endfacet
  facet normal 0 1 0
    outer loop
      vertex 10 30 0
      vertex -2.5 30 -15
      vertex -2.5 30 15
    endloop
  endfacet
  facet normal 0 1 0
    outer loop
      vertex 13.0866 30 -4.6194
      vertex -2.5 30 -15
      vertex 11.4645 30 -3.53553
    endloop
  endfacet
  facet normal 0 -1 0
    outer loop
      vertex 2.5 25 15
      vertex 15 25 5
      vertex 27.5 25 15
    endloop
  endfacet
  facet normal 0 -1 0
    outer loop
      vertex 2.5 25 15
      vertex 13.0866 25 4.6194
      vertex 15 25 5
    endloop
  endfacet
  facet normal 0 -1 0
    outer loop
      vertex 2.5 25 15
      vertex 11.4645 25 3.53553
      vertex 13.0866 25 4.6194
    endloop
  endfacet
  facet normal 0 -1 0
    outer loop
      vertex 2.5 25 15
      vertex 10.3806 25 1.91342
      vertex 11.4645 25 3.53553
    endloop
  endfacet
  facet normal 0 -1 0
    outer loop
      vertex 2.5 25 15
      vertex 10 25 0
      vertex 10.3806 25 1.91342
    endloop
  endfacet
  facet normal 0 -1 0
    outer loop
      vertex 2.5 25 -15
      vertex 10 25 0
      vertex 2.5 25 15
    endloop
  endfacet
  facet normal 0 -1 -0
    outer loop
      vertex 13.0866 25 -4.6194
      vertex 2.5 25 -15
      vertex 15 25 -5
    endloop
  endfacet
  facet normal 0 -1 -0
    outer loop
      vertex 11.4645 25 -3.53553
      vertex 2.5 25 -15
      vertex 13.0866 25 -4.6194
    endloop
  endfacet
  facet normal 0 -1 -0
    outer loop
      vertex 10.3806 25 -1.91342
      vertex 2.5 25 -15
      vertex 11.4645 25 -3.53553
    endloop
  endfacet
  facet normal 0 -1 -0
    outer loop
      vertex 10 25 0
      vertex 2.5 25 -15
      vertex 10.3806 25 -1.91342
    endloop
  endfacet
  facet normal 0 -1 0
    outer loop
      vertex 16.9134 25 4.6194
      vertex 27.5 25 15
      vertex 15 25 5
    endloop
  endfacet
  facet normal 0 -1 0
    outer loop
      vertex 18.5355 25 3.53553
      vertex 27.5 25 15
      vertex 16.9134 25 4.6194
    endloop
  endfacet
  facet normal 0 -1 0
    outer loop
      vertex 19.6194 25 1.91342
      vertex 27.5 25 15
      vertex 18.5355 25 3.53553
    endloop
  endfacet
  facet normal 0 -1 0
    outer loop
      vertex 20 25 0
      vertex 27.5 25 15
      vertex 19.6194 25 1.91342
    endloop
  endfacet
  facet normal 0 -1 0
    outer loop
      vertex 27.5 25 -15
      vertex 20 25 0
      vertex 19.6194 25 -1.91342
    endloop
  endfacet
  facet normal 0 -1 0
    outer loop
      vertex 27.5 25 -15
      vertex 15 25 -5
      vertex 2.5 25 -15
    endloop
  endfacet
  facet normal 0 -1 0
    outer loop
      vertex 15 25 -5
      vertex 27.5 25 -15
      vertex 16.9134 25 -4.6194
    endloop
  endfacet
  facet normal 0 -1 0
    outer loop
      vertex 20 25 0
      vertex 27.5 25 -15
      vertex 27.5 25 15
    endloop
  endfacet
  facet normal 0 -1 0
    outer loop
      vertex 18.5355 25 -3.53553
      vertex 27.5 25 -15
      vertex 19.6194 25 -1.91342
    endloop
  endfacet
  facet normal 0 -1 0
    outer loop
      vertex 16.9134 25 -4.6194
      vertex 27.5 25 -15
      vertex 18.5355 25 -3.53553
    endloop
  endfacet
  facet normal 0.555576 0 -0.831465
    outer loop
      vertex 11.4645 25 3.53553
      vertex 13.0866 30 4.6194
      vertex 13.0866 25 4.6194
    endloop
  endfacet
  facet normal 0.555576 0 -0.831465
    outer loop
      vertex 13.0866 30 4.6194
      vertex 11.4645 25 3.53553
      vertex 11.4645 30 3.53553
    endloop
  endfacet
  facet normal -0.83146 0 -0.555585
    outer loop
      vertex 19.6194 25 1.91342
      vertex 18.5355 30 3.53553
      vertex 19.6194 30 1.91342
    endloop
  endfacet
  facet normal -0.83146 -0 -0.555585
    outer loop
      vertex 18.5355 30 3.53553
      vertex 19.6194 25 1.91342
      vertex 18.5355 25 3.53553
    endloop
  endfacet
  facet normal -0.980786 0 -0.195089
    outer loop
      vertex 20 25 0
      vertex 19.6194 30 1.91342
      vertex 20 30 0
    endloop
  endfacet
  facet normal -0.980786 -0 -0.195089
    outer loop
      vertex 19.6194 30 1.91342
      vertex 20 25 0
      vertex 19.6194 25 1.91342
    endloop
  endfacet
  facet normal 0.83146 0 -0.555585
    outer loop
      vertex 11.4645 25 3.53553
      vertex 10.3806 30 1.91342
      vertex 11.4645 30 3.53553
    endloop
  endfacet
  facet normal 0.83146 0 -0.555585
    outer loop
      vertex 10.3806 30 1.91342
      vertex 11.4645 25 3.53553
      vertex 10.3806 25 1.91342
    endloop
  endfacet
  facet normal 0.195091 0 0.980785
    outer loop
      vertex 13.0866 30 -4.6194
      vertex 15 25 -5
      vertex 15 30 -5
    endloop
  endfacet
  facet normal 0.195091 0 0.980785
    outer loop
      vertex 15 25 -5
      vertex 13.0866 30 -4.6194
      vertex 13.0866 25 -4.6194
    endloop
  endfacet
  facet normal -0.195091 0 0.980785
    outer loop
      vertex 15 30 -5
      vertex 16.9134 25 -4.6194
      vertex 16.9134 30 -4.6194
    endloop
  endfacet
  facet normal -0.195091 0 0.980785
    outer loop
      vertex 16.9134 25 -4.6194
      vertex 15 30 -5
      vertex 15 25 -5
    endloop
  endfacet
  facet normal -0.555576 0 0.831465
    outer loop
      vertex 16.9134 30 -4.6194
      vertex 18.5355 25 -3.53553
      vertex 18.5355 30 -3.53553
    endloop
  endfacet
  facet normal -0.555576 0 0.831465
    outer loop
      vertex 18.5355 25 -3.53553
      vertex 16.9134 30 -4.6194
      vertex 16.9134 25 -4.6194
    endloop
  endfacet
  facet normal -0.83146 0 0.555585
    outer loop
      vertex 18.5355 25 -3.53553
      vertex 19.6194 30 -1.91342
      vertex 18.5355 30 -3.53553
    endloop
  endfacet
  facet normal -0.83146 0 0.555585
    outer loop
      vertex 19.6194 30 -1.91342
      vertex 18.5355 25 -3.53553
      vertex 19.6194 25 -1.91342
    endloop
  endfacet
  facet normal 0.195091 0 -0.980785
    outer loop
      vertex 13.0866 25 4.6194
      vertex 15 30 5
      vertex 15 25 5
    endloop
  endfacet
  facet normal 0.195091 0 -0.980785
    outer loop
      vertex 15 30 5
      vertex 13.0866 25 4.6194
      vertex 13.0866 30 4.6194
    endloop
  endfacet
  facet normal -0.980786 0 0.195089
    outer loop
      vertex 19.6194 25 -1.91342
      vertex 20 30 0
      vertex 19.6194 30 -1.91342
    endloop
  endfacet
  facet normal -0.980786 0 0.195089
    outer loop
      vertex 20 30 0
      vertex 19.6194 25 -1.91342
      vertex 20 25 0
    endloop
  endfacet
  facet normal 0.980786 0 -0.195089
    outer loop
      vertex 10.3806 25 1.91342
      vertex 10 30 0
      vertex 10.3806 30 1.91342
    endloop
  endfacet
  facet normal 0.980786 0 -0.195089
    outer loop
      vertex 10 30 0
      vertex 10.3806 25 1.91342
      vertex 10 25 0
    endloop
  endfacet
  facet normal -0.195091 0 -0.980785
    outer loop
      vertex 15 25 5
      vertex 16.9134 30 4.6194
      vertex 16.9134 25 4.6194
    endloop
  endfacet
  facet normal -0.195091 0 -0.980785
    outer loop
      vertex 16.9134 30 4.6194
      vertex 15 25 5
      vertex 15 30 5
    endloop
  endfacet
  facet normal -0.555576 0 -0.831465
    outer loop
      vertex 16.9134 25 4.6194
      vertex 18.5355 30 3.53553
      vertex 18.5355 25 3.53553
    endloop
  endfacet
  facet normal -0.555576 0 -0.831465
    outer loop
      vertex 18.5355 30 3.53553
      vertex 16.9134 25 4.6194
      vertex 16.9134 30 4.6194
    endloop
  endfacet
  facet normal 0.83146 -0 0.555585
    outer loop
      vertex 10.3806 25 -1.91342
      vertex 11.4645 30 -3.53553
      vertex 10.3806 30 -1.91342
    endloop
  endfacet
  facet normal 0.83146 0 0.555585
    outer loop
      vertex 11.4645 30 -3.53553
      vertex 10.3806 25 -1.91342
      vertex 11.4645 25 -3.53553
    endloop
  endfacet
  facet normal 0.980786 -0 0.195089
    outer loop
      vertex 10 25 0
      vertex 10.3806 30 -1.91342
      vertex 10 30 0
    endloop
  endfacet
  facet normal 0.980786 0 0.195089
    outer loop
      vertex 10.3806 30 -1.91342
      vertex 10 25 0
      vertex 10.3806 25 -1.91342
    endloop
  endfacet
  facet normal 0.555576 0 0.831465
    outer loop
      vertex 11.4645 30 -3.53553
      vertex 13.0866 25 -4.6194
      vertex 13.0866 30 -4.6194
    endloop
  endfacet
  facet normal 0.555576 0 0.831465
    outer loop
      vertex 13.0866 25 -4.6194
      vertex 11.4645 30 -3.53553
      vertex 11.4645 25 -3.53553
    endloop
  endfacet
  facet normal -1 0 0
    outer loop
      vertex -2.5 -30 -15
      vertex -2.5 30 15
      vertex -2.5 30 -15
    endloop
  endfacet
  facet normal -1 -0 0
    outer loop
      vertex -2.5 30 15
      vertex -2.5 -30 -15
      vertex -2.5 -30 15
    endloop
  endfacet
  facet normal 0 -1 0
    outer loop
      vertex -2.5 -30 -15
      vertex 27.5 -30 15
      vertex -2.5 -30 15
    endloop
  endfacet
  facet normal 0 -1 -0
    outer loop
      vertex 27.5 -30 15
      vertex -2.5 -30 -15
      vertex 27.5 -30 -15
    endloop
  endfacet
  facet normal 1 -0 0
    outer loop
      vertex 27.5 -30 15
      vertex 27.5 -20 -15
      vertex 27.5 -20 15
    endloop
  endfacet
  facet normal 1 0 0
    outer loop
      vertex 27.5 -20 -15
      vertex 27.5 -30 15
      vertex 27.5 -30 -15
    endloop
  endfacet
  facet normal 0 1 -0
    outer loop
      vertex 27.5 -20 -15
      vertex 2.5 -20 15
      vertex 27.5 -20 15
    endloop
  endfacet
  facet normal 0 1 0
    outer loop
      vertex 2.5 -20 15
      vertex 27.5 -20 -15
      vertex 2.5 -20 -15
    endloop
  endfacet
endsolid OpenSCAD_Model
