solid OpenSCAD_Model
  facet normal -1 0 0
    outer loop
      vertex -36.5 -14 -15
      vertex -36.5 -4.04145 15
      vertex -36.5 -4.04145 -15
    endloop
  endfacet
  facet normal -1 -0 0
    outer loop
      vertex -36.5 -4.04145 15
      vertex -36.5 -14 -15
      vertex -36.5 -14 15
    endloop
  endfacet
  facet normal -1 0 0
    outer loop
      vertex -36.5 4.04145 -15
      vertex -36.5 24 15
      vertex -36.5 24 -15
    endloop
  endfacet
  facet normal -1 -0 0
    outer loop
      vertex -36.5 24 15
      vertex -36.5 4.04145 -15
      vertex -36.5 4.04145 15
    endloop
  endfacet
  facet normal -0 0 1
    outer loop
      vertex -36.5 24 15
      vertex -21.5 19 15
      vertex -21.5 24 15
    endloop
  endfacet
  facet normal 0 0 1
    outer loop
      vertex -21.5 19 15
      vertex -28.5 8.66025 15
      vertex -21.5 -14 15
    endloop
  endfacet
  facet normal 0 0 1
    outer loop
      vertex -21.5 19 15
      vertex -36.5 24 15
      vertex -28.5 8.66025 15
    endloop
  endfacet
  facet normal 0 0 1
    outer loop
      vertex -28.5 8.66025 15
      vertex -36.5 24 15
      vertex -36.5 4.04145 15
    endloop
  endfacet
  facet normal -0 0 1
    outer loop
      vertex -28.5 -8.66025 15
      vertex -21.5 -14 15
      vertex -28.5 8.66025 15
    endloop
  endfacet
  facet normal 0 0 1
    outer loop
      vertex -36.5 -14 15
      vertex -28.5 -8.66025 15
      vertex -36.5 -4.04145 15
    endloop
  endfacet
  facet normal 0 0 1
    outer loop
      vertex -28.5 -8.66025 15
      vertex -36.5 -14 15
      vertex -21.5 -14 15
    endloop
  endfacet
  facet normal 0 0 1
    outer loop
      vertex 36.5 24 15
      vertex 28.5 8.66025 15
      vertex 36.5 4.04145 15
    endloop
  endfacet
  facet normal 0 0 1
    outer loop
      vertex 36.5 24 15
      vertex 21.5 19 15
      vertex 28.5 8.66025 15
    endloop
  endfacet
  facet normal 0 0 1
    outer loop
      vertex 21.5 19 15
      vertex 36.5 24 15
      vertex 21.5 24 15
    endloop
  endfacet
  facet normal -0 0 1
    outer loop
      vertex 28.5 -8.66025 15
      vertex 36.5 -14 15
      vertex 36.5 -4.04145 15
    endloop
  endfacet
  facet normal 0 0 1
    outer loop
      vertex 21.5 -14 15
      vertex 28.5 8.66025 15
      vertex 21.5 19 15
    endloop
  endfacet
  facet normal 0 0 1
    outer loop
      vertex 28.5 -8.66025 15
      vertex 21.5 -14 15
      vertex 36.5 -14 15
    endloop
  endfacet
  facet normal 0 0 1
    outer loop
      vertex 28.5 8.66025 15
      vertex 21.5 -14 15
      vertex 28.5 -8.66025 15
    endloop
  endfacet
  facet normal 1 -0 0
    outer loop
      vertex 36.5 -14 15
      vertex 36.5 -4.04145 -15
      vertex 36.5 -4.04145 15
    endloop
  endfacet
  facet normal 1 0 0
    outer loop
      vertex 36.5 -4.04145 -15
      vertex 36.5 -14 15
      vertex 36.5 -14 -15
    endloop
  endfacet
  facet normal 1 -0 0
    outer loop
      vertex 36.5 4.04145 15
      vertex 36.5 24 -15
      vertex 36.5 24 15
    endloop
  endfacet
  facet normal 1 0 0
    outer loop
      vertex 36.5 24 -15
      vertex 36.5 4.04145 15
      vertex 36.5 4.04145 -15
    endloop
  endfacet
  facet normal 0 0 -1
    outer loop
      vertex -28.5 8.66025 -15
      vertex -21.5 19 -15
      vertex -21.5 -14 -15
    endloop
  endfacet
  facet normal 0 0 -1
    outer loop
      vertex -28.5 8.66025 -15
      vertex -21.5 -14 -15
      vertex -28.5 -8.66025 -15
    endloop
  endfacet
  facet normal 0 0 -1
    outer loop
      vertex -36.5 -14 -15
      vertex -28.5 -8.66025 -15
      vertex -21.5 -14 -15
    endloop
  endfacet
  facet normal -0 0 -1
    outer loop
      vertex -28.5 -8.66025 -15
      vertex -36.5 -14 -15
      vertex -36.5 -4.04145 -15
    endloop
  endfacet
  facet normal 0 0 -1
    outer loop
      vertex -36.5 24 -15
      vertex -21.5 19 -15
      vertex -28.5 8.66025 -15
    endloop
  endfacet
  facet normal 0 0 -1
    outer loop
      vertex -36.5 24 -15
      vertex -28.5 8.66025 -15
      vertex -36.5 4.04145 -15
    endloop
  endfacet
  facet normal 0 0 -1
    outer loop
      vertex -21.5 19 -15
      vertex -36.5 24 -15
      vertex -21.5 24 -15
    endloop
  endfacet
  facet normal 0 0 -1
    outer loop
      vertex 36.5 -14 -15
      vertex 28.5 -8.66025 -15
      vertex 36.5 -4.04145 -15
    endloop
  endfacet
  facet normal -0 0 -1
    outer loop
      vertex 28.5 -8.66025 -15
      vertex 21.5 -14 -15
      vertex 28.5 8.66025 -15
    endloop
  endfacet
  facet normal 0 0 -1
    outer loop
      vertex 21.5 -14 -15
      vertex 28.5 -8.66025 -15
      vertex 36.5 -14 -15
    endloop
  endfacet
  facet normal 0 0 -1
    outer loop
      vertex 28.5 8.66025 -15
      vertex 36.5 24 -15
      vertex 36.5 4.04145 -15
    endloop
  endfacet
  facet normal 0 0 -1
    outer loop
      vertex 21.5 19 -15
      vertex 28.5 8.66025 -15
      vertex 21.5 -14 -15
    endloop
  endfacet
  facet normal 0 0 -1
    outer loop
      vertex 21.5 19 -15
      vertex 36.5 24 -15
      vertex 28.5 8.66025 -15
    endloop
  endfacet
  facet normal -0 0 -1
    outer loop
      vertex 36.5 24 -15
      vertex 21.5 19 -15
      vertex 21.5 24 -15
    endloop
  endfacet
  facet normal 0 -1 0
    outer loop
      vertex -36.5 -14 -15
      vertex -21.5 -14 15
      vertex -36.5 -14 15
    endloop
  endfacet
  facet normal 0 -1 -0
    outer loop
      vertex -21.5 -14 15
      vertex -36.5 -14 -15
      vertex -21.5 -14 -15
    endloop
  endfacet
  facet normal 0 -1 0
    outer loop
      vertex 21.5 -14 -15
      vertex 36.5 -14 15
      vertex 21.5 -14 15
    endloop
  endfacet
  facet normal 0 -1 -0
    outer loop
      vertex 36.5 -14 15
      vertex 21.5 -14 -15
      vertex 36.5 -14 -15
    endloop
  endfacet
  facet normal 0 1 -0
    outer loop
      vertex -18.3019 24 -15.6322
      vertex -21.5 24 -15
      vertex -16.945 24 -14.5501
    endloop
  endfacet
  facet normal 0 1 -0
    outer loop
      vertex -18.3019 24 -17.3678
      vertex -21.5 24 -15
      vertex -18.3019 24 -15.6322
    endloop
  endfacet
  facet normal 0 1 0
    outer loop
      vertex -21.5 24 -21.5
      vertex -18.3019 24 -17.3678
      vertex -16.945 24 -18.4499
    endloop
  endfacet
  facet normal 0 1 0
    outer loop
      vertex -18.3019 24 -17.3678
      vertex -21.5 24 -21.5
      vertex -21.5 24 -15
    endloop
  endfacet
  facet normal 0 1 0
    outer loop
      vertex -15.253 24 -18.0637
      vertex -21.5 24 -21.5
      vertex -16.945 24 -18.4499
    endloop
  endfacet
  facet normal 0 1 0
    outer loop
      vertex -9.30369 24 -6.75953
      vertex -15.253 24 -14.9363
      vertex -16.945 24 -14.5501
    endloop
  endfacet
  facet normal 0 1 0
    outer loop
      vertex 3.55369 24 -10.9371
      vertex 14.6981 24 -17.3678
      vertex 1.20208 24 -11.437
    endloop
  endfacet
  facet normal 0 1 0
    outer loop
      vertex 1.20208 24 -11.437
      vertex -15.238 24 -14.9676
      vertex -15.253 24 -14.9363
    endloop
  endfacet
  facet normal 0 1 0
    outer loop
      vertex 1.20208 24 -11.437
      vertex -14.5 24 -16.5
      vertex -15.238 24 -14.9676
    endloop
  endfacet
  facet normal 0 1 0
    outer loop
      vertex -15.253 24 -18.0637
      vertex 1.20208 24 -11.437
      vertex 14.6981 24 -17.3678
    endloop
  endfacet
  facet normal 0 1 0
    outer loop
      vertex 1.20208 24 -11.437
      vertex -14.5151 24 -16.5313
      vertex -14.5 24 -16.5
    endloop
  endfacet
  facet normal 0 1 0
    outer loop
      vertex 1.20208 24 -11.437
      vertex -15.253 24 -18.0637
      vertex -14.5151 24 -16.5313
    endloop
  endfacet
  facet normal 0 1 0
    outer loop
      vertex 16.055 24 -18.4499
      vertex -15.253 24 -18.0637
      vertex 14.6981 24 -17.3678
    endloop
  endfacet
  facet normal 0 1 0
    outer loop
      vertex 21.5 24 -21.5
      vertex -15.253 24 -18.0637
      vertex 16.055 24 -18.4499
    endloop
  endfacet
  facet normal 0 1 0
    outer loop
      vertex 21.5 24 -15
      vertex 21.5 24 15
      vertex 36.5 24 15
    endloop
  endfacet
  facet normal -0 1 0
    outer loop
      vertex 11.2487 24 2.39098
      vertex 21.5 24 15
      vertex 11.5 24 0
    endloop
  endfacet
  facet normal 0 1 -0
    outer loop
      vertex -5.75 24 9.95929
      vertex -14.5 24 16.5
      vertex -3.55369 24 10.9371
    endloop
  endfacet
  facet normal -0 1 0
    outer loop
      vertex 10.5058 24 4.67747
      vertex 17.747 24 14.9363
      vertex 11.2487 24 2.39098
    endloop
  endfacet
  facet normal 0 1 0
    outer loop
      vertex 14.6981 24 15.6322
      vertex 3.55369 24 10.9371
      vertex 1.20208 24 11.437
    endloop
  endfacet
  facet normal 0 1 0
    outer loop
      vertex 14.6981 24 15.6322
      vertex 5.75 24 9.95929
      vertex 3.55369 24 10.9371
    endloop
  endfacet
  facet normal 0 1 0
    outer loop
      vertex 14.6981 24 15.6322
      vertex 7.695 24 8.54617
      vertex 5.75 24 9.95929
    endloop
  endfacet
  facet normal 0 1 0
    outer loop
      vertex 16.055 24 14.5501
      vertex 9.30369 24 6.75953
      vertex 7.695 24 8.54617
    endloop
  endfacet
  facet normal 0 1 0
    outer loop
      vertex 16.055 24 14.5501
      vertex 10.5058 24 4.67747
      vertex 9.30369 24 6.75953
    endloop
  endfacet
  facet normal 0 1 0
    outer loop
      vertex 17.747 24 14.9363
      vertex 10.5058 24 4.67747
      vertex 16.055 24 14.5501
    endloop
  endfacet
  facet normal 0 1 0
    outer loop
      vertex 21.5 24 15
      vertex 11.2487 24 2.39098
      vertex 17.747 24 14.9363
    endloop
  endfacet
  facet normal 0 1 0
    outer loop
      vertex 21.5 24 15
      vertex 21.5 24 -15
      vertex 11.5 24 0
    endloop
  endfacet
  facet normal 0 1 0
    outer loop
      vertex 11.5 24 0
      vertex 21.5 24 -15
      vertex 11.2487 24 -2.39098
    endloop
  endfacet
  facet normal -0 1 -0
    outer loop
      vertex 17.747 24 -14.9363
      vertex 11.2487 24 -2.39098
      vertex 21.5 24 -15
    endloop
  endfacet
  facet normal 0 1 0
    outer loop
      vertex 11.2487 24 -2.39098
      vertex 17.747 24 -14.9363
      vertex 10.5058 24 -4.67747
    endloop
  endfacet
  facet normal 0 1 0
    outer loop
      vertex 5.75 24 -9.95929
      vertex 14.6981 24 -17.3678
      vertex 3.55369 24 -10.9371
    endloop
  endfacet
  facet normal 0 1 -0
    outer loop
      vertex 14.6981 24 -17.3678
      vertex 5.75 24 -9.95929
      vertex 14.6981 24 -15.6322
    endloop
  endfacet
  facet normal 0 1 0
    outer loop
      vertex 7.695 24 -8.54617
      vertex 14.6981 24 -15.6322
      vertex 5.75 24 -9.95929
    endloop
  endfacet
  facet normal 0 1 -0
    outer loop
      vertex 14.6981 24 -15.6322
      vertex 7.695 24 -8.54617
      vertex 16.055 24 -14.5501
    endloop
  endfacet
  facet normal -0 1 -0
    outer loop
      vertex 16.055 24 -14.5501
      vertex 10.5058 24 -4.67747
      vertex 17.747 24 -14.9363
    endloop
  endfacet
  facet normal 0 1 0
    outer loop
      vertex 9.30369 24 -6.75953
      vertex 16.055 24 -14.5501
      vertex 7.695 24 -8.54617
    endloop
  endfacet
  facet normal 0 1 0
    outer loop
      vertex 10.5058 24 -4.67747
      vertex 16.055 24 -14.5501
      vertex 9.30369 24 -6.75953
    endloop
  endfacet
  facet normal 0 1 0
    outer loop
      vertex 21.5 24 -15
      vertex 36.5 24 15
      vertex 36.5 24 -15
    endloop
  endfacet
  facet normal 0 1 0
    outer loop
      vertex 17.747 24 -14.9363
      vertex 21.5 24 -15
      vertex 17.762 24 -14.9676
    endloop
  endfacet
  facet normal 0 1 0
    outer loop
      vertex 21.5 24 -15
      vertex 18.5 24 -16.5
      vertex 17.762 24 -14.9676
    endloop
  endfacet
  facet normal 0 1 0
    outer loop
      vertex 21.5 24 -15
      vertex 18.4849 24 -16.5313
      vertex 18.5 24 -16.5
    endloop
  endfacet
  facet normal 0 1 -0
    outer loop
      vertex 21.5 24 -21.5
      vertex 18.4849 24 -16.5313
      vertex 21.5 24 -15
    endloop
  endfacet
  facet normal 0 1 0
    outer loop
      vertex -21.5 24 -21.5
      vertex -15.253 24 -18.0637
      vertex 21.5 24 -21.5
    endloop
  endfacet
  facet normal 0 1 0
    outer loop
      vertex 17.747 24 -18.0637
      vertex 21.5 24 -21.5
      vertex 16.055 24 -18.4499
    endloop
  endfacet
  facet normal 0 1 0
    outer loop
      vertex 18.4849 24 -16.5313
      vertex 21.5 24 -21.5
      vertex 17.747 24 -18.0637
    endloop
  endfacet
  facet normal 0 1 0
    outer loop
      vertex -21.5 24 21.5
      vertex -15.253 24 18.0637
      vertex -16.945 24 18.4499
    endloop
  endfacet
  facet normal 0 1 -0
    outer loop
      vertex 14.6981 24 17.3678
      vertex -15.253 24 18.0637
      vertex 16.055 24 18.4499
    endloop
  endfacet
  facet normal 0 1 -0
    outer loop
      vertex 1.20208 24 11.437
      vertex -15.253 24 18.0637
      vertex 14.6981 24 17.3678
    endloop
  endfacet
  facet normal 0 1 -0
    outer loop
      vertex -1.20208 24 11.437
      vertex -15.253 24 18.0637
      vertex 1.20208 24 11.437
    endloop
  endfacet
  facet normal 0 1 0
    outer loop
      vertex 1.20208 24 11.437
      vertex 14.6981 24 17.3678
      vertex 14.6981 24 15.6322
    endloop
  endfacet
  facet normal 0 1 0
    outer loop
      vertex -15.253 24 18.0637
      vertex -1.20208 24 11.437
      vertex -15.238 24 18.0324
    endloop
  endfacet
  facet normal 0 1 0
    outer loop
      vertex -15.238 24 18.0324
      vertex -1.20208 24 11.437
      vertex -14.5 24 16.5
    endloop
  endfacet
  facet normal 0 1 0
    outer loop
      vertex 7.695 24 8.54617
      vertex 14.6981 24 15.6322
      vertex 16.055 24 14.5501
    endloop
  endfacet
  facet normal 0 1 -0
    outer loop
      vertex -3.55369 24 10.9371
      vertex -14.5 24 16.5
      vertex -1.20208 24 11.437
    endloop
  endfacet
  facet normal 0 1 0
    outer loop
      vertex 21.5 24 21.5
      vertex 16.055 24 18.4499
      vertex -21.5 24 21.5
    endloop
  endfacet
  facet normal 0 1 0
    outer loop
      vertex 21.5 24 21.5
      vertex 17.747 24 18.0637
      vertex 16.055 24 18.4499
    endloop
  endfacet
  facet normal 0 1 0
    outer loop
      vertex 21.5 24 21.5
      vertex 17.762 24 18.0324
      vertex 17.747 24 18.0637
    endloop
  endfacet
  facet normal 0 1 0
    outer loop
      vertex 21.5 24 21.5
      vertex 18.5 24 16.5
      vertex 17.762 24 18.0324
    endloop
  endfacet
  facet normal 0 1 -0
    outer loop
      vertex 21.5 24 15
      vertex 18.5 24 16.5
      vertex 21.5 24 21.5
    endloop
  endfacet
  facet normal 0 1 0
    outer loop
      vertex 18.5 24 16.5
      vertex 21.5 24 15
      vertex 18.4849 24 16.4687
    endloop
  endfacet
  facet normal 0 1 0
    outer loop
      vertex 18.4849 24 16.4687
      vertex 21.5 24 15
      vertex 17.747 24 14.9363
    endloop
  endfacet
  facet normal 0 1 -0
    outer loop
      vertex -15.253 24 18.0637
      vertex -21.5 24 21.5
      vertex 16.055 24 18.4499
    endloop
  endfacet
  facet normal 0 1 -0
    outer loop
      vertex -18.3019 24 17.3678
      vertex -21.5 24 21.5
      vertex -16.945 24 18.4499
    endloop
  endfacet
  facet normal 0 1 0
    outer loop
      vertex -21.5 24 15
      vertex -18.3019 24 17.3678
      vertex -18.3019 24 15.6322
    endloop
  endfacet
  facet normal 0 1 0
    outer loop
      vertex -18.3019 24 17.3678
      vertex -21.5 24 15
      vertex -21.5 24 21.5
    endloop
  endfacet
  facet normal 0 1 0
    outer loop
      vertex -16.945 24 14.5501
      vertex -21.5 24 15
      vertex -18.3019 24 15.6322
    endloop
  endfacet
  facet normal 0 1 0
    outer loop
      vertex -11.2487 24 2.39098
      vertex -21.5 24 15
      vertex -16.945 24 14.5501
    endloop
  endfacet
  facet normal 0 1 0
    outer loop
      vertex -14.5 24 16.5
      vertex -5.75 24 9.95929
      vertex -14.5151 24 16.4687
    endloop
  endfacet
  facet normal 0 1 -0
    outer loop
      vertex -7.695 24 8.54617
      vertex -14.5151 24 16.4687
      vertex -5.75 24 9.95929
    endloop
  endfacet
  facet normal 0 1 0
    outer loop
      vertex -14.5151 24 16.4687
      vertex -7.695 24 8.54617
      vertex -15.253 24 14.9363
    endloop
  endfacet
  facet normal 0 1 -0
    outer loop
      vertex -9.30369 24 6.75953
      vertex -15.253 24 14.9363
      vertex -7.695 24 8.54617
    endloop
  endfacet
  facet normal 0 1 0
    outer loop
      vertex -15.253 24 14.9363
      vertex -9.30369 24 6.75953
      vertex -16.945 24 14.5501
    endloop
  endfacet
  facet normal 0 1 -0
    outer loop
      vertex -10.5058 24 4.67747
      vertex -16.945 24 14.5501
      vertex -9.30369 24 6.75953
    endloop
  endfacet
  facet normal 0 1 -0
    outer loop
      vertex -11.2487 24 2.39098
      vertex -16.945 24 14.5501
      vertex -10.5058 24 4.67747
    endloop
  endfacet
  facet normal 0 1 0
    outer loop
      vertex -21.5 24 15
      vertex -11.2487 24 2.39098
      vertex -11.5 24 0
    endloop
  endfacet
  facet normal 0 1 0
    outer loop
      vertex -21.5 24 -15
      vertex -21.5 24 15
      vertex -11.5 24 0
    endloop
  endfacet
  facet normal 0 1 0
    outer loop
      vertex -21.5 24 -15
      vertex -11.5 24 0
      vertex -11.2487 24 -2.39098
    endloop
  endfacet
  facet normal 0 1 0
    outer loop
      vertex -16.945 24 -14.5501
      vertex -11.2487 24 -2.39098
      vertex -10.5058 24 -4.67747
    endloop
  endfacet
  facet normal 0 1 0
    outer loop
      vertex -16.945 24 -14.5501
      vertex -10.5058 24 -4.67747
      vertex -9.30369 24 -6.75953
    endloop
  endfacet
  facet normal 0 1 0
    outer loop
      vertex -15.253 24 -14.9363
      vertex -9.30369 24 -6.75953
      vertex -7.695 24 -8.54617
    endloop
  endfacet
  facet normal 0 1 0
    outer loop
      vertex 1.20208 24 -11.437
      vertex -15.253 24 -14.9363
      vertex -1.20208 24 -11.437
    endloop
  endfacet
  facet normal 0 1 0
    outer loop
      vertex -15.253 24 -14.9363
      vertex -3.55369 24 -10.9371
      vertex -1.20208 24 -11.437
    endloop
  endfacet
  facet normal 0 1 0
    outer loop
      vertex -15.253 24 -14.9363
      vertex -5.75 24 -9.95929
      vertex -3.55369 24 -10.9371
    endloop
  endfacet
  facet normal 0 1 0
    outer loop
      vertex -15.253 24 -14.9363
      vertex -7.695 24 -8.54617
      vertex -5.75 24 -9.95929
    endloop
  endfacet
  facet normal 0 1 0
    outer loop
      vertex -11.2487 24 -2.39098
      vertex -16.945 24 -14.5501
      vertex -21.5 24 -15
    endloop
  endfacet
  facet normal 0 1 0
    outer loop
      vertex -21.5 24 15
      vertex -21.5 24 -15
      vertex -36.5 24 15
    endloop
  endfacet
  facet normal 0 1 0
    outer loop
      vertex -36.5 24 15
      vertex -21.5 24 -15
      vertex -36.5 24 -15
    endloop
  endfacet
  facet normal 1 -0 0
    outer loop
      vertex 28.5 -8.66025 15
      vertex 28.5 8.66025 -15
      vertex 28.5 8.66025 15
    endloop
  endfacet
  facet normal 1 0 0
    outer loop
      vertex 28.5 8.66025 -15
      vertex 28.5 -8.66025 15
      vertex 28.5 -8.66025 -15
    endloop
  endfacet
  facet normal -0.5 -0.866025 0
    outer loop
      vertex 28.5 8.66025 -15
      vertex 36.5 4.04145 15
      vertex 28.5 8.66025 15
    endloop
  endfacet
  facet normal -0.5 -0.866025 -0
    outer loop
      vertex 36.5 4.04145 15
      vertex 28.5 8.66025 -15
      vertex 36.5 4.04145 -15
    endloop
  endfacet
  facet normal -0.5 0.866025 0
    outer loop
      vertex 36.5 -4.04145 -15
      vertex 28.5 -8.66025 15
      vertex 36.5 -4.04145 15
    endloop
  endfacet
  facet normal -0.5 0.866025 0
    outer loop
      vertex 28.5 -8.66025 15
      vertex 36.5 -4.04145 -15
      vertex 28.5 -8.66025 -15
    endloop
  endfacet
  facet normal 0.5 -0.866025 0
    outer loop
      vertex -36.5 4.04145 -15
      vertex -28.5 8.66025 15
      vertex -36.5 4.04145 15
    endloop
  endfacet
  facet normal 0.5 -0.866025 0
    outer loop
      vertex -28.5 8.66025 15
      vertex -36.5 4.04145 -15
      vertex -28.5 8.66025 -15
    endloop
  endfacet
  facet normal -1 0 0
    outer loop
      vertex -28.5 -8.66025 -15
      vertex -28.5 8.66025 15
      vertex -28.5 8.66025 -15
    endloop
  endfacet
  facet normal -1 -0 0
    outer loop
      vertex -28.5 8.66025 15
      vertex -28.5 -8.66025 -15
      vertex -28.5 -8.66025 15
    endloop
  endfacet
  facet normal 0.5 0.866025 -0
    outer loop
      vertex -28.5 -8.66025 -15
      vertex -36.5 -4.04145 15
      vertex -28.5 -8.66025 15
    endloop
  endfacet
  facet normal 0.5 0.866025 0
    outer loop
      vertex -36.5 -4.04145 15
      vertex -28.5 -8.66025 -15
      vertex -36.5 -4.04145 -15
    endloop
  endfacet
  facet normal 1 -0 0
    outer loop
      vertex -21.5 -14 15
      vertex -21.5 19 -15
      vertex -21.5 19 15
    endloop
  endfacet
  facet normal 1 0 0
    outer loop
      vertex -21.5 19 -15
      vertex -21.5 -14 15
      vertex -21.5 -14 -15
    endloop
  endfacet
  facet normal -1 0 0
    outer loop
      vertex 21.5 -14 -15
      vertex 21.5 19 15
      vertex 21.5 19 -15
    endloop
  endfacet
  facet normal -1 -0 0
    outer loop
      vertex 21.5 19 15
      vertex 21.5 -14 -15
      vertex 21.5 -14 15
    endloop
  endfacet
  facet normal 0 -1 0
    outer loop
      vertex -14.5904 19 -16.6876
      vertex -3.55369 19 -10.9371
      vertex -14.5 19 -16.5
    endloop
  endfacet
  facet normal 0 -1 -0
    outer loop
      vertex -3.55369 19 -10.9371
      vertex -14.5904 19 -16.6876
      vertex -1.20208 19 -11.437
    endloop
  endfacet
  facet normal 0 -1 0
    outer loop
      vertex 1.20208 19 -11.437
      vertex 14.6981 19 -15.6322
      vertex 16.055 19 -14.5501
    endloop
  endfacet
  facet normal 0 -1 0
    outer loop
      vertex -15.253 19 -18.0637
      vertex -1.20208 19 -11.437
      vertex -14.5904 19 -16.6876
    endloop
  endfacet
  facet normal 0 -1 -0
    outer loop
      vertex -1.20208 19 -11.437
      vertex -15.253 19 -18.0637
      vertex 1.20208 19 -11.437
    endloop
  endfacet
  facet normal 0 -1 0
    outer loop
      vertex 1.20208 19 -11.437
      vertex 14.6981 19 -17.3678
      vertex 14.6981 19 -15.6322
    endloop
  endfacet
  facet normal 0 -1 -0
    outer loop
      vertex 1.20208 19 -11.437
      vertex -15.253 19 -18.0637
      vertex 14.6981 19 -17.3678
    endloop
  endfacet
  facet normal 0 -1 0
    outer loop
      vertex -21.5 19 -21.5
      vertex -15.253 19 -18.0637
      vertex -16.945 19 -18.4499
    endloop
  endfacet
  facet normal 0 -1 0
    outer loop
      vertex -15.253 19 -18.0637
      vertex 16.055 19 -18.4499
      vertex 14.6981 19 -17.3678
    endloop
  endfacet
  facet normal 0 -1 0
    outer loop
      vertex -21.5 19 21.5
      vertex -15.253 19 18.0637
      vertex 16.055 19 18.4499
    endloop
  endfacet
  facet normal 0 -1 0
    outer loop
      vertex -1.20208 19 11.437
      vertex -15.253 19 18.0637
      vertex -15.1627 19 17.876
    endloop
  endfacet
  facet normal 0 -1 0
    outer loop
      vertex -15.253 19 18.0637
      vertex 14.6981 19 17.3678
      vertex 16.055 19 18.4499
    endloop
  endfacet
  facet normal 0 -1 0
    outer loop
      vertex -3.55369 19 10.9371
      vertex -15.1627 19 17.876
      vertex -14.5 19 16.5
    endloop
  endfacet
  facet normal 0 -1 0
    outer loop
      vertex -5.75 19 9.95929
      vertex -14.5 19 16.5
      vertex -14.5904 19 16.3124
    endloop
  endfacet
  facet normal 0 -1 0
    outer loop
      vertex -15.253 19 18.0637
      vertex -1.20208 19 11.437
      vertex 14.6981 19 17.3678
    endloop
  endfacet
  facet normal 0 -1 0
    outer loop
      vertex -7.695 19 8.54617
      vertex -14.5904 19 16.3124
      vertex -15.253 19 14.9363
    endloop
  endfacet
  facet normal 0 -1 0
    outer loop
      vertex -9.30369 19 6.75953
      vertex -15.253 19 14.9363
      vertex -16.945 19 14.5501
    endloop
  endfacet
  facet normal 0 -1 0
    outer loop
      vertex 14.6981 19 17.3678
      vertex -1.20208 19 11.437
      vertex 1.20208 19 11.437
    endloop
  endfacet
  facet normal 0 -1 0
    outer loop
      vertex -15.253 19 18.0637
      vertex -21.5 19 21.5
      vertex -16.945 19 18.4499
    endloop
  endfacet
  facet normal 0 -1 0
    outer loop
      vertex -21.5 19 21.5
      vertex -18.3019 19 17.3678
      vertex -16.945 19 18.4499
    endloop
  endfacet
  facet normal 0 -1 0
    outer loop
      vertex -21.5 19 15
      vertex -18.3019 19 17.3678
      vertex -21.5 19 21.5
    endloop
  endfacet
  facet normal 0 -1 -0
    outer loop
      vertex -18.3019 19 17.3678
      vertex -21.5 19 15
      vertex -18.3019 19 15.6322
    endloop
  endfacet
  facet normal 0 -1 0
    outer loop
      vertex -21.5 19 15
      vertex -16.945 19 14.5501
      vertex -18.3019 19 15.6322
    endloop
  endfacet
  facet normal 0 -1 0
    outer loop
      vertex 3.55369 19 10.9371
      vertex 14.6981 19 17.3678
      vertex 1.20208 19 11.437
    endloop
  endfacet
  facet normal 0 -1 0
    outer loop
      vertex -11.2487 19 2.39098
      vertex -16.945 19 14.5501
      vertex -21.5 19 15
    endloop
  endfacet
  facet normal 0 -1 0
    outer loop
      vertex -15.1627 19 17.876
      vertex -3.55369 19 10.9371
      vertex -1.20208 19 11.437
    endloop
  endfacet
  facet normal 0 -1 0
    outer loop
      vertex -14.5 19 16.5
      vertex -5.75 19 9.95929
      vertex -3.55369 19 10.9371
    endloop
  endfacet
  facet normal 0 -1 0
    outer loop
      vertex -14.5904 19 16.3124
      vertex -7.695 19 8.54617
      vertex -5.75 19 9.95929
    endloop
  endfacet
  facet normal 0 -1 0
    outer loop
      vertex -15.253 19 14.9363
      vertex -9.30369 19 6.75953
      vertex -7.695 19 8.54617
    endloop
  endfacet
  facet normal 0 -1 0
    outer loop
      vertex -16.945 19 14.5501
      vertex -10.5058 19 4.67747
      vertex -9.30369 19 6.75953
    endloop
  endfacet
  facet normal 0 -1 0
    outer loop
      vertex -16.945 19 14.5501
      vertex -11.2487 19 2.39098
      vertex -10.5058 19 4.67747
    endloop
  endfacet
  facet normal 0 -1 0
    outer loop
      vertex -21.5 19 15
      vertex -11.5 19 0
      vertex -11.2487 19 2.39098
    endloop
  endfacet
  facet normal 0 -1 0
    outer loop
      vertex -21.5 19 -15
      vertex -11.5 19 0
      vertex -21.5 19 15
    endloop
  endfacet
  facet normal 0 -1 -0
    outer loop
      vertex -11.5 19 0
      vertex -21.5 19 -15
      vertex -11.2487 19 -2.39098
    endloop
  endfacet
  facet normal 0 -1 -0
    outer loop
      vertex -7.695 19 -8.54617
      vertex -14.5 19 -16.5
      vertex -5.75 19 -9.95929
    endloop
  endfacet
  facet normal 0 -1 0
    outer loop
      vertex -14.5 19 -16.5
      vertex -7.695 19 -8.54617
      vertex -15.1627 19 -15.124
    endloop
  endfacet
  facet normal 0 -1 0
    outer loop
      vertex -15.1627 19 -15.124
      vertex -7.695 19 -8.54617
      vertex -15.253 19 -14.9363
    endloop
  endfacet
  facet normal 0 -1 -0
    outer loop
      vertex -9.30369 19 -6.75953
      vertex -15.253 19 -14.9363
      vertex -7.695 19 -8.54617
    endloop
  endfacet
  facet normal 0 -1 0
    outer loop
      vertex -15.253 19 -14.9363
      vertex -9.30369 19 -6.75953
      vertex -16.945 19 -14.5501
    endloop
  endfacet
  facet normal 0 -1 -0
    outer loop
      vertex -10.5058 19 -4.67747
      vertex -16.945 19 -14.5501
      vertex -9.30369 19 -6.75953
    endloop
  endfacet
  facet normal -0 -1 0
    outer loop
      vertex -16.945 19 -14.5501
      vertex -11.2487 19 -2.39098
      vertex -21.5 19 -15
    endloop
  endfacet
  facet normal 0 -1 -0
    outer loop
      vertex -11.2487 19 -2.39098
      vertex -16.945 19 -14.5501
      vertex -10.5058 19 -4.67747
    endloop
  endfacet
  facet normal 0 -1 0
    outer loop
      vertex -21.5 19 -15
      vertex -18.3019 19 -15.6322
      vertex -16.945 19 -14.5501
    endloop
  endfacet
  facet normal 0 -1 0
    outer loop
      vertex -21.5 19 -15
      vertex -18.3019 19 -17.3678
      vertex -18.3019 19 -15.6322
    endloop
  endfacet
  facet normal 0 -1 0
    outer loop
      vertex -21.5 19 -21.5
      vertex -18.3019 19 -17.3678
      vertex -21.5 19 -15
    endloop
  endfacet
  facet normal 0 -1 -0
    outer loop
      vertex -15.253 19 -18.0637
      vertex -21.5 19 -21.5
      vertex 16.055 19 -18.4499
    endloop
  endfacet
  facet normal 0 -1 -0
    outer loop
      vertex -18.3019 19 -17.3678
      vertex -21.5 19 -21.5
      vertex -16.945 19 -18.4499
    endloop
  endfacet
  facet normal 0 -1 0
    outer loop
      vertex -21.5 19 21.5
      vertex 16.055 19 18.4499
      vertex 21.5 19 21.5
    endloop
  endfacet
  facet normal 0 -1 0
    outer loop
      vertex 17.747 19 18.0637
      vertex 21.5 19 21.5
      vertex 16.055 19 18.4499
    endloop
  endfacet
  facet normal 0 -1 0
    outer loop
      vertex 17.8373 19 17.876
      vertex 21.5 19 21.5
      vertex 17.747 19 18.0637
    endloop
  endfacet
  facet normal 0 -1 0
    outer loop
      vertex 18.5 19 16.5
      vertex 21.5 19 21.5
      vertex 17.8373 19 17.876
    endloop
  endfacet
  facet normal 0 -1 0
    outer loop
      vertex 21.5 19 15
      vertex 18.5 19 16.5
      vertex 18.4096 19 16.3124
    endloop
  endfacet
  facet normal 0 -1 0
    outer loop
      vertex 18.5 19 16.5
      vertex 21.5 19 15
      vertex 21.5 19 21.5
    endloop
  endfacet
  facet normal 0 -1 0
    outer loop
      vertex 17.747 19 14.9363
      vertex 21.5 19 15
      vertex 18.4096 19 16.3124
    endloop
  endfacet
  facet normal 0 -1 0
    outer loop
      vertex 10.5058 19 4.67747
      vertex 17.747 19 14.9363
      vertex 16.055 19 14.5501
    endloop
  endfacet
  facet normal 0 -1 0
    outer loop
      vertex 5.75 19 9.95929
      vertex 14.6981 19 17.3678
      vertex 3.55369 19 10.9371
    endloop
  endfacet
  facet normal 0 -1 -0
    outer loop
      vertex 14.6981 19 17.3678
      vertex 5.75 19 9.95929
      vertex 14.6981 19 15.6322
    endloop
  endfacet
  facet normal 0 -1 0
    outer loop
      vertex 7.695 19 8.54617
      vertex 14.6981 19 15.6322
      vertex 5.75 19 9.95929
    endloop
  endfacet
  facet normal 0 -1 -0
    outer loop
      vertex 14.6981 19 15.6322
      vertex 7.695 19 8.54617
      vertex 16.055 19 14.5501
    endloop
  endfacet
  facet normal 0 -1 0
    outer loop
      vertex 9.30369 19 6.75953
      vertex 16.055 19 14.5501
      vertex 7.695 19 8.54617
    endloop
  endfacet
  facet normal 0 -1 0
    outer loop
      vertex 10.5058 19 4.67747
      vertex 16.055 19 14.5501
      vertex 9.30369 19 6.75953
    endloop
  endfacet
  facet normal 0 -1 0
    outer loop
      vertex 17.747 19 14.9363
      vertex 10.5058 19 4.67747
      vertex 11.2487 19 2.39098
    endloop
  endfacet
  facet normal 0 -1 -0
    outer loop
      vertex 17.747 19 14.9363
      vertex 11.2487 19 2.39098
      vertex 21.5 19 15
    endloop
  endfacet
  facet normal 0 -1 0
    outer loop
      vertex 11.5 19 0
      vertex 21.5 19 15
      vertex 11.2487 19 2.39098
    endloop
  endfacet
  facet normal 0 -1 0
    outer loop
      vertex 21.5 19 -15
      vertex 11.5 19 0
      vertex 11.2487 19 -2.39098
    endloop
  endfacet
  facet normal 0 -1 0
    outer loop
      vertex 17.747 19 -14.9363
      vertex 11.2487 19 -2.39098
      vertex 10.5058 19 -4.67747
    endloop
  endfacet
  facet normal 0 -1 -0
    outer loop
      vertex -5.75 19 -9.95929
      vertex -14.5 19 -16.5
      vertex -3.55369 19 -10.9371
    endloop
  endfacet
  facet normal 0 -1 0
    outer loop
      vertex 16.055 19 -14.5501
      vertex 3.55369 19 -10.9371
      vertex 1.20208 19 -11.437
    endloop
  endfacet
  facet normal 0 -1 0
    outer loop
      vertex 16.055 19 -14.5501
      vertex 5.75 19 -9.95929
      vertex 3.55369 19 -10.9371
    endloop
  endfacet
  facet normal 0 -1 0
    outer loop
      vertex 16.055 19 -14.5501
      vertex 7.695 19 -8.54617
      vertex 5.75 19 -9.95929
    endloop
  endfacet
  facet normal 0 -1 0
    outer loop
      vertex 16.055 19 -14.5501
      vertex 9.30369 19 -6.75953
      vertex 7.695 19 -8.54617
    endloop
  endfacet
  facet normal 0 -1 0
    outer loop
      vertex 16.055 19 -14.5501
      vertex 10.5058 19 -4.67747
      vertex 9.30369 19 -6.75953
    endloop
  endfacet
  facet normal 0 -1 0
    outer loop
      vertex 17.747 19 -14.9363
      vertex 10.5058 19 -4.67747
      vertex 16.055 19 -14.5501
    endloop
  endfacet
  facet normal 0 -1 0
    outer loop
      vertex 11.2487 19 -2.39098
      vertex 17.747 19 -14.9363
      vertex 21.5 19 -15
    endloop
  endfacet
  facet normal 0 -1 0
    outer loop
      vertex 11.5 19 0
      vertex 21.5 19 -15
      vertex 21.5 19 15
    endloop
  endfacet
  facet normal 0 -1 0
    outer loop
      vertex 17.8373 19 -15.124
      vertex 21.5 19 -15
      vertex 17.747 19 -14.9363
    endloop
  endfacet
  facet normal 0 -1 0
    outer loop
      vertex 18.5 19 -16.5
      vertex 21.5 19 -15
      vertex 17.8373 19 -15.124
    endloop
  endfacet
  facet normal 0 -1 0
    outer loop
      vertex 18.4096 19 -16.6876
      vertex 21.5 19 -15
      vertex 18.5 19 -16.5
    endloop
  endfacet
  facet normal 0 -1 0
    outer loop
      vertex 21.5 19 -21.5
      vertex 18.4096 19 -16.6876
      vertex 17.747 19 -18.0637
    endloop
  endfacet
  facet normal 0 -1 0
    outer loop
      vertex 18.4096 19 -16.6876
      vertex 21.5 19 -21.5
      vertex 21.5 19 -15
    endloop
  endfacet
  facet normal 0 -1 0
    outer loop
      vertex 16.055 19 -18.4499
      vertex 21.5 19 -21.5
      vertex 17.747 19 -18.0637
    endloop
  endfacet
  facet normal 0 -1 0
    outer loop
      vertex 21.5 19 -21.5
      vertex 16.055 19 -18.4499
      vertex -21.5 19 -21.5
    endloop
  endfacet
  facet normal -1 0 0
    outer loop
      vertex -21.5 19 15
      vertex -21.5 24 21.5
      vertex -21.5 24 15
    endloop
  endfacet
  facet normal -1 -0 0
    outer loop
      vertex -21.5 24 21.5
      vertex -21.5 19 15
      vertex -21.5 19 21.5
    endloop
  endfacet
  facet normal -1 0 0
    outer loop
      vertex -21.5 19 -21.5
      vertex -21.5 24 -15
      vertex -21.5 24 -21.5
    endloop
  endfacet
  facet normal -1 -0 0
    outer loop
      vertex -21.5 24 -15
      vertex -21.5 19 -21.5
      vertex -21.5 19 -15
    endloop
  endfacet
  facet normal -0 0 1
    outer loop
      vertex -21.5 24 21.5
      vertex 21.5 19 21.5
      vertex 21.5 24 21.5
    endloop
  endfacet
  facet normal 0 0 1
    outer loop
      vertex 21.5 19 21.5
      vertex -21.5 24 21.5
      vertex -21.5 19 21.5
    endloop
  endfacet
  facet normal 1 -0 0
    outer loop
      vertex 21.5 19 21.5
      vertex 21.5 24 15
      vertex 21.5 24 21.5
    endloop
  endfacet
  facet normal 1 0 0
    outer loop
      vertex 21.5 24 15
      vertex 21.5 19 21.5
      vertex 21.5 19 15
    endloop
  endfacet
  facet normal 1 -0 0
    outer loop
      vertex 21.5 19 -15
      vertex 21.5 24 -21.5
      vertex 21.5 24 -15
    endloop
  endfacet
  facet normal 1 0 0
    outer loop
      vertex 21.5 24 -21.5
      vertex 21.5 19 -15
      vertex 21.5 19 -21.5
    endloop
  endfacet
  facet normal 0 0 -1
    outer loop
      vertex -21.5 19 -21.5
      vertex 21.5 24 -21.5
      vertex 21.5 19 -21.5
    endloop
  endfacet
  facet normal -0 0 -1
    outer loop
      vertex 21.5 24 -21.5
      vertex -21.5 19 -21.5
      vertex -21.5 24 -21.5
    endloop
  endfacet
  facet normal -0.994522 0 -0.104529
    outer loop
      vertex 11.5 19 0
      vertex 11.2487 24 2.39098
      vertex 11.5 24 0
    endloop
  endfacet
  facet normal -0.994522 -0 -0.104529
    outer loop
      vertex 11.2487 24 2.39098
      vertex 11.5 19 0
      vertex 11.2487 19 2.39098
    endloop
  endfacet
  facet normal -0.951057 0 -0.309017
    outer loop
      vertex 11.2487 19 2.39098
      vertex 10.5058 24 4.67747
      vertex 11.2487 24 2.39098
    endloop
  endfacet
  facet normal -0.951057 -0 -0.309017
    outer loop
      vertex 10.5058 24 4.67747
      vertex 11.2487 19 2.39098
      vertex 10.5058 19 4.67747
    endloop
  endfacet
  facet normal 0.994522 0 -0.104529
    outer loop
      vertex -11.2487 19 2.39098
      vertex -11.5 24 0
      vertex -11.2487 24 2.39098
    endloop
  endfacet
  facet normal 0.994522 0 -0.104529
    outer loop
      vertex -11.5 24 0
      vertex -11.2487 19 2.39098
      vertex -11.5 19 0
    endloop
  endfacet
  facet normal 0 0 -1
    outer loop
      vertex -1.20208 19 11.437
      vertex 1.20208 24 11.437
      vertex 1.20208 19 11.437
    endloop
  endfacet
  facet normal -0 0 -1
    outer loop
      vertex 1.20208 24 11.437
      vertex -1.20208 19 11.437
      vertex -1.20208 24 11.437
    endloop
  endfacet
  facet normal -0.743145 0 -0.66913
    outer loop
      vertex 9.30369 19 6.75953
      vertex 7.695 24 8.54617
      vertex 9.30369 24 6.75953
    endloop
  endfacet
  facet normal -0.743145 -0 -0.66913
    outer loop
      vertex 7.695 24 8.54617
      vertex 9.30369 19 6.75953
      vertex 7.695 19 8.54617
    endloop
  endfacet
  facet normal 0.207912 0 -0.978148
    outer loop
      vertex -3.55369 19 10.9371
      vertex -1.20208 24 11.437
      vertex -1.20208 19 11.437
    endloop
  endfacet
  facet normal 0.207912 0 -0.978148
    outer loop
      vertex -1.20208 24 11.437
      vertex -3.55369 19 10.9371
      vertex -3.55369 24 10.9371
    endloop
  endfacet
  facet normal -0.866025 0 0.5
    outer loop
      vertex 9.30369 19 -6.75953
      vertex 10.5058 24 -4.67747
      vertex 9.30369 24 -6.75953
    endloop
  endfacet
  facet normal -0.866025 0 0.5
    outer loop
      vertex 10.5058 24 -4.67747
      vertex 9.30369 19 -6.75953
      vertex 10.5058 19 -4.67747
    endloop
  endfacet
  facet normal -0.406736 0 -0.913546
    outer loop
      vertex 3.55369 19 10.9371
      vertex 5.75 24 9.95929
      vertex 5.75 19 9.95929
    endloop
  endfacet
  facet normal -0.406736 0 -0.913546
    outer loop
      vertex 5.75 24 9.95929
      vertex 3.55369 19 10.9371
      vertex 3.55369 24 10.9371
    endloop
  endfacet
  facet normal -0.587785 0 -0.809017
    outer loop
      vertex 5.75 19 9.95929
      vertex 7.695 24 8.54617
      vertex 7.695 19 8.54617
    endloop
  endfacet
  facet normal -0.587785 0 -0.809017
    outer loop
      vertex 7.695 24 8.54617
      vertex 5.75 19 9.95929
      vertex 5.75 24 9.95929
    endloop
  endfacet
  facet normal 0.866025 0 -0.5
    outer loop
      vertex -9.30369 19 6.75953
      vertex -10.5058 24 4.67747
      vertex -9.30369 24 6.75953
    endloop
  endfacet
  facet normal 0.866025 0 -0.5
    outer loop
      vertex -10.5058 24 4.67747
      vertex -9.30369 19 6.75953
      vertex -10.5058 19 4.67747
    endloop
  endfacet
  facet normal 0.743145 0 -0.66913
    outer loop
      vertex -7.695 19 8.54617
      vertex -9.30369 24 6.75953
      vertex -7.695 24 8.54617
    endloop
  endfacet
  facet normal 0.743145 0 -0.66913
    outer loop
      vertex -9.30369 24 6.75953
      vertex -7.695 19 8.54617
      vertex -9.30369 19 6.75953
    endloop
  endfacet
  facet normal -0 0 1
    outer loop
      vertex -1.20208 24 -11.437
      vertex 1.20208 19 -11.437
      vertex 1.20208 24 -11.437
    endloop
  endfacet
  facet normal 0 0 1
    outer loop
      vertex 1.20208 19 -11.437
      vertex -1.20208 24 -11.437
      vertex -1.20208 19 -11.437
    endloop
  endfacet
  facet normal -0.406736 0 0.913546
    outer loop
      vertex 3.55369 24 -10.9371
      vertex 5.75 19 -9.95929
      vertex 5.75 24 -9.95929
    endloop
  endfacet
  facet normal -0.406736 0 0.913546
    outer loop
      vertex 5.75 19 -9.95929
      vertex 3.55369 24 -10.9371
      vertex 3.55369 19 -10.9371
    endloop
  endfacet
  facet normal -0.866025 0 -0.5
    outer loop
      vertex 10.5058 19 4.67747
      vertex 9.30369 24 6.75953
      vertex 10.5058 24 4.67747
    endloop
  endfacet
  facet normal -0.866025 -0 -0.5
    outer loop
      vertex 9.30369 24 6.75953
      vertex 10.5058 19 4.67747
      vertex 9.30369 19 6.75953
    endloop
  endfacet
  facet normal -0.207912 0 -0.978148
    outer loop
      vertex 1.20208 19 11.437
      vertex 3.55369 24 10.9371
      vertex 3.55369 19 10.9371
    endloop
  endfacet
  facet normal -0.207912 0 -0.978148
    outer loop
      vertex 3.55369 24 10.9371
      vertex 1.20208 19 11.437
      vertex 1.20208 24 11.437
    endloop
  endfacet
  facet normal 0.951057 0 -0.309017
    outer loop
      vertex -10.5058 19 4.67747
      vertex -11.2487 24 2.39098
      vertex -10.5058 24 4.67747
    endloop
  endfacet
  facet normal 0.951057 0 -0.309017
    outer loop
      vertex -11.2487 24 2.39098
      vertex -10.5058 19 4.67747
      vertex -11.2487 19 2.39098
    endloop
  endfacet
  facet normal 0.406737 0 -0.913545
    outer loop
      vertex -5.75 19 9.95929
      vertex -3.55369 24 10.9371
      vertex -3.55369 19 10.9371
    endloop
  endfacet
  facet normal 0.406737 0 -0.913545
    outer loop
      vertex -3.55369 24 10.9371
      vertex -5.75 19 9.95929
      vertex -5.75 24 9.95929
    endloop
  endfacet
  facet normal 0.587785 0 -0.809017
    outer loop
      vertex -7.695 19 8.54617
      vertex -5.75 24 9.95929
      vertex -5.75 19 9.95929
    endloop
  endfacet
  facet normal 0.587785 0 -0.809017
    outer loop
      vertex -5.75 24 9.95929
      vertex -7.695 19 8.54617
      vertex -7.695 24 8.54617
    endloop
  endfacet
  facet normal -0.587785 0 0.809017
    outer loop
      vertex 5.75 24 -9.95929
      vertex 7.695 19 -8.54617
      vertex 7.695 24 -8.54617
    endloop
  endfacet
  facet normal -0.587785 0 0.809017
    outer loop
      vertex 7.695 19 -8.54617
      vertex 5.75 24 -9.95929
      vertex 5.75 19 -9.95929
    endloop
  endfacet
  facet normal -0.951057 0 0.309017
    outer loop
      vertex 10.5058 19 -4.67747
      vertex 11.2487 24 -2.39098
      vertex 10.5058 24 -4.67747
    endloop
  endfacet
  facet normal -0.951057 0 0.309017
    outer loop
      vertex 11.2487 24 -2.39098
      vertex 10.5058 19 -4.67747
      vertex 11.2487 19 -2.39098
    endloop
  endfacet
  facet normal -0.994522 0 0.104529
    outer loop
      vertex 11.2487 19 -2.39098
      vertex 11.5 24 0
      vertex 11.2487 24 -2.39098
    endloop
  endfacet
  facet normal -0.994522 0 0.104529
    outer loop
      vertex 11.5 24 0
      vertex 11.2487 19 -2.39098
      vertex 11.5 19 0
    endloop
  endfacet
  facet normal 0.587785 0 0.809017
    outer loop
      vertex -7.695 24 -8.54617
      vertex -5.75 19 -9.95929
      vertex -5.75 24 -9.95929
    endloop
  endfacet
  facet normal 0.587785 0 0.809017
    outer loop
      vertex -5.75 19 -9.95929
      vertex -7.695 24 -8.54617
      vertex -7.695 19 -8.54617
    endloop
  endfacet
  facet normal 0.866025 -0 0.5
    outer loop
      vertex -10.5058 19 -4.67747
      vertex -9.30369 24 -6.75953
      vertex -10.5058 24 -4.67747
    endloop
  endfacet
  facet normal 0.866025 0 0.5
    outer loop
      vertex -9.30369 24 -6.75953
      vertex -10.5058 19 -4.67747
      vertex -9.30369 19 -6.75953
    endloop
  endfacet
  facet normal 0.951057 -0 0.309017
    outer loop
      vertex -11.2487 19 -2.39098
      vertex -10.5058 24 -4.67747
      vertex -11.2487 24 -2.39098
    endloop
  endfacet
  facet normal 0.951057 0 0.309017
    outer loop
      vertex -10.5058 24 -4.67747
      vertex -11.2487 19 -2.39098
      vertex -10.5058 19 -4.67747
    endloop
  endfacet
  facet normal 0.743145 -0 0.66913
    outer loop
      vertex -9.30369 19 -6.75953
      vertex -7.695 24 -8.54617
      vertex -9.30369 24 -6.75953
    endloop
  endfacet
  facet normal 0.743145 0 0.66913
    outer loop
      vertex -7.695 24 -8.54617
      vertex -9.30369 19 -6.75953
      vertex -7.695 19 -8.54617
    endloop
  endfacet
  facet normal 0.994522 -0 0.104529
    outer loop
      vertex -11.5 19 0
      vertex -11.2487 24 -2.39098
      vertex -11.5 24 0
    endloop
  endfacet
  facet normal 0.994522 0 0.104529
    outer loop
      vertex -11.2487 24 -2.39098
      vertex -11.5 19 0
      vertex -11.2487 19 -2.39098
    endloop
  endfacet
  facet normal -0.207912 0 0.978148
    outer loop
      vertex 1.20208 24 -11.437
      vertex 3.55369 19 -10.9371
      vertex 3.55369 24 -10.9371
    endloop
  endfacet
  facet normal -0.207912 0 0.978148
    outer loop
      vertex 3.55369 19 -10.9371
      vertex 1.20208 24 -11.437
      vertex 1.20208 19 -11.437
    endloop
  endfacet
  facet normal -0.743145 0 0.66913
    outer loop
      vertex 7.695 19 -8.54617
      vertex 9.30369 24 -6.75953
      vertex 7.695 24 -8.54617
    endloop
  endfacet
  facet normal -0.743145 0 0.66913
    outer loop
      vertex 9.30369 24 -6.75953
      vertex 7.695 19 -8.54617
      vertex 9.30369 19 -6.75953
    endloop
  endfacet
  facet normal 0.406736 0 0.913546
    outer loop
      vertex -5.75 24 -9.95929
      vertex -3.55369 19 -10.9371
      vertex -3.55369 24 -10.9371
    endloop
  endfacet
  facet normal 0.406736 0 0.913546
    outer loop
      vertex -3.55369 19 -10.9371
      vertex -5.75 24 -9.95929
      vertex -5.75 19 -9.95929
    endloop
  endfacet
  facet normal 0.207912 0 0.978148
    outer loop
      vertex -3.55369 24 -10.9371
      vertex -1.20208 19 -11.437
      vertex -1.20208 24 -11.437
    endloop
  endfacet
  facet normal 0.207912 0 0.978148
    outer loop
      vertex -1.20208 19 -11.437
      vertex -3.55369 24 -10.9371
      vertex -3.55369 19 -10.9371
    endloop
  endfacet
  facet normal -0.90097 -1.10342e-07 -0.433881
    outer loop
      vertex 17.747 19 18.0637
      vertex 17.762 24 18.0324
      vertex 17.8373 19 17.876
    endloop
  endfacet
  facet normal -0.900977 0 -0.433867
    outer loop
      vertex 17.762 24 18.0324
      vertex 17.747 19 18.0637
      vertex 17.747 24 18.0637
    endloop
  endfacet
  facet normal -0.222521 0 -0.974928
    outer loop
      vertex 16.055 19 18.4499
      vertex 17.747 24 18.0637
      vertex 17.747 19 18.0637
    endloop
  endfacet
  facet normal -0.222521 0 -0.974928
    outer loop
      vertex 17.747 24 18.0637
      vertex 16.055 19 18.4499
      vertex 16.055 24 18.4499
    endloop
  endfacet
  facet normal -0.900969 0 -0.433884
    outer loop
      vertex 17.8373 19 17.876
      vertex 18.5 24 16.5
      vertex 18.5 19 16.5
    endloop
  endfacet
  facet normal -0.900969 1.35113e-08 -0.433884
    outer loop
      vertex 18.5 24 16.5
      vertex 17.8373 19 17.876
      vertex 17.762 24 18.0324
    endloop
  endfacet
  facet normal 1 -0 0
    outer loop
      vertex 14.6981 19 17.3678
      vertex 14.6981 24 15.6322
      vertex 14.6981 24 17.3678
    endloop
  endfacet
  facet normal 1 0 0
    outer loop
      vertex 14.6981 24 15.6322
      vertex 14.6981 19 17.3678
      vertex 14.6981 19 15.6322
    endloop
  endfacet
  facet normal 0.62349 0 0.781832
    outer loop
      vertex 14.6981 24 15.6322
      vertex 16.055 19 14.5501
      vertex 16.055 24 14.5501
    endloop
  endfacet
  facet normal 0.62349 0 0.781832
    outer loop
      vertex 16.055 19 14.5501
      vertex 14.6981 24 15.6322
      vertex 14.6981 19 15.6322
    endloop
  endfacet
  facet normal -0.222521 0 0.974928
    outer loop
      vertex 16.055 24 14.5501
      vertex 17.747 19 14.9363
      vertex 17.747 24 14.9363
    endloop
  endfacet
  facet normal -0.222521 0 0.974928
    outer loop
      vertex 17.747 19 14.9363
      vertex 16.055 24 14.5501
      vertex 16.055 19 14.5501
    endloop
  endfacet
  facet normal 0.62349 0 -0.781832
    outer loop
      vertex 14.6981 19 17.3678
      vertex 16.055 24 18.4499
      vertex 16.055 19 18.4499
    endloop
  endfacet
  facet normal 0.62349 0 -0.781832
    outer loop
      vertex 16.055 24 18.4499
      vertex 14.6981 19 17.3678
      vertex 14.6981 24 17.3678
    endloop
  endfacet
  facet normal -0.900969 0 0.433884
    outer loop
      vertex 18.4096 19 16.3124
      vertex 17.747 24 14.9363
      vertex 17.747 19 14.9363
    endloop
  endfacet
  facet normal -0.900969 -1.35113e-08 0.433884
    outer loop
      vertex 17.747 24 14.9363
      vertex 18.4096 19 16.3124
      vertex 18.4849 24 16.4687
    endloop
  endfacet
  facet normal -0.90097 1.10342e-07 0.433881
    outer loop
      vertex 18.5 19 16.5
      vertex 18.4849 24 16.4687
      vertex 18.4096 19 16.3124
    endloop
  endfacet
  facet normal -0.900977 0 0.433867
    outer loop
      vertex 18.4849 24 16.4687
      vertex 18.5 19 16.5
      vertex 18.5 24 16.5
    endloop
  endfacet
  facet normal -0.90097 -1.10342e-07 -0.433881
    outer loop
      vertex -15.253 19 18.0637
      vertex -15.238 24 18.0324
      vertex -15.1627 19 17.876
    endloop
  endfacet
  facet normal -0.900977 0 -0.433867
    outer loop
      vertex -15.238 24 18.0324
      vertex -15.253 19 18.0637
      vertex -15.253 24 18.0637
    endloop
  endfacet
  facet normal -0.222521 0 -0.974928
    outer loop
      vertex -16.945 19 18.4499
      vertex -15.253 24 18.0637
      vertex -15.253 19 18.0637
    endloop
  endfacet
  facet normal -0.222521 0 -0.974928
    outer loop
      vertex -15.253 24 18.0637
      vertex -16.945 19 18.4499
      vertex -16.945 24 18.4499
    endloop
  endfacet
  facet normal -0.900969 0 -0.433884
    outer loop
      vertex -15.1627 19 17.876
      vertex -14.5 24 16.5
      vertex -14.5 19 16.5
    endloop
  endfacet
  facet normal -0.900969 -4.02401e-09 -0.433884
    outer loop
      vertex -14.5 24 16.5
      vertex -15.1627 19 17.876
      vertex -15.238 24 18.0324
    endloop
  endfacet
  facet normal 1 -0 0
    outer loop
      vertex -18.3019 19 17.3678
      vertex -18.3019 24 15.6322
      vertex -18.3019 24 17.3678
    endloop
  endfacet
  facet normal 1 0 0
    outer loop
      vertex -18.3019 24 15.6322
      vertex -18.3019 19 17.3678
      vertex -18.3019 19 15.6322
    endloop
  endfacet
  facet normal 0.62349 0 0.781831
    outer loop
      vertex -18.3019 24 15.6322
      vertex -16.945 19 14.5501
      vertex -16.945 24 14.5501
    endloop
  endfacet
  facet normal 0.62349 0 0.781831
    outer loop
      vertex -16.945 19 14.5501
      vertex -18.3019 24 15.6322
      vertex -18.3019 19 15.6322
    endloop
  endfacet
  facet normal -0.222521 0 0.974928
    outer loop
      vertex -16.945 24 14.5501
      vertex -15.253 19 14.9363
      vertex -15.253 24 14.9363
    endloop
  endfacet
  facet normal -0.222521 0 0.974928
    outer loop
      vertex -15.253 19 14.9363
      vertex -16.945 24 14.5501
      vertex -16.945 19 14.5501
    endloop
  endfacet
  facet normal 0.62349 0 -0.781831
    outer loop
      vertex -18.3019 19 17.3678
      vertex -16.945 24 18.4499
      vertex -16.945 19 18.4499
    endloop
  endfacet
  facet normal 0.62349 0 -0.781831
    outer loop
      vertex -16.945 24 18.4499
      vertex -18.3019 19 17.3678
      vertex -18.3019 24 17.3678
    endloop
  endfacet
  facet normal -0.900969 0 0.433884
    outer loop
      vertex -14.5904 19 16.3124
      vertex -15.253 24 14.9363
      vertex -15.253 19 14.9363
    endloop
  endfacet
  facet normal -0.900969 4.02401e-09 0.433884
    outer loop
      vertex -15.253 24 14.9363
      vertex -14.5904 19 16.3124
      vertex -14.5151 24 16.4687
    endloop
  endfacet
  facet normal -0.90097 1.10342e-07 0.433881
    outer loop
      vertex -14.5 19 16.5
      vertex -14.5151 24 16.4687
      vertex -14.5904 19 16.3124
    endloop
  endfacet
  facet normal -0.900977 0 0.433867
    outer loop
      vertex -14.5151 24 16.4687
      vertex -14.5 19 16.5
      vertex -14.5 24 16.5
    endloop
  endfacet
  facet normal -0.900968 2.75856e-08 -0.433885
    outer loop
      vertex -15.253 19 -14.9363
      vertex -15.238 24 -14.9676
      vertex -15.1627 19 -15.124
    endloop
  endfacet
  facet normal -0.900967 0 -0.433888
    outer loop
      vertex -15.238 24 -14.9676
      vertex -15.253 19 -14.9363
      vertex -15.253 24 -14.9363
    endloop
  endfacet
  facet normal -0.222521 0 -0.974928
    outer loop
      vertex -16.945 19 -14.5501
      vertex -15.253 24 -14.9363
      vertex -15.253 19 -14.9363
    endloop
  endfacet
  facet normal -0.222521 0 -0.974928
    outer loop
      vertex -15.253 24 -14.9363
      vertex -16.945 19 -14.5501
      vertex -16.945 24 -14.5501
    endloop
  endfacet
  facet normal -0.900969 0 -0.433883
    outer loop
      vertex -15.1627 19 -15.124
      vertex -14.5 24 -16.5
      vertex -14.5 19 -16.5
    endloop
  endfacet
  facet normal -0.900969 -2.09132e-08 -0.433883
    outer loop
      vertex -14.5 24 -16.5
      vertex -15.1627 19 -15.124
      vertex -15.238 24 -14.9676
    endloop
  endfacet
  facet normal 1 -0 0
    outer loop
      vertex -18.3019 19 -15.6322
      vertex -18.3019 24 -17.3678
      vertex -18.3019 24 -15.6322
    endloop
  endfacet
  facet normal 1 0 0
    outer loop
      vertex -18.3019 24 -17.3678
      vertex -18.3019 19 -15.6322
      vertex -18.3019 19 -17.3678
    endloop
  endfacet
  facet normal 0.62349 0 0.781831
    outer loop
      vertex -18.3019 24 -17.3678
      vertex -16.945 19 -18.4499
      vertex -16.945 24 -18.4499
    endloop
  endfacet
  facet normal 0.62349 0 0.781831
    outer loop
      vertex -16.945 19 -18.4499
      vertex -18.3019 24 -17.3678
      vertex -18.3019 19 -17.3678
    endloop
  endfacet
  facet normal -0.222521 0 0.974928
    outer loop
      vertex -16.945 24 -18.4499
      vertex -15.253 19 -18.0637
      vertex -15.253 24 -18.0637
    endloop
  endfacet
  facet normal -0.222521 0 0.974928
    outer loop
      vertex -15.253 19 -18.0637
      vertex -16.945 24 -18.4499
      vertex -16.945 19 -18.4499
    endloop
  endfacet
  facet normal 0.62349 0 -0.781831
    outer loop
      vertex -18.3019 19 -15.6322
      vertex -16.945 24 -14.5501
      vertex -16.945 19 -14.5501
    endloop
  endfacet
  facet normal 0.62349 0 -0.781831
    outer loop
      vertex -16.945 24 -14.5501
      vertex -18.3019 19 -15.6322
      vertex -18.3019 24 -15.6322
    endloop
  endfacet
  facet normal -0.900969 0 0.433883
    outer loop
      vertex -14.5904 19 -16.6876
      vertex -15.253 24 -18.0637
      vertex -15.253 19 -18.0637
    endloop
  endfacet
  facet normal -0.900969 2.09132e-08 0.433883
    outer loop
      vertex -15.253 24 -18.0637
      vertex -14.5904 19 -16.6876
      vertex -14.5151 24 -16.5313
    endloop
  endfacet
  facet normal -0.900968 -2.75856e-08 0.433885
    outer loop
      vertex -14.5 19 -16.5
      vertex -14.5151 24 -16.5313
      vertex -14.5904 19 -16.6876
    endloop
  endfacet
  facet normal -0.900967 0 0.433888
    outer loop
      vertex -14.5151 24 -16.5313
      vertex -14.5 19 -16.5
      vertex -14.5 24 -16.5
    endloop
  endfacet
  facet normal -0.900968 2.75856e-08 -0.433885
    outer loop
      vertex 17.747 19 -14.9363
      vertex 17.762 24 -14.9676
      vertex 17.8373 19 -15.124
    endloop
  endfacet
  facet normal -0.900967 0 -0.433888
    outer loop
      vertex 17.762 24 -14.9676
      vertex 17.747 19 -14.9363
      vertex 17.747 24 -14.9363
    endloop
  endfacet
  facet normal -0.222521 0 -0.974928
    outer loop
      vertex 16.055 19 -14.5501
      vertex 17.747 24 -14.9363
      vertex 17.747 19 -14.9363
    endloop
  endfacet
  facet normal -0.222521 0 -0.974928
    outer loop
      vertex 17.747 24 -14.9363
      vertex 16.055 19 -14.5501
      vertex 16.055 24 -14.5501
    endloop
  endfacet
  facet normal -0.900969 0 -0.433884
    outer loop
      vertex 17.8373 19 -15.124
      vertex 18.5 24 -16.5
      vertex 18.5 19 -16.5
    endloop
  endfacet
  facet normal -0.900969 -3.37783e-09 -0.433884
    outer loop
      vertex 18.5 24 -16.5
      vertex 17.8373 19 -15.124
      vertex 17.762 24 -14.9676
    endloop
  endfacet
  facet normal 0.62349 0 0.781832
    outer loop
      vertex 14.6981 24 -17.3678
      vertex 16.055 19 -18.4499
      vertex 16.055 24 -18.4499
    endloop
  endfacet
  facet normal 0.62349 0 0.781832
    outer loop
      vertex 16.055 19 -18.4499
      vertex 14.6981 24 -17.3678
      vertex 14.6981 19 -17.3678
    endloop
  endfacet
  facet normal -0.222521 0 0.974928
    outer loop
      vertex 16.055 24 -18.4499
      vertex 17.747 19 -18.0637
      vertex 17.747 24 -18.0637
    endloop
  endfacet
  facet normal -0.222521 0 0.974928
    outer loop
      vertex 17.747 19 -18.0637
      vertex 16.055 24 -18.4499
      vertex 16.055 19 -18.4499
    endloop
  endfacet
  facet normal 0.62349 0 -0.781832
    outer loop
      vertex 14.6981 19 -15.6322
      vertex 16.055 24 -14.5501
      vertex 16.055 19 -14.5501
    endloop
  endfacet
  facet normal 0.62349 0 -0.781832
    outer loop
      vertex 16.055 24 -14.5501
      vertex 14.6981 19 -15.6322
      vertex 14.6981 24 -15.6322
    endloop
  endfacet
  facet normal 1 -0 0
    outer loop
      vertex 14.6981 19 -15.6322
      vertex 14.6981 24 -17.3678
      vertex 14.6981 24 -15.6322
    endloop
  endfacet
  facet normal 1 0 0
    outer loop
      vertex 14.6981 24 -17.3678
      vertex 14.6981 19 -15.6322
      vertex 14.6981 19 -17.3678
    endloop
  endfacet
  facet normal -0.900969 0 0.433884
    outer loop
      vertex 18.4096 19 -16.6876
      vertex 17.747 24 -18.0637
      vertex 17.747 19 -18.0637
    endloop
  endfacet
  facet normal -0.900969 3.37783e-09 0.433884
    outer loop
      vertex 17.747 24 -18.0637
      vertex 18.4096 19 -16.6876
      vertex 18.4849 24 -16.5313
    endloop
  endfacet
  facet normal -0.900968 -2.75856e-08 0.433885
    outer loop
      vertex 18.5 19 -16.5
      vertex 18.4849 24 -16.5313
      vertex 18.4096 19 -16.6876
    endloop
  endfacet
  facet normal -0.900967 0 0.433888
    outer loop
      vertex 18.4849 24 -16.5313
      vertex 18.5 19 -16.5
      vertex 18.5 24 -16.5
    endloop
  endfacet
endsolid OpenSCAD_Model
