solid OpenSCAD_Model
  facet normal 1 -0 0
    outer loop
      vertex 36.5 4.04145 15
      vertex 36.5 24 -15
      vertex 36.5 24 15
    endloop
  endfacet
  facet normal 1 0 0
    outer loop
      vertex 36.5 24 -15
      vertex 36.5 4.04145 15
      vertex 36.5 4.04145 -15
    endloop
  endfacet
  facet normal 1 -0 0
    outer loop
      vertex 36.5 -14 15
      vertex 36.5 -4.04145 -15
      vertex 36.5 -4.04145 15
    endloop
  endfacet
  facet normal 1 0 0
    outer loop
      vertex 36.5 -4.04145 -15
      vertex 36.5 -14 15
      vertex 36.5 -14 -15
    endloop
  endfacet
  facet normal -0 0 1
    outer loop
      vertex -36.5 24 15
      vertex -21.5 19 15
      vertex -21.5 24 15
    endloop
  endfacet
  facet normal 0 0 1
    outer loop
      vertex -21.5 19 15
      vertex -28.5 8.66025 15
      vertex -21.5 -14 15
    endloop
  endfacet
  facet normal 0 0 1
    outer loop
      vertex -21.5 19 15
      vertex -36.5 24 15
      vertex -28.5 8.66025 15
    endloop
  endfacet
  facet normal 0 0 1
    outer loop
      vertex -28.5 8.66025 15
      vertex -36.5 24 15
      vertex -36.5 4.04145 15
    endloop
  endfacet
  facet normal -0 0 1
    outer loop
      vertex -28.5 -8.66025 15
      vertex -21.5 -14 15
      vertex -28.5 8.66025 15
    endloop
  endfacet
  facet normal 0 0 1
    outer loop
      vertex -36.5 -14 15
      vertex -28.5 -8.66025 15
      vertex -36.5 -4.04145 15
    endloop
  endfacet
  facet normal 0 0 1
    outer loop
      vertex -28.5 -8.66025 15
      vertex -36.5 -14 15
      vertex -21.5 -14 15
    endloop
  endfacet
  facet normal 0 0 1
    outer loop
      vertex 36.5 24 15
      vertex 28.5 8.66025 15
      vertex 36.5 4.04145 15
    endloop
  endfacet
  facet normal 0 0 1
    outer loop
      vertex 36.5 24 15
      vertex 21.5 19 15
      vertex 28.5 8.66025 15
    endloop
  endfacet
  facet normal 0 0 1
    outer loop
      vertex 21.5 19 15
      vertex 36.5 24 15
      vertex 21.5 24 15
    endloop
  endfacet
  facet normal -0 0 1
    outer loop
      vertex 28.5 -8.66025 15
      vertex 36.5 -14 15
      vertex 36.5 -4.04145 15
    endloop
  endfacet
  facet normal 0 0 1
    outer loop
      vertex 21.5 -14 15
      vertex 28.5 8.66025 15
      vertex 21.5 19 15
    endloop
  endfacet
  facet normal 0 0 1
    outer loop
      vertex 28.5 -8.66025 15
      vertex 21.5 -14 15
      vertex 36.5 -14 15
    endloop
  endfacet
  facet normal 0 0 1
    outer loop
      vertex 28.5 8.66025 15
      vertex 21.5 -14 15
      vertex 28.5 -8.66025 15
    endloop
  endfacet
  facet normal 0 0 -1
    outer loop
      vertex 36.5 -14 -15
      vertex 28.5 -8.66025 -15
      vertex 36.5 -4.04145 -15
    endloop
  endfacet
  facet normal -0 0 -1
    outer loop
      vertex 28.5 -8.66025 -15
      vertex 21.5 -14 -15
      vertex 28.5 8.66025 -15
    endloop
  endfacet
  facet normal 0 0 -1
    outer loop
      vertex 21.5 -14 -15
      vertex 28.5 -8.66025 -15
      vertex 36.5 -14 -15
    endloop
  endfacet
  facet normal 0 0 -1
    outer loop
      vertex 28.5 8.66025 -15
      vertex 36.5 24 -15
      vertex 36.5 4.04145 -15
    endloop
  endfacet
  facet normal 0 0 -1
    outer loop
      vertex 21.5 19 -15
      vertex 28.5 8.66025 -15
      vertex 21.5 -14 -15
    endloop
  endfacet
  facet normal 0 0 -1
    outer loop
      vertex 21.5 19 -15
      vertex 36.5 24 -15
      vertex 28.5 8.66025 -15
    endloop
  endfacet
  facet normal -0 0 -1
    outer loop
      vertex 36.5 24 -15
      vertex 21.5 19 -15
      vertex 21.5 24 -15
    endloop
  endfacet
  facet normal 0 0 -1
    outer loop
      vertex -28.5 8.66025 -15
      vertex -21.5 19 -15
      vertex -21.5 -14 -15
    endloop
  endfacet
  facet normal 0 0 -1
    outer loop
      vertex -28.5 8.66025 -15
      vertex -21.5 -14 -15
      vertex -28.5 -8.66025 -15
    endloop
  endfacet
  facet normal 0 0 -1
    outer loop
      vertex -36.5 -14 -15
      vertex -28.5 -8.66025 -15
      vertex -21.5 -14 -15
    endloop
  endfacet
  facet normal -0 0 -1
    outer loop
      vertex -28.5 -8.66025 -15
      vertex -36.5 -14 -15
      vertex -36.5 -4.04145 -15
    endloop
  endfacet
  facet normal 0 0 -1
    outer loop
      vertex -36.5 24 -15
      vertex -21.5 19 -15
      vertex -28.5 8.66025 -15
    endloop
  endfacet
  facet normal 0 0 -1
    outer loop
      vertex -36.5 24 -15
      vertex -28.5 8.66025 -15
      vertex -36.5 4.04145 -15
    endloop
  endfacet
  facet normal 0 0 -1
    outer loop
      vertex -21.5 19 -15
      vertex -36.5 24 -15
      vertex -21.5 24 -15
    endloop
  endfacet
  facet normal -1 0 0
    outer loop
      vertex -36.5 4.04145 -15
      vertex -36.5 24 15
      vertex -36.5 24 -15
    endloop
  endfacet
  facet normal -1 -0 0
    outer loop
      vertex -36.5 24 15
      vertex -36.5 4.04145 -15
      vertex -36.5 4.04145 15
    endloop
  endfacet
  facet normal -1 0 0
    outer loop
      vertex -36.5 -14 -15
      vertex -36.5 -4.04145 15
      vertex -36.5 -4.04145 -15
    endloop
  endfacet
  facet normal -1 -0 0
    outer loop
      vertex -36.5 -4.04145 15
      vertex -36.5 -14 -15
      vertex -36.5 -14 15
    endloop
  endfacet
  facet normal 0 1 -0
    outer loop
      vertex -17.3019 24 -16.3678
      vertex -21.5 24 -15
      vertex -17.3019 24 -14.6322
    endloop
  endfacet
  facet normal 0 1 0
    outer loop
      vertex -21.5 24 -21.5
      vertex -17.3019 24 -16.3678
      vertex -15.945 24 -17.4499
    endloop
  endfacet
  facet normal 0 1 0
    outer loop
      vertex -17.3019 24 -16.3678
      vertex -21.5 24 -21.5
      vertex -21.5 24 -15
    endloop
  endfacet
  facet normal 0 1 0
    outer loop
      vertex -14.253 24 -17.0637
      vertex -21.5 24 -21.5
      vertex -15.945 24 -17.4499
    endloop
  endfacet
  facet normal 0 1 0
    outer loop
      vertex -9.30369 24 -6.75953
      vertex -14.253 24 -13.9363
      vertex -15.945 24 -13.5501
    endloop
  endfacet
  facet normal 0 1 0
    outer loop
      vertex 3.55369 24 -10.9371
      vertex 13.6981 24 -16.3678
      vertex 1.20208 24 -11.437
    endloop
  endfacet
  facet normal 0 1 0
    outer loop
      vertex 1.20208 24 -11.437
      vertex -13.5 24 -15.5
      vertex -14.253 24 -13.9363
    endloop
  endfacet
  facet normal 0 1 0
    outer loop
      vertex -14.253 24 -17.0637
      vertex 1.20208 24 -11.437
      vertex 13.6981 24 -16.3678
    endloop
  endfacet
  facet normal 0 1 0
    outer loop
      vertex 1.20208 24 -11.437
      vertex -14.253 24 -17.0637
      vertex -13.5 24 -15.5
    endloop
  endfacet
  facet normal 0 1 0
    outer loop
      vertex 15.055 24 -17.4499
      vertex -14.253 24 -17.0637
      vertex 13.6981 24 -16.3678
    endloop
  endfacet
  facet normal 0 1 0
    outer loop
      vertex 21.5 24 -21.5
      vertex -14.253 24 -17.0637
      vertex 15.055 24 -17.4499
    endloop
  endfacet
  facet normal 0 1 0
    outer loop
      vertex 21.5 24 -15
      vertex 21.5 24 15
      vertex 36.5 24 15
    endloop
  endfacet
  facet normal -0 1 0
    outer loop
      vertex 11.2487 24 2.39098
      vertex 21.5 24 15
      vertex 11.5 24 0
    endloop
  endfacet
  facet normal 0 1 0
    outer loop
      vertex -14.253 24 17.0637
      vertex -3.55369 24 10.9371
      vertex -13.5 24 15.5
    endloop
  endfacet
  facet normal -0 1 0
    outer loop
      vertex 10.5058 24 4.67747
      vertex 16.747 24 13.9363
      vertex 11.2487 24 2.39098
    endloop
  endfacet
  facet normal 0 1 0
    outer loop
      vertex 13.6981 24 14.6322
      vertex 3.55369 24 10.9371
      vertex 1.20208 24 11.437
    endloop
  endfacet
  facet normal 0 1 0
    outer loop
      vertex 13.6981 24 14.6322
      vertex 5.75 24 9.95929
      vertex 3.55369 24 10.9371
    endloop
  endfacet
  facet normal 0 1 0
    outer loop
      vertex 13.6981 24 14.6322
      vertex 7.695 24 8.54617
      vertex 5.75 24 9.95929
    endloop
  endfacet
  facet normal 0 1 0
    outer loop
      vertex 15.055 24 13.5501
      vertex 9.30369 24 6.75953
      vertex 7.695 24 8.54617
    endloop
  endfacet
  facet normal 0 1 0
    outer loop
      vertex 15.055 24 13.5501
      vertex 10.5058 24 4.67747
      vertex 9.30369 24 6.75953
    endloop
  endfacet
  facet normal 0 1 0
    outer loop
      vertex 16.747 24 13.9363
      vertex 10.5058 24 4.67747
      vertex 15.055 24 13.5501
    endloop
  endfacet
  facet normal 0 1 0
    outer loop
      vertex 21.5 24 15
      vertex 11.2487 24 2.39098
      vertex 16.747 24 13.9363
    endloop
  endfacet
  facet normal 0 1 0
    outer loop
      vertex 21.5 24 15
      vertex 21.5 24 -15
      vertex 11.5 24 0
    endloop
  endfacet
  facet normal 0 1 0
    outer loop
      vertex 11.5 24 0
      vertex 21.5 24 -15
      vertex 11.2487 24 -2.39098
    endloop
  endfacet
  facet normal -0 1 -0
    outer loop
      vertex 16.747 24 -13.9363
      vertex 11.2487 24 -2.39098
      vertex 21.5 24 -15
    endloop
  endfacet
  facet normal 0 1 0
    outer loop
      vertex 11.2487 24 -2.39098
      vertex 16.747 24 -13.9363
      vertex 10.5058 24 -4.67747
    endloop
  endfacet
  facet normal 0 1 0
    outer loop
      vertex 5.75 24 -9.95929
      vertex 13.6981 24 -16.3678
      vertex 3.55369 24 -10.9371
    endloop
  endfacet
  facet normal 0 1 -0
    outer loop
      vertex 13.6981 24 -16.3678
      vertex 5.75 24 -9.95929
      vertex 13.6981 24 -14.6322
    endloop
  endfacet
  facet normal 0 1 0
    outer loop
      vertex 7.695 24 -8.54617
      vertex 13.6981 24 -14.6322
      vertex 5.75 24 -9.95929
    endloop
  endfacet
  facet normal 0 1 -0
    outer loop
      vertex 13.6981 24 -14.6322
      vertex 7.695 24 -8.54617
      vertex 15.055 24 -13.5501
    endloop
  endfacet
  facet normal 0 1 0
    outer loop
      vertex 10.5058 24 -4.67747
      vertex 15.055 24 -13.5501
      vertex 9.30369 24 -6.75953
    endloop
  endfacet
  facet normal 0 1 0
    outer loop
      vertex 9.30369 24 -6.75953
      vertex 15.055 24 -13.5501
      vertex 7.695 24 -8.54617
    endloop
  endfacet
  facet normal 0 1 0
    outer loop
      vertex 21.5 24 -15
      vertex 36.5 24 15
      vertex 36.5 24 -15
    endloop
  endfacet
  facet normal -0 1 -0
    outer loop
      vertex 15.055 24 -13.5501
      vertex 10.5058 24 -4.67747
      vertex 16.747 24 -13.9363
    endloop
  endfacet
  facet normal 0 1 0
    outer loop
      vertex 21.5 24 -15
      vertex 17.5 24 -15.5
      vertex 16.747 24 -13.9363
    endloop
  endfacet
  facet normal 0 1 0
    outer loop
      vertex 21.5 24 -15
      vertex 16.747 24 -17.0637
      vertex 17.5 24 -15.5
    endloop
  endfacet
  facet normal 0 1 0
    outer loop
      vertex -21.5 24 -21.5
      vertex -14.253 24 -17.0637
      vertex 21.5 24 -21.5
    endloop
  endfacet
  facet normal 0 1 0
    outer loop
      vertex 16.747 24 -17.0637
      vertex 21.5 24 -21.5
      vertex 15.055 24 -17.4499
    endloop
  endfacet
  facet normal 0 1 -0
    outer loop
      vertex 21.5 24 -21.5
      vertex 16.747 24 -17.0637
      vertex 21.5 24 -15
    endloop
  endfacet
  facet normal 0 1 0
    outer loop
      vertex -21.5 24 21.5
      vertex -14.253 24 17.0637
      vertex -15.945 24 17.4499
    endloop
  endfacet
  facet normal 0 1 -0
    outer loop
      vertex 13.6981 24 16.3678
      vertex -14.253 24 17.0637
      vertex 15.055 24 17.4499
    endloop
  endfacet
  facet normal 0 1 -0
    outer loop
      vertex 1.20208 24 11.437
      vertex -14.253 24 17.0637
      vertex 13.6981 24 16.3678
    endloop
  endfacet
  facet normal 0 1 0
    outer loop
      vertex 1.20208 24 11.437
      vertex 13.6981 24 16.3678
      vertex 13.6981 24 14.6322
    endloop
  endfacet
  facet normal 0 1 -0
    outer loop
      vertex -1.20208 24 11.437
      vertex -14.253 24 17.0637
      vertex 1.20208 24 11.437
    endloop
  endfacet
  facet normal 0 1 0
    outer loop
      vertex 7.695 24 8.54617
      vertex 13.6981 24 14.6322
      vertex 15.055 24 13.5501
    endloop
  endfacet
  facet normal 0 1 -0
    outer loop
      vertex -3.55369 24 10.9371
      vertex -14.253 24 17.0637
      vertex -1.20208 24 11.437
    endloop
  endfacet
  facet normal 0 1 0
    outer loop
      vertex 21.5 24 21.5
      vertex 15.055 24 17.4499
      vertex -21.5 24 21.5
    endloop
  endfacet
  facet normal 0 1 0
    outer loop
      vertex 21.5 24 21.5
      vertex 16.747 24 17.0637
      vertex 15.055 24 17.4499
    endloop
  endfacet
  facet normal 0 1 -0
    outer loop
      vertex 21.5 24 15
      vertex 16.747 24 17.0637
      vertex 21.5 24 21.5
    endloop
  endfacet
  facet normal 0 1 0
    outer loop
      vertex 16.747 24 17.0637
      vertex 21.5 24 15
      vertex 17.5 24 15.5
    endloop
  endfacet
  facet normal 0 1 0
    outer loop
      vertex 17.5 24 15.5
      vertex 21.5 24 15
      vertex 16.747 24 13.9363
    endloop
  endfacet
  facet normal 0 1 -0
    outer loop
      vertex -14.253 24 17.0637
      vertex -21.5 24 21.5
      vertex 15.055 24 17.4499
    endloop
  endfacet
  facet normal 0 1 -0
    outer loop
      vertex -17.3019 24 16.3678
      vertex -21.5 24 21.5
      vertex -15.945 24 17.4499
    endloop
  endfacet
  facet normal 0 1 0
    outer loop
      vertex -17.3019 24 16.3678
      vertex -21.5 24 15
      vertex -21.5 24 21.5
    endloop
  endfacet
  facet normal 0 1 -0
    outer loop
      vertex -17.3019 24 14.6322
      vertex -21.5 24 15
      vertex -17.3019 24 16.3678
    endloop
  endfacet
  facet normal 0 1 0
    outer loop
      vertex -15.945 24 13.5501
      vertex -21.5 24 15
      vertex -17.3019 24 14.6322
    endloop
  endfacet
  facet normal 0 1 0
    outer loop
      vertex -21.5 24 15
      vertex -15.945 24 13.5501
      vertex -11.2487 24 2.39098
    endloop
  endfacet
  facet normal 0 1 -0
    outer loop
      vertex -5.75 24 9.95929
      vertex -13.5 24 15.5
      vertex -3.55369 24 10.9371
    endloop
  endfacet
  facet normal 0 1 -0
    outer loop
      vertex -7.695 24 8.54617
      vertex -13.5 24 15.5
      vertex -5.75 24 9.95929
    endloop
  endfacet
  facet normal 0 1 0
    outer loop
      vertex -13.5 24 15.5
      vertex -7.695 24 8.54617
      vertex -14.253 24 13.9363
    endloop
  endfacet
  facet normal 0 1 -0
    outer loop
      vertex -9.30369 24 6.75953
      vertex -14.253 24 13.9363
      vertex -7.695 24 8.54617
    endloop
  endfacet
  facet normal 0 1 0
    outer loop
      vertex -14.253 24 13.9363
      vertex -9.30369 24 6.75953
      vertex -15.945 24 13.5501
    endloop
  endfacet
  facet normal 0 1 -0
    outer loop
      vertex -10.5058 24 4.67747
      vertex -15.945 24 13.5501
      vertex -9.30369 24 6.75953
    endloop
  endfacet
  facet normal 0 1 -0
    outer loop
      vertex -11.2487 24 2.39098
      vertex -15.945 24 13.5501
      vertex -10.5058 24 4.67747
    endloop
  endfacet
  facet normal 0 1 0
    outer loop
      vertex -21.5 24 15
      vertex -11.2487 24 2.39098
      vertex -11.5 24 0
    endloop
  endfacet
  facet normal 0 1 0
    outer loop
      vertex -21.5 24 -15
      vertex -21.5 24 15
      vertex -11.5 24 0
    endloop
  endfacet
  facet normal 0 1 0
    outer loop
      vertex -21.5 24 -15
      vertex -11.5 24 0
      vertex -11.2487 24 -2.39098
    endloop
  endfacet
  facet normal 0 1 0
    outer loop
      vertex -15.945 24 -13.5501
      vertex -11.2487 24 -2.39098
      vertex -10.5058 24 -4.67747
    endloop
  endfacet
  facet normal 0 1 0
    outer loop
      vertex -15.945 24 -13.5501
      vertex -10.5058 24 -4.67747
      vertex -9.30369 24 -6.75953
    endloop
  endfacet
  facet normal 0 1 0
    outer loop
      vertex -14.253 24 -13.9363
      vertex -9.30369 24 -6.75953
      vertex -7.695 24 -8.54617
    endloop
  endfacet
  facet normal 0 1 0
    outer loop
      vertex 1.20208 24 -11.437
      vertex -14.253 24 -13.9363
      vertex -1.20208 24 -11.437
    endloop
  endfacet
  facet normal 0 1 0
    outer loop
      vertex -14.253 24 -13.9363
      vertex -3.55369 24 -10.9371
      vertex -1.20208 24 -11.437
    endloop
  endfacet
  facet normal 0 1 0
    outer loop
      vertex -14.253 24 -13.9363
      vertex -5.75 24 -9.95929
      vertex -3.55369 24 -10.9371
    endloop
  endfacet
  facet normal 0 1 0
    outer loop
      vertex -14.253 24 -13.9363
      vertex -7.695 24 -8.54617
      vertex -5.75 24 -9.95929
    endloop
  endfacet
  facet normal 0 1 0
    outer loop
      vertex -11.2487 24 -2.39098
      vertex -15.945 24 -13.5501
      vertex -21.5 24 -15
    endloop
  endfacet
  facet normal 0 1 0
    outer loop
      vertex -21.5 24 -15
      vertex -15.945 24 -13.5501
      vertex -17.3019 24 -14.6322
    endloop
  endfacet
  facet normal 0 1 0
    outer loop
      vertex -21.5 24 15
      vertex -21.5 24 -15
      vertex -36.5 24 15
    endloop
  endfacet
  facet normal 0 1 0
    outer loop
      vertex -36.5 24 15
      vertex -21.5 24 -15
      vertex -36.5 24 -15
    endloop
  endfacet
  facet normal 0 -1 0
    outer loop
      vertex -36.5 -14 -15
      vertex -21.5 -14 15
      vertex -36.5 -14 15
    endloop
  endfacet
  facet normal 0 -1 -0
    outer loop
      vertex -21.5 -14 15
      vertex -36.5 -14 -15
      vertex -21.5 -14 -15
    endloop
  endfacet
  facet normal 0 -1 0
    outer loop
      vertex 21.5 -14 -15
      vertex 36.5 -14 15
      vertex 21.5 -14 15
    endloop
  endfacet
  facet normal 0 -1 -0
    outer loop
      vertex 36.5 -14 15
      vertex 21.5 -14 -15
      vertex 36.5 -14 -15
    endloop
  endfacet
  facet normal 1 -0 0
    outer loop
      vertex 28.5 -8.66025 15
      vertex 28.5 8.66025 -15
      vertex 28.5 8.66025 15
    endloop
  endfacet
  facet normal 1 0 0
    outer loop
      vertex 28.5 8.66025 -15
      vertex 28.5 -8.66025 15
      vertex 28.5 -8.66025 -15
    endloop
  endfacet
  facet normal -0.5 -0.866026 0
    outer loop
      vertex 28.5 8.66025 -15
      vertex 36.5 4.04145 15
      vertex 28.5 8.66025 15
    endloop
  endfacet
  facet normal -0.5 -0.866026 -0
    outer loop
      vertex 36.5 4.04145 15
      vertex 28.5 8.66025 -15
      vertex 36.5 4.04145 -15
    endloop
  endfacet
  facet normal -0.5 0.866026 0
    outer loop
      vertex 36.5 -4.04145 -15
      vertex 28.5 -8.66025 15
      vertex 36.5 -4.04145 15
    endloop
  endfacet
  facet normal -0.5 0.866026 0
    outer loop
      vertex 28.5 -8.66025 15
      vertex 36.5 -4.04145 -15
      vertex 28.5 -8.66025 -15
    endloop
  endfacet
  facet normal 0.5 -0.866026 0
    outer loop
      vertex -36.5 4.04145 -15
      vertex -28.5 8.66025 15
      vertex -36.5 4.04145 15
    endloop
  endfacet
  facet normal 0.5 -0.866026 0
    outer loop
      vertex -28.5 8.66025 15
      vertex -36.5 4.04145 -15
      vertex -28.5 8.66025 -15
    endloop
  endfacet
  facet normal 0.5 0.866026 -0
    outer loop
      vertex -28.5 -8.66025 -15
      vertex -36.5 -4.04145 15
      vertex -28.5 -8.66025 15
    endloop
  endfacet
  facet normal 0.5 0.866026 0
    outer loop
      vertex -36.5 -4.04145 15
      vertex -28.5 -8.66025 -15
      vertex -36.5 -4.04145 -15
    endloop
  endfacet
  facet normal -1 0 0
    outer loop
      vertex -28.5 -8.66025 -15
      vertex -28.5 8.66025 15
      vertex -28.5 8.66025 -15
    endloop
  endfacet
  facet normal -1 -0 0
    outer loop
      vertex -28.5 8.66025 15
      vertex -28.5 -8.66025 -15
      vertex -28.5 -8.66025 15
    endloop
  endfacet
  facet normal -1 0 0
    outer loop
      vertex 21.5 -14 -15
      vertex 21.5 19 15
      vertex 21.5 19 -15
    endloop
  endfacet
  facet normal -1 -0 0
    outer loop
      vertex 21.5 19 15
      vertex 21.5 -14 -15
      vertex 21.5 -14 15
    endloop
  endfacet
  facet normal 1 -0 0
    outer loop
      vertex -21.5 -14 15
      vertex -21.5 19 -15
      vertex -21.5 19 15
    endloop
  endfacet
  facet normal 1 0 0
    outer loop
      vertex -21.5 19 -15
      vertex -21.5 -14 15
      vertex -21.5 -14 -15
    endloop
  endfacet
  facet normal 0 -1 -0
    outer loop
      vertex -3.55369 19 -10.9371
      vertex -14.253 19 -17.0637
      vertex -1.20208 19 -11.437
    endloop
  endfacet
  facet normal 0 -1 0
    outer loop
      vertex 1.20208 19 -11.437
      vertex 13.6981 19 -14.6322
      vertex 15.055 19 -13.5501
    endloop
  endfacet
  facet normal 0 -1 -0
    outer loop
      vertex -1.20208 19 -11.437
      vertex -14.253 19 -17.0637
      vertex 1.20208 19 -11.437
    endloop
  endfacet
  facet normal 0 -1 0
    outer loop
      vertex 1.20208 19 -11.437
      vertex 13.6981 19 -16.3678
      vertex 13.6981 19 -14.6322
    endloop
  endfacet
  facet normal 0 -1 -0
    outer loop
      vertex 1.20208 19 -11.437
      vertex -14.253 19 -17.0637
      vertex 13.6981 19 -16.3678
    endloop
  endfacet
  facet normal 0 -1 0
    outer loop
      vertex -21.5 19 -21.5
      vertex -14.253 19 -17.0637
      vertex -15.945 19 -17.4499
    endloop
  endfacet
  facet normal 0 -1 0
    outer loop
      vertex -14.253 19 -17.0637
      vertex 15.055 19 -17.4499
      vertex 13.6981 19 -16.3678
    endloop
  endfacet
  facet normal 0 -1 0
    outer loop
      vertex -21.5 19 21.5
      vertex -14.253 19 17.0637
      vertex 15.055 19 17.4499
    endloop
  endfacet
  facet normal 0 -1 0
    outer loop
      vertex -14.253 19 17.0637
      vertex 13.6981 19 16.3678
      vertex 15.055 19 17.4499
    endloop
  endfacet
  facet normal 0 -1 0
    outer loop
      vertex -3.55369 19 10.9371
      vertex -14.253 19 17.0637
      vertex -13.5 19 15.5
    endloop
  endfacet
  facet normal 0 -1 0
    outer loop
      vertex -14.253 19 17.0637
      vertex -1.20208 19 11.437
      vertex 13.6981 19 16.3678
    endloop
  endfacet
  facet normal 0 -1 0
    outer loop
      vertex -7.695 19 8.54617
      vertex -13.5 19 15.5
      vertex -14.253 19 13.9363
    endloop
  endfacet
  facet normal 0 -1 0
    outer loop
      vertex -9.30369 19 6.75953
      vertex -14.253 19 13.9363
      vertex -15.945 19 13.5501
    endloop
  endfacet
  facet normal 0 -1 0
    outer loop
      vertex 13.6981 19 16.3678
      vertex -1.20208 19 11.437
      vertex 1.20208 19 11.437
    endloop
  endfacet
  facet normal 0 -1 0
    outer loop
      vertex -14.253 19 17.0637
      vertex -21.5 19 21.5
      vertex -15.945 19 17.4499
    endloop
  endfacet
  facet normal 0 -1 0
    outer loop
      vertex -21.5 19 21.5
      vertex -17.3019 19 16.3678
      vertex -15.945 19 17.4499
    endloop
  endfacet
  facet normal 0 -1 0
    outer loop
      vertex -21.5 19 15
      vertex -17.3019 19 16.3678
      vertex -21.5 19 21.5
    endloop
  endfacet
  facet normal 0 -1 0
    outer loop
      vertex -21.5 19 15
      vertex -17.3019 19 14.6322
      vertex -17.3019 19 16.3678
    endloop
  endfacet
  facet normal 0 -1 0
    outer loop
      vertex -21.5 19 15
      vertex -15.945 19 13.5501
      vertex -17.3019 19 14.6322
    endloop
  endfacet
  facet normal 0 -1 0
    outer loop
      vertex 3.55369 19 10.9371
      vertex 13.6981 19 16.3678
      vertex 1.20208 19 11.437
    endloop
  endfacet
  facet normal 0 -1 0
    outer loop
      vertex -14.253 19 17.0637
      vertex -3.55369 19 10.9371
      vertex -1.20208 19 11.437
    endloop
  endfacet
  facet normal 0 -1 0
    outer loop
      vertex -13.5 19 15.5
      vertex -5.75 19 9.95929
      vertex -3.55369 19 10.9371
    endloop
  endfacet
  facet normal 0 -1 0
    outer loop
      vertex -11.2487 19 2.39098
      vertex -15.945 19 13.5501
      vertex -21.5 19 15
    endloop
  endfacet
  facet normal 0 -1 0
    outer loop
      vertex -13.5 19 15.5
      vertex -7.695 19 8.54617
      vertex -5.75 19 9.95929
    endloop
  endfacet
  facet normal 0 -1 0
    outer loop
      vertex -14.253 19 13.9363
      vertex -9.30369 19 6.75953
      vertex -7.695 19 8.54617
    endloop
  endfacet
  facet normal 0 -1 0
    outer loop
      vertex -15.945 19 13.5501
      vertex -10.5058 19 4.67747
      vertex -9.30369 19 6.75953
    endloop
  endfacet
  facet normal 0 -1 0
    outer loop
      vertex -15.945 19 13.5501
      vertex -11.2487 19 2.39098
      vertex -10.5058 19 4.67747
    endloop
  endfacet
  facet normal 0 -1 0
    outer loop
      vertex -21.5 19 15
      vertex -11.5 19 0
      vertex -11.2487 19 2.39098
    endloop
  endfacet
  facet normal 0 -1 0
    outer loop
      vertex -21.5 19 -15
      vertex -11.5 19 0
      vertex -21.5 19 15
    endloop
  endfacet
  facet normal 0 -1 -0
    outer loop
      vertex -11.5 19 0
      vertex -21.5 19 -15
      vertex -11.2487 19 -2.39098
    endloop
  endfacet
  facet normal 0 -1 -0
    outer loop
      vertex -5.75 19 -9.95929
      vertex -13.5 19 -15.5
      vertex -3.55369 19 -10.9371
    endloop
  endfacet
  facet normal 0 -1 -0
    outer loop
      vertex -7.695 19 -8.54617
      vertex -13.5 19 -15.5
      vertex -5.75 19 -9.95929
    endloop
  endfacet
  facet normal 0 -1 0
    outer loop
      vertex -13.5 19 -15.5
      vertex -7.695 19 -8.54617
      vertex -14.253 19 -13.9363
    endloop
  endfacet
  facet normal 0 -1 -0
    outer loop
      vertex -9.30369 19 -6.75953
      vertex -14.253 19 -13.9363
      vertex -7.695 19 -8.54617
    endloop
  endfacet
  facet normal 0 -1 0
    outer loop
      vertex -14.253 19 -13.9363
      vertex -9.30369 19 -6.75953
      vertex -15.945 19 -13.5501
    endloop
  endfacet
  facet normal 0 -1 -0
    outer loop
      vertex -10.5058 19 -4.67747
      vertex -15.945 19 -13.5501
      vertex -9.30369 19 -6.75953
    endloop
  endfacet
  facet normal -0 -1 0
    outer loop
      vertex -15.945 19 -13.5501
      vertex -11.2487 19 -2.39098
      vertex -21.5 19 -15
    endloop
  endfacet
  facet normal 0 -1 -0
    outer loop
      vertex -11.2487 19 -2.39098
      vertex -15.945 19 -13.5501
      vertex -10.5058 19 -4.67747
    endloop
  endfacet
  facet normal 0 -1 0
    outer loop
      vertex -15.945 19 -13.5501
      vertex -21.5 19 -15
      vertex -17.3019 19 -14.6322
    endloop
  endfacet
  facet normal 0 -1 0
    outer loop
      vertex -21.5 19 -15
      vertex -17.3019 19 -16.3678
      vertex -17.3019 19 -14.6322
    endloop
  endfacet
  facet normal 0 -1 0
    outer loop
      vertex -21.5 19 -21.5
      vertex -17.3019 19 -16.3678
      vertex -21.5 19 -15
    endloop
  endfacet
  facet normal 0 -1 -0
    outer loop
      vertex -14.253 19 -17.0637
      vertex -21.5 19 -21.5
      vertex 15.055 19 -17.4499
    endloop
  endfacet
  facet normal 0 -1 -0
    outer loop
      vertex -17.3019 19 -16.3678
      vertex -21.5 19 -21.5
      vertex -15.945 19 -17.4499
    endloop
  endfacet
  facet normal 0 -1 0
    outer loop
      vertex -21.5 19 21.5
      vertex 15.055 19 17.4499
      vertex 21.5 19 21.5
    endloop
  endfacet
  facet normal 0 -1 0
    outer loop
      vertex 16.747 19 17.0637
      vertex 21.5 19 21.5
      vertex 15.055 19 17.4499
    endloop
  endfacet
  facet normal 0 -1 0
    outer loop
      vertex 21.5 19 15
      vertex 16.747 19 17.0637
      vertex 17.5 19 15.5
    endloop
  endfacet
  facet normal 0 -1 0
    outer loop
      vertex 16.747 19 17.0637
      vertex 21.5 19 15
      vertex 21.5 19 21.5
    endloop
  endfacet
  facet normal 0 -1 0
    outer loop
      vertex 16.747 19 13.9363
      vertex 21.5 19 15
      vertex 17.5 19 15.5
    endloop
  endfacet
  facet normal 0 -1 0
    outer loop
      vertex 10.5058 19 4.67747
      vertex 16.747 19 13.9363
      vertex 15.055 19 13.5501
    endloop
  endfacet
  facet normal 0 -1 0
    outer loop
      vertex 5.75 19 9.95929
      vertex 13.6981 19 16.3678
      vertex 3.55369 19 10.9371
    endloop
  endfacet
  facet normal 0 -1 -0
    outer loop
      vertex 13.6981 19 16.3678
      vertex 5.75 19 9.95929
      vertex 13.6981 19 14.6322
    endloop
  endfacet
  facet normal 0 -1 0
    outer loop
      vertex 7.695 19 8.54617
      vertex 13.6981 19 14.6322
      vertex 5.75 19 9.95929
    endloop
  endfacet
  facet normal 0 -1 -0
    outer loop
      vertex 13.6981 19 14.6322
      vertex 7.695 19 8.54617
      vertex 15.055 19 13.5501
    endloop
  endfacet
  facet normal 0 -1 0
    outer loop
      vertex 9.30369 19 6.75953
      vertex 15.055 19 13.5501
      vertex 7.695 19 8.54617
    endloop
  endfacet
  facet normal 0 -1 0
    outer loop
      vertex 10.5058 19 4.67747
      vertex 15.055 19 13.5501
      vertex 9.30369 19 6.75953
    endloop
  endfacet
  facet normal 0 -1 0
    outer loop
      vertex 16.747 19 13.9363
      vertex 10.5058 19 4.67747
      vertex 11.2487 19 2.39098
    endloop
  endfacet
  facet normal 0 -1 -0
    outer loop
      vertex 16.747 19 13.9363
      vertex 11.2487 19 2.39098
      vertex 21.5 19 15
    endloop
  endfacet
  facet normal 0 -1 0
    outer loop
      vertex 11.5 19 0
      vertex 21.5 19 15
      vertex 11.2487 19 2.39098
    endloop
  endfacet
  facet normal 0 -1 0
    outer loop
      vertex 21.5 19 -15
      vertex 11.5 19 0
      vertex 11.2487 19 -2.39098
    endloop
  endfacet
  facet normal 0 -1 0
    outer loop
      vertex 16.747 19 -13.9363
      vertex 11.2487 19 -2.39098
      vertex 10.5058 19 -4.67747
    endloop
  endfacet
  facet normal 0 -1 0
    outer loop
      vertex -14.253 19 -17.0637
      vertex -3.55369 19 -10.9371
      vertex -13.5 19 -15.5
    endloop
  endfacet
  facet normal 0 -1 0
    outer loop
      vertex 15.055 19 -13.5501
      vertex 3.55369 19 -10.9371
      vertex 1.20208 19 -11.437
    endloop
  endfacet
  facet normal 0 -1 0
    outer loop
      vertex 15.055 19 -13.5501
      vertex 5.75 19 -9.95929
      vertex 3.55369 19 -10.9371
    endloop
  endfacet
  facet normal 0 -1 0
    outer loop
      vertex 15.055 19 -13.5501
      vertex 7.695 19 -8.54617
      vertex 5.75 19 -9.95929
    endloop
  endfacet
  facet normal 0 -1 0
    outer loop
      vertex 15.055 19 -13.5501
      vertex 9.30369 19 -6.75953
      vertex 7.695 19 -8.54617
    endloop
  endfacet
  facet normal 0 -1 0
    outer loop
      vertex 15.055 19 -13.5501
      vertex 10.5058 19 -4.67747
      vertex 9.30369 19 -6.75953
    endloop
  endfacet
  facet normal 0 -1 0
    outer loop
      vertex 16.747 19 -13.9363
      vertex 10.5058 19 -4.67747
      vertex 15.055 19 -13.5501
    endloop
  endfacet
  facet normal 0 -1 0
    outer loop
      vertex 11.2487 19 -2.39098
      vertex 16.747 19 -13.9363
      vertex 21.5 19 -15
    endloop
  endfacet
  facet normal 0 -1 0
    outer loop
      vertex 11.5 19 0
      vertex 21.5 19 -15
      vertex 21.5 19 15
    endloop
  endfacet
  facet normal 0 -1 0
    outer loop
      vertex 17.5 19 -15.5
      vertex 21.5 19 -15
      vertex 16.747 19 -13.9363
    endloop
  endfacet
  facet normal 0 -1 0
    outer loop
      vertex 16.747 19 -17.0637
      vertex 21.5 19 -15
      vertex 17.5 19 -15.5
    endloop
  endfacet
  facet normal 0 -1 0
    outer loop
      vertex 16.747 19 -17.0637
      vertex 21.5 19 -21.5
      vertex 21.5 19 -15
    endloop
  endfacet
  facet normal 0 -1 0
    outer loop
      vertex 15.055 19 -17.4499
      vertex 21.5 19 -21.5
      vertex 16.747 19 -17.0637
    endloop
  endfacet
  facet normal 0 -1 0
    outer loop
      vertex 21.5 19 -21.5
      vertex 15.055 19 -17.4499
      vertex -21.5 19 -21.5
    endloop
  endfacet
  facet normal 1 -0 0
    outer loop
      vertex 21.5 19 21.5
      vertex 21.5 24 15
      vertex 21.5 24 21.5
    endloop
  endfacet
  facet normal 1 0 0
    outer loop
      vertex 21.5 24 15
      vertex 21.5 19 21.5
      vertex 21.5 19 15
    endloop
  endfacet
  facet normal 1 -0 0
    outer loop
      vertex 21.5 19 -15
      vertex 21.5 24 -21.5
      vertex 21.5 24 -15
    endloop
  endfacet
  facet normal 1 0 0
    outer loop
      vertex 21.5 24 -21.5
      vertex 21.5 19 -15
      vertex 21.5 19 -21.5
    endloop
  endfacet
  facet normal -0 0 1
    outer loop
      vertex -21.5 24 21.5
      vertex 21.5 19 21.5
      vertex 21.5 24 21.5
    endloop
  endfacet
  facet normal 0 0 1
    outer loop
      vertex 21.5 19 21.5
      vertex -21.5 24 21.5
      vertex -21.5 19 21.5
    endloop
  endfacet
  facet normal 0 0 -1
    outer loop
      vertex -21.5 19 -21.5
      vertex 21.5 24 -21.5
      vertex 21.5 19 -21.5
    endloop
  endfacet
  facet normal -0 0 -1
    outer loop
      vertex 21.5 24 -21.5
      vertex -21.5 19 -21.5
      vertex -21.5 24 -21.5
    endloop
  endfacet
  facet normal -1 0 0
    outer loop
      vertex -21.5 19 15
      vertex -21.5 24 21.5
      vertex -21.5 24 15
    endloop
  endfacet
  facet normal -1 -0 0
    outer loop
      vertex -21.5 24 21.5
      vertex -21.5 19 15
      vertex -21.5 19 21.5
    endloop
  endfacet
  facet normal -1 0 0
    outer loop
      vertex -21.5 19 -21.5
      vertex -21.5 24 -15
      vertex -21.5 24 -21.5
    endloop
  endfacet
  facet normal -1 -0 0
    outer loop
      vertex -21.5 24 -15
      vertex -21.5 19 -21.5
      vertex -21.5 19 -15
    endloop
  endfacet
  facet normal -0.95106 0 -0.309007
    outer loop
      vertex 11.2487 19 2.39098
      vertex 10.5058 24 4.67747
      vertex 11.2487 24 2.39098
    endloop
  endfacet
  facet normal -0.95106 -0 -0.309007
    outer loop
      vertex 10.5058 24 4.67747
      vertex 11.2487 19 2.39098
      vertex 10.5058 19 4.67747
    endloop
  endfacet
  facet normal -0.994522 0 -0.104528
    outer loop
      vertex 11.5 19 0
      vertex 11.2487 24 2.39098
      vertex 11.5 24 0
    endloop
  endfacet
  facet normal -0.994522 -0 -0.104528
    outer loop
      vertex 11.2487 24 2.39098
      vertex 11.5 19 0
      vertex 11.2487 19 2.39098
    endloop
  endfacet
  facet normal -0.95106 0 0.309007
    outer loop
      vertex 10.5058 19 -4.67747
      vertex 11.2487 24 -2.39098
      vertex 10.5058 24 -4.67747
    endloop
  endfacet
  facet normal -0.95106 0 0.309007
    outer loop
      vertex 11.2487 24 -2.39098
      vertex 10.5058 19 -4.67747
      vertex 11.2487 19 -2.39098
    endloop
  endfacet
  facet normal -0.587784 0 -0.809018
    outer loop
      vertex 5.75 19 9.95929
      vertex 7.695 24 8.54617
      vertex 7.695 19 8.54617
    endloop
  endfacet
  facet normal -0.587784 0 -0.809018
    outer loop
      vertex 7.695 24 8.54617
      vertex 5.75 19 9.95929
      vertex 5.75 24 9.95929
    endloop
  endfacet
  facet normal 0.743146 0 -0.669129
    outer loop
      vertex -7.695 19 8.54617
      vertex -9.30369 24 6.75953
      vertex -7.695 24 8.54617
    endloop
  endfacet
  facet normal 0.743146 0 -0.669129
    outer loop
      vertex -9.30369 24 6.75953
      vertex -7.695 19 8.54617
      vertex -9.30369 19 6.75953
    endloop
  endfacet
  facet normal 0.587784 0 -0.809018
    outer loop
      vertex -7.695 19 8.54617
      vertex -5.75 24 9.95929
      vertex -5.75 19 9.95929
    endloop
  endfacet
  facet normal 0.587784 0 -0.809018
    outer loop
      vertex -5.75 24 9.95929
      vertex -7.695 19 8.54617
      vertex -7.695 24 8.54617
    endloop
  endfacet
  facet normal 0.406719 0 -0.913553
    outer loop
      vertex -5.75 19 9.95929
      vertex -3.55369 24 10.9371
      vertex -3.55369 19 10.9371
    endloop
  endfacet
  facet normal 0.406719 0 -0.913553
    outer loop
      vertex -3.55369 24 10.9371
      vertex -5.75 19 9.95929
      vertex -5.75 24 9.95929
    endloop
  endfacet
  facet normal -0.743146 0 0.669129
    outer loop
      vertex 7.695 19 -8.54617
      vertex 9.30369 24 -6.75953
      vertex 7.695 24 -8.54617
    endloop
  endfacet
  facet normal -0.743146 0 0.669129
    outer loop
      vertex 9.30369 24 -6.75953
      vertex 7.695 19 -8.54617
      vertex 9.30369 19 -6.75953
    endloop
  endfacet
  facet normal -0.207932 0 -0.978143
    outer loop
      vertex 1.20208 19 11.437
      vertex 3.55369 24 10.9371
      vertex 3.55369 19 10.9371
    endloop
  endfacet
  facet normal -0.207932 0 -0.978143
    outer loop
      vertex 3.55369 24 10.9371
      vertex 1.20208 19 11.437
      vertex 1.20208 24 11.437
    endloop
  endfacet
  facet normal -0.406719 0 0.913553
    outer loop
      vertex 3.55369 24 -10.9371
      vertex 5.75 19 -9.95929
      vertex 5.75 24 -9.95929
    endloop
  endfacet
  facet normal -0.406719 0 0.913553
    outer loop
      vertex 5.75 19 -9.95929
      vertex 3.55369 24 -10.9371
      vertex 3.55369 19 -10.9371
    endloop
  endfacet
  facet normal -0.587784 0 0.809018
    outer loop
      vertex 5.75 24 -9.95929
      vertex 7.695 19 -8.54617
      vertex 7.695 24 -8.54617
    endloop
  endfacet
  facet normal -0.587784 0 0.809018
    outer loop
      vertex 7.695 19 -8.54617
      vertex 5.75 24 -9.95929
      vertex 5.75 19 -9.95929
    endloop
  endfacet
  facet normal 0.994522 0 -0.104528
    outer loop
      vertex -11.2487 19 2.39098
      vertex -11.5 24 0
      vertex -11.2487 24 2.39098
    endloop
  endfacet
  facet normal 0.994522 0 -0.104528
    outer loop
      vertex -11.5 24 0
      vertex -11.2487 19 2.39098
      vertex -11.5 19 0
    endloop
  endfacet
  facet normal 0.207932 0 0.978143
    outer loop
      vertex -3.55369 24 -10.9371
      vertex -1.20208 19 -11.437
      vertex -1.20208 24 -11.437
    endloop
  endfacet
  facet normal 0.207932 0 0.978143
    outer loop
      vertex -1.20208 19 -11.437
      vertex -3.55369 24 -10.9371
      vertex -3.55369 19 -10.9371
    endloop
  endfacet
  facet normal -0.207932 0 0.978143
    outer loop
      vertex 1.20208 24 -11.437
      vertex 3.55369 19 -10.9371
      vertex 3.55369 24 -10.9371
    endloop
  endfacet
  facet normal -0.207932 0 0.978143
    outer loop
      vertex 3.55369 19 -10.9371
      vertex 1.20208 24 -11.437
      vertex 1.20208 19 -11.437
    endloop
  endfacet
  facet normal -0.406719 0 -0.913553
    outer loop
      vertex 3.55369 19 10.9371
      vertex 5.75 24 9.95929
      vertex 5.75 19 9.95929
    endloop
  endfacet
  facet normal -0.406719 0 -0.913553
    outer loop
      vertex 5.75 24 9.95929
      vertex 3.55369 19 10.9371
      vertex 3.55369 24 10.9371
    endloop
  endfacet
  facet normal 0 0 -1
    outer loop
      vertex -1.20208 19 11.437
      vertex 1.20208 24 11.437
      vertex 1.20208 19 11.437
    endloop
  endfacet
  facet normal -0 0 -1
    outer loop
      vertex 1.20208 24 11.437
      vertex -1.20208 19 11.437
      vertex -1.20208 24 11.437
    endloop
  endfacet
  facet normal 0.95106 0 -0.309007
    outer loop
      vertex -10.5058 19 4.67747
      vertex -11.2487 24 2.39098
      vertex -10.5058 24 4.67747
    endloop
  endfacet
  facet normal 0.95106 0 -0.309007
    outer loop
      vertex -11.2487 24 2.39098
      vertex -10.5058 19 4.67747
      vertex -11.2487 19 2.39098
    endloop
  endfacet
  facet normal -0.86602 0 -0.50001
    outer loop
      vertex 10.5058 19 4.67747
      vertex 9.30369 24 6.75953
      vertex 10.5058 24 4.67747
    endloop
  endfacet
  facet normal -0.86602 -0 -0.50001
    outer loop
      vertex 9.30369 24 6.75953
      vertex 10.5058 19 4.67747
      vertex 9.30369 19 6.75953
    endloop
  endfacet
  facet normal 0.86602 -0 0.50001
    outer loop
      vertex -10.5058 19 -4.67747
      vertex -9.30369 24 -6.75953
      vertex -10.5058 24 -4.67747
    endloop
  endfacet
  facet normal 0.86602 0 0.50001
    outer loop
      vertex -9.30369 24 -6.75953
      vertex -10.5058 19 -4.67747
      vertex -9.30369 19 -6.75953
    endloop
  endfacet
  facet normal 0.587784 0 0.809018
    outer loop
      vertex -7.695 24 -8.54617
      vertex -5.75 19 -9.95929
      vertex -5.75 24 -9.95929
    endloop
  endfacet
  facet normal 0.587784 0 0.809018
    outer loop
      vertex -5.75 19 -9.95929
      vertex -7.695 24 -8.54617
      vertex -7.695 19 -8.54617
    endloop
  endfacet
  facet normal 0.207932 0 -0.978143
    outer loop
      vertex -3.55369 19 10.9371
      vertex -1.20208 24 11.437
      vertex -1.20208 19 11.437
    endloop
  endfacet
  facet normal 0.207932 0 -0.978143
    outer loop
      vertex -1.20208 24 11.437
      vertex -3.55369 19 10.9371
      vertex -3.55369 24 10.9371
    endloop
  endfacet
  facet normal -0.994522 0 0.104528
    outer loop
      vertex 11.2487 19 -2.39098
      vertex 11.5 24 0
      vertex 11.2487 24 -2.39098
    endloop
  endfacet
  facet normal -0.994522 0 0.104528
    outer loop
      vertex 11.5 24 0
      vertex 11.2487 19 -2.39098
      vertex 11.5 19 0
    endloop
  endfacet
  facet normal -0.86602 0 0.50001
    outer loop
      vertex 9.30369 19 -6.75953
      vertex 10.5058 24 -4.67747
      vertex 9.30369 24 -6.75953
    endloop
  endfacet
  facet normal -0.86602 0 0.50001
    outer loop
      vertex 10.5058 24 -4.67747
      vertex 9.30369 19 -6.75953
      vertex 10.5058 19 -4.67747
    endloop
  endfacet
  facet normal 0.406719 0 0.913553
    outer loop
      vertex -5.75 24 -9.95929
      vertex -3.55369 19 -10.9371
      vertex -3.55369 24 -10.9371
    endloop
  endfacet
  facet normal 0.406719 0 0.913553
    outer loop
      vertex -3.55369 19 -10.9371
      vertex -5.75 24 -9.95929
      vertex -5.75 19 -9.95929
    endloop
  endfacet
  facet normal -0.743146 0 -0.669129
    outer loop
      vertex 9.30369 19 6.75953
      vertex 7.695 24 8.54617
      vertex 9.30369 24 6.75953
    endloop
  endfacet
  facet normal -0.743146 -0 -0.669129
    outer loop
      vertex 7.695 24 8.54617
      vertex 9.30369 19 6.75953
      vertex 7.695 19 8.54617
    endloop
  endfacet
  facet normal -0 0 1
    outer loop
      vertex -1.20208 24 -11.437
      vertex 1.20208 19 -11.437
      vertex 1.20208 24 -11.437
    endloop
  endfacet
  facet normal 0 0 1
    outer loop
      vertex 1.20208 19 -11.437
      vertex -1.20208 24 -11.437
      vertex -1.20208 19 -11.437
    endloop
  endfacet
  facet normal 0.95106 -0 0.309007
    outer loop
      vertex -11.2487 19 -2.39098
      vertex -10.5058 24 -4.67747
      vertex -11.2487 24 -2.39098
    endloop
  endfacet
  facet normal 0.95106 0 0.309007
    outer loop
      vertex -10.5058 24 -4.67747
      vertex -11.2487 19 -2.39098
      vertex -10.5058 19 -4.67747
    endloop
  endfacet
  facet normal 0.743146 -0 0.669129
    outer loop
      vertex -9.30369 19 -6.75953
      vertex -7.695 24 -8.54617
      vertex -9.30369 24 -6.75953
    endloop
  endfacet
  facet normal 0.743146 0 0.669129
    outer loop
      vertex -7.695 24 -8.54617
      vertex -9.30369 19 -6.75953
      vertex -7.695 19 -8.54617
    endloop
  endfacet
  facet normal 0.994522 -0 0.104528
    outer loop
      vertex -11.5 19 0
      vertex -11.2487 24 -2.39098
      vertex -11.5 24 0
    endloop
  endfacet
  facet normal 0.994522 0 0.104528
    outer loop
      vertex -11.2487 24 -2.39098
      vertex -11.5 19 0
      vertex -11.2487 19 -2.39098
    endloop
  endfacet
  facet normal 0.86602 0 -0.50001
    outer loop
      vertex -9.30369 19 6.75953
      vertex -10.5058 24 4.67747
      vertex -9.30369 24 6.75953
    endloop
  endfacet
  facet normal 0.86602 0 -0.50001
    outer loop
      vertex -10.5058 24 4.67747
      vertex -9.30369 19 6.75953
      vertex -10.5058 19 4.67747
    endloop
  endfacet
  facet normal -0.222528 0 -0.974926
    outer loop
      vertex 15.055 19 17.4499
      vertex 16.747 24 17.0637
      vertex 16.747 19 17.0637
    endloop
  endfacet
  facet normal -0.222528 0 -0.974926
    outer loop
      vertex 16.747 24 17.0637
      vertex 15.055 19 17.4499
      vertex 15.055 24 17.4499
    endloop
  endfacet
  facet normal -0.900977 0 -0.433866
    outer loop
      vertex 17.5 19 15.5
      vertex 16.747 24 17.0637
      vertex 17.5 24 15.5
    endloop
  endfacet
  facet normal -0.900977 -0 -0.433866
    outer loop
      vertex 16.747 24 17.0637
      vertex 17.5 19 15.5
      vertex 16.747 19 17.0637
    endloop
  endfacet
  facet normal -0.900977 0 0.433866
    outer loop
      vertex 16.747 19 13.9363
      vertex 17.5 24 15.5
      vertex 16.747 24 13.9363
    endloop
  endfacet
  facet normal -0.900977 0 0.433866
    outer loop
      vertex 17.5 24 15.5
      vertex 16.747 19 13.9363
      vertex 17.5 19 15.5
    endloop
  endfacet
  facet normal 0.623493 0 -0.781829
    outer loop
      vertex 13.6981 19 16.3678
      vertex 15.055 24 17.4499
      vertex 15.055 19 17.4499
    endloop
  endfacet
  facet normal 0.623493 0 -0.781829
    outer loop
      vertex 15.055 24 17.4499
      vertex 13.6981 19 16.3678
      vertex 13.6981 24 16.3678
    endloop
  endfacet
  facet normal 0.623493 0 0.781829
    outer loop
      vertex 13.6981 24 14.6322
      vertex 15.055 19 13.5501
      vertex 15.055 24 13.5501
    endloop
  endfacet
  facet normal 0.623493 0 0.781829
    outer loop
      vertex 15.055 19 13.5501
      vertex 13.6981 24 14.6322
      vertex 13.6981 19 14.6322
    endloop
  endfacet
  facet normal -0.222528 0 0.974926
    outer loop
      vertex 15.055 24 13.5501
      vertex 16.747 19 13.9363
      vertex 16.747 24 13.9363
    endloop
  endfacet
  facet normal -0.222528 0 0.974926
    outer loop
      vertex 16.747 19 13.9363
      vertex 15.055 24 13.5501
      vertex 15.055 19 13.5501
    endloop
  endfacet
  facet normal 1 -0 0
    outer loop
      vertex 13.6981 19 16.3678
      vertex 13.6981 24 14.6322
      vertex 13.6981 24 16.3678
    endloop
  endfacet
  facet normal 1 0 0
    outer loop
      vertex 13.6981 24 14.6322
      vertex 13.6981 19 16.3678
      vertex 13.6981 19 14.6322
    endloop
  endfacet
  facet normal -0.222528 0 -0.974926
    outer loop
      vertex -15.945 19 17.4499
      vertex -14.253 24 17.0637
      vertex -14.253 19 17.0637
    endloop
  endfacet
  facet normal -0.222528 0 -0.974926
    outer loop
      vertex -14.253 24 17.0637
      vertex -15.945 19 17.4499
      vertex -15.945 24 17.4499
    endloop
  endfacet
  facet normal -0.900977 0 -0.433866
    outer loop
      vertex -13.5 19 15.5
      vertex -14.253 24 17.0637
      vertex -13.5 24 15.5
    endloop
  endfacet
  facet normal -0.900977 -0 -0.433866
    outer loop
      vertex -14.253 24 17.0637
      vertex -13.5 19 15.5
      vertex -14.253 19 17.0637
    endloop
  endfacet
  facet normal -0.900977 0 0.433866
    outer loop
      vertex -14.253 19 13.9363
      vertex -13.5 24 15.5
      vertex -14.253 24 13.9363
    endloop
  endfacet
  facet normal -0.900977 0 0.433866
    outer loop
      vertex -13.5 24 15.5
      vertex -14.253 19 13.9363
      vertex -13.5 19 15.5
    endloop
  endfacet
  facet normal 0.623493 0 -0.781829
    outer loop
      vertex -17.3019 19 16.3678
      vertex -15.945 24 17.4499
      vertex -15.945 19 17.4499
    endloop
  endfacet
  facet normal 0.623493 0 -0.781829
    outer loop
      vertex -15.945 24 17.4499
      vertex -17.3019 19 16.3678
      vertex -17.3019 24 16.3678
    endloop
  endfacet
  facet normal 0.623493 0 0.781829
    outer loop
      vertex -17.3019 24 14.6322
      vertex -15.945 19 13.5501
      vertex -15.945 24 13.5501
    endloop
  endfacet
  facet normal 0.623493 0 0.781829
    outer loop
      vertex -15.945 19 13.5501
      vertex -17.3019 24 14.6322
      vertex -17.3019 19 14.6322
    endloop
  endfacet
  facet normal -0.222528 0 0.974926
    outer loop
      vertex -15.945 24 13.5501
      vertex -14.253 19 13.9363
      vertex -14.253 24 13.9363
    endloop
  endfacet
  facet normal -0.222528 0 0.974926
    outer loop
      vertex -14.253 19 13.9363
      vertex -15.945 24 13.5501
      vertex -15.945 19 13.5501
    endloop
  endfacet
  facet normal 1 -0 0
    outer loop
      vertex -17.3019 19 16.3678
      vertex -17.3019 24 14.6322
      vertex -17.3019 24 16.3678
    endloop
  endfacet
  facet normal 1 0 0
    outer loop
      vertex -17.3019 24 14.6322
      vertex -17.3019 19 16.3678
      vertex -17.3019 19 14.6322
    endloop
  endfacet
  facet normal -0.222528 0 -0.974926
    outer loop
      vertex -15.945 19 -13.5501
      vertex -14.253 24 -13.9363
      vertex -14.253 19 -13.9363
    endloop
  endfacet
  facet normal -0.222528 0 -0.974926
    outer loop
      vertex -14.253 24 -13.9363
      vertex -15.945 19 -13.5501
      vertex -15.945 24 -13.5501
    endloop
  endfacet
  facet normal -0.900977 0 -0.433866
    outer loop
      vertex -13.5 19 -15.5
      vertex -14.253 24 -13.9363
      vertex -13.5 24 -15.5
    endloop
  endfacet
  facet normal -0.900977 -0 -0.433866
    outer loop
      vertex -14.253 24 -13.9363
      vertex -13.5 19 -15.5
      vertex -14.253 19 -13.9363
    endloop
  endfacet
  facet normal -0.900977 0 0.433866
    outer loop
      vertex -14.253 19 -17.0637
      vertex -13.5 24 -15.5
      vertex -14.253 24 -17.0637
    endloop
  endfacet
  facet normal -0.900977 0 0.433866
    outer loop
      vertex -13.5 24 -15.5
      vertex -14.253 19 -17.0637
      vertex -13.5 19 -15.5
    endloop
  endfacet
  facet normal 0.623493 0 -0.781829
    outer loop
      vertex -17.3019 19 -14.6322
      vertex -15.945 24 -13.5501
      vertex -15.945 19 -13.5501
    endloop
  endfacet
  facet normal 0.623493 0 -0.781829
    outer loop
      vertex -15.945 24 -13.5501
      vertex -17.3019 19 -14.6322
      vertex -17.3019 24 -14.6322
    endloop
  endfacet
  facet normal 0.623493 0 0.781829
    outer loop
      vertex -17.3019 24 -16.3678
      vertex -15.945 19 -17.4499
      vertex -15.945 24 -17.4499
    endloop
  endfacet
  facet normal 0.623493 0 0.781829
    outer loop
      vertex -15.945 19 -17.4499
      vertex -17.3019 24 -16.3678
      vertex -17.3019 19 -16.3678
    endloop
  endfacet
  facet normal -0.222528 0 0.974926
    outer loop
      vertex -15.945 24 -17.4499
      vertex -14.253 19 -17.0637
      vertex -14.253 24 -17.0637
    endloop
  endfacet
  facet normal -0.222528 0 0.974926
    outer loop
      vertex -14.253 19 -17.0637
      vertex -15.945 24 -17.4499
      vertex -15.945 19 -17.4499
    endloop
  endfacet
  facet normal 1 -0 0
    outer loop
      vertex -17.3019 19 -14.6322
      vertex -17.3019 24 -16.3678
      vertex -17.3019 24 -14.6322
    endloop
  endfacet
  facet normal 1 0 0
    outer loop
      vertex -17.3019 24 -16.3678
      vertex -17.3019 19 -14.6322
      vertex -17.3019 19 -16.3678
    endloop
  endfacet
  facet normal -0.222528 0 -0.974926
    outer loop
      vertex 15.055 19 -13.5501
      vertex 16.747 24 -13.9363
      vertex 16.747 19 -13.9363
    endloop
  endfacet
  facet normal -0.222528 0 -0.974926
    outer loop
      vertex 16.747 24 -13.9363
      vertex 15.055 19 -13.5501
      vertex 15.055 24 -13.5501
    endloop
  endfacet
  facet normal -0.900977 0 -0.433866
    outer loop
      vertex 17.5 19 -15.5
      vertex 16.747 24 -13.9363
      vertex 17.5 24 -15.5
    endloop
  endfacet
  facet normal -0.900977 -0 -0.433866
    outer loop
      vertex 16.747 24 -13.9363
      vertex 17.5 19 -15.5
      vertex 16.747 19 -13.9363
    endloop
  endfacet
  facet normal -0.900977 0 0.433866
    outer loop
      vertex 16.747 19 -17.0637
      vertex 17.5 24 -15.5
      vertex 16.747 24 -17.0637
    endloop
  endfacet
  facet normal -0.900977 0 0.433866
    outer loop
      vertex 17.5 24 -15.5
      vertex 16.747 19 -17.0637
      vertex 17.5 19 -15.5
    endloop
  endfacet
  facet normal 0.623493 0 -0.781829
    outer loop
      vertex 13.6981 19 -14.6322
      vertex 15.055 24 -13.5501
      vertex 15.055 19 -13.5501
    endloop
  endfacet
  facet normal 0.623493 0 -0.781829
    outer loop
      vertex 15.055 24 -13.5501
      vertex 13.6981 19 -14.6322
      vertex 13.6981 24 -14.6322
    endloop
  endfacet
  facet normal 0.623493 0 0.781829
    outer loop
      vertex 13.6981 24 -16.3678
      vertex 15.055 19 -17.4499
      vertex 15.055 24 -17.4499
    endloop
  endfacet
  facet normal 0.623493 0 0.781829
    outer loop
      vertex 15.055 19 -17.4499
      vertex 13.6981 24 -16.3678
      vertex 13.6981 19 -16.3678
    endloop
  endfacet
  facet normal -0.222528 0 0.974926
    outer loop
      vertex 15.055 24 -17.4499
      vertex 16.747 19 -17.0637
      vertex 16.747 24 -17.0637
    endloop
  endfacet
  facet normal -0.222528 0 0.974926
    outer loop
      vertex 16.747 19 -17.0637
      vertex 15.055 24 -17.4499
      vertex 15.055 19 -17.4499
    endloop
  endfacet
  facet normal 1 -0 0
    outer loop
      vertex 13.6981 19 -14.6322
      vertex 13.6981 24 -16.3678
      vertex 13.6981 24 -14.6322
    endloop
  endfacet
  facet normal 1 0 0
    outer loop
      vertex 13.6981 24 -16.3678
      vertex 13.6981 19 -14.6322
      vertex 13.6981 19 -16.3678
    endloop
  endfacet
endsolid OpenSCAD_Model
