solid OpenSCAD_Model
  facet normal -1 0 0
    outer loop
      vertex 3 -14 -15
      vertex 3 -3.4641 15
      vertex 3 -3.4641 -15
    endloop
  endfacet
  facet normal -1 -0 0
    outer loop
      vertex 3 -3.4641 15
      vertex 3 -14 -15
      vertex 3 -14 15
    endloop
  endfacet
  facet normal -1 0 0
    outer loop
      vertex 3 3.4641 -15
      vertex 3 21 15
      vertex 3 21 -15
    endloop
  endfacet
  facet normal -1 -0 0
    outer loop
      vertex 3 21 15
      vertex 3 3.4641 -15
      vertex 3 3.4641 15
    endloop
  endfacet
  facet normal 0 0 1
    outer loop
      vertex 53 21 15
      vertex 45 8.66025 15
      vertex 53 4.04145 15
    endloop
  endfacet
  facet normal 0 0 1
    outer loop
      vertex 3 3.4641 15
      vertex 45 8.66025 15
      vertex 3 21 15
    endloop
  endfacet
  facet normal -0 0 1
    outer loop
      vertex 3 21 15
      vertex 45 8.66025 15
      vertex 53 21 15
    endloop
  endfacet
  facet normal -0 0 1
    outer loop
      vertex 45 -8.66025 15
      vertex 53 -14 15
      vertex 53 -4.04145 15
    endloop
  endfacet
  facet normal 0 0 1
    outer loop
      vertex 45 8.66025 15
      vertex 3 3.4641 15
      vertex 45 -8.66025 15
    endloop
  endfacet
  facet normal -0 0 1
    outer loop
      vertex 3 -3.4641 15
      vertex 45 -8.66025 15
      vertex 3 3.4641 15
    endloop
  endfacet
  facet normal 0 0 1
    outer loop
      vertex 3 -14 15
      vertex 45 -8.66025 15
      vertex 3 -3.4641 15
    endloop
  endfacet
  facet normal 0 0 1
    outer loop
      vertex 45 -8.66025 15
      vertex 3 -14 15
      vertex 53 -14 15
    endloop
  endfacet
  facet normal 0 0 1
    outer loop
      vertex -4.5 7.79423 15
      vertex 3 -3.4641 15
      vertex 3 3.4641 15
    endloop
  endfacet
  facet normal 0 0 1
    outer loop
      vertex 3 -3.4641 15
      vertex -4.5 7.79423 15
      vertex -4.5 -7.79423 15
    endloop
  endfacet
  facet normal 1 -0 0
    outer loop
      vertex 53 -14 15
      vertex 53 -4.04145 -15
      vertex 53 -4.04145 15
    endloop
  endfacet
  facet normal 1 0 0
    outer loop
      vertex 53 -4.04145 -15
      vertex 53 -14 15
      vertex 53 -14 -15
    endloop
  endfacet
  facet normal 1 -0 0
    outer loop
      vertex 53 4.04145 15
      vertex 53 21 -15
      vertex 53 21 15
    endloop
  endfacet
  facet normal 1 0 0
    outer loop
      vertex 53 21 -15
      vertex 53 4.04145 15
      vertex 53 4.04145 -15
    endloop
  endfacet
  facet normal 0 1 -0
    outer loop
      vertex 26.314 21 4.99013
      vertex 3 21 15
      vertex 53 21 15
    endloop
  endfacet
  facet normal 0 1 0
    outer loop
      vertex 3 21 15
      vertex 26.314 21 4.99013
      vertex 26 21 5
    endloop
  endfacet
  facet normal 0 1 0
    outer loop
      vertex 53 21 15
      vertex 26.6267 21 4.96057
      vertex 26.314 21 4.99013
    endloop
  endfacet
  facet normal 0 1 0
    outer loop
      vertex 53 21 15
      vertex 26.9369 21 4.91144
      vertex 26.6267 21 4.96057
    endloop
  endfacet
  facet normal 0 1 0
    outer loop
      vertex 53 21 15
      vertex 27.2435 21 4.84292
      vertex 26.9369 21 4.91144
    endloop
  endfacet
  facet normal 0 1 0
    outer loop
      vertex 53 21 15
      vertex 27.5451 21 4.75528
      vertex 27.2435 21 4.84292
    endloop
  endfacet
  facet normal 0 1 0
    outer loop
      vertex 53 21 15
      vertex 27.8406 21 4.64888
      vertex 27.5451 21 4.75528
    endloop
  endfacet
  facet normal 0 1 0
    outer loop
      vertex 53 21 15
      vertex 28.1289 21 4.52413
      vertex 27.8406 21 4.64888
    endloop
  endfacet
  facet normal 0 1 0
    outer loop
      vertex 53 21 15
      vertex 28.4088 21 4.38153
      vertex 28.1289 21 4.52413
    endloop
  endfacet
  facet normal 0 1 0
    outer loop
      vertex 53 21 15
      vertex 28.6791 21 4.22164
      vertex 28.4088 21 4.38153
    endloop
  endfacet
  facet normal 0 1 0
    outer loop
      vertex 53 21 15
      vertex 28.9389 21 4.04508
      vertex 28.6791 21 4.22164
    endloop
  endfacet
  facet normal 0 1 0
    outer loop
      vertex 53 21 15
      vertex 29.1871 21 3.85257
      vertex 28.9389 21 4.04508
    endloop
  endfacet
  facet normal 0 1 0
    outer loop
      vertex 53 21 15
      vertex 29.4227 21 3.64484
      vertex 29.1871 21 3.85257
    endloop
  endfacet
  facet normal 0 1 0
    outer loop
      vertex 53 21 15
      vertex 29.6448 21 3.42274
      vertex 29.4227 21 3.64484
    endloop
  endfacet
  facet normal 0 1 0
    outer loop
      vertex 53 21 15
      vertex 29.8526 21 3.18712
      vertex 29.6448 21 3.42274
    endloop
  endfacet
  facet normal 0 1 0
    outer loop
      vertex 53 21 15
      vertex 30.0451 21 2.93893
      vertex 29.8526 21 3.18712
    endloop
  endfacet
  facet normal 0 1 0
    outer loop
      vertex 53 21 15
      vertex 30.2216 21 2.67913
      vertex 30.0451 21 2.93893
    endloop
  endfacet
  facet normal 0 1 0
    outer loop
      vertex 53 21 15
      vertex 30.3815 21 2.40877
      vertex 30.2216 21 2.67913
    endloop
  endfacet
  facet normal 0 1 0
    outer loop
      vertex 53 21 15
      vertex 30.5241 21 2.1289
      vertex 30.3815 21 2.40877
    endloop
  endfacet
  facet normal 0 1 0
    outer loop
      vertex 53 21 15
      vertex 30.6489 21 1.84062
      vertex 30.5241 21 2.1289
    endloop
  endfacet
  facet normal 0 1 0
    outer loop
      vertex 53 21 15
      vertex 30.7553 21 1.54508
      vertex 30.6489 21 1.84062
    endloop
  endfacet
  facet normal 0 1 0
    outer loop
      vertex 53 21 15
      vertex 30.8429 21 1.24345
      vertex 30.7553 21 1.54508
    endloop
  endfacet
  facet normal 0 1 0
    outer loop
      vertex 53 21 15
      vertex 30.9114 21 0.936906
      vertex 30.8429 21 1.24345
    endloop
  endfacet
  facet normal 0 1 0
    outer loop
      vertex 53 21 15
      vertex 30.9606 21 0.626666
      vertex 30.9114 21 0.936906
    endloop
  endfacet
  facet normal 0 1 0
    outer loop
      vertex 53 21 15
      vertex 30.9901 21 0.313952
      vertex 30.9606 21 0.626666
    endloop
  endfacet
  facet normal 0 1 0
    outer loop
      vertex 53 21 15
      vertex 31 21 1.55431e-15
      vertex 30.9901 21 0.313952
    endloop
  endfacet
  facet normal 0 1 -0
    outer loop
      vertex 53 21 -15
      vertex 31 21 1.55431e-15
      vertex 53 21 15
    endloop
  endfacet
  facet normal 0 1 0
    outer loop
      vertex 31 21 1.55431e-15
      vertex 53 21 -15
      vertex 30.9901 21 -0.313952
    endloop
  endfacet
  facet normal 0 1 0
    outer loop
      vertex 30.9901 21 -0.313952
      vertex 53 21 -15
      vertex 30.9606 21 -0.626666
    endloop
  endfacet
  facet normal 0 1 0
    outer loop
      vertex 30.9606 21 -0.626666
      vertex 53 21 -15
      vertex 30.9114 21 -0.936906
    endloop
  endfacet
  facet normal 0 1 0
    outer loop
      vertex 30.9114 21 -0.936906
      vertex 53 21 -15
      vertex 30.8429 21 -1.24345
    endloop
  endfacet
  facet normal 0 1 0
    outer loop
      vertex 30.8429 21 -1.24345
      vertex 53 21 -15
      vertex 30.7553 21 -1.54508
    endloop
  endfacet
  facet normal 0 1 0
    outer loop
      vertex 30.7553 21 -1.54508
      vertex 53 21 -15
      vertex 30.6489 21 -1.84062
    endloop
  endfacet
  facet normal 0 1 0
    outer loop
      vertex 30.6489 21 -1.84062
      vertex 53 21 -15
      vertex 30.5241 21 -2.1289
    endloop
  endfacet
  facet normal 0 1 0
    outer loop
      vertex 30.5241 21 -2.1289
      vertex 53 21 -15
      vertex 30.3815 21 -2.40877
    endloop
  endfacet
  facet normal 0 1 0
    outer loop
      vertex 30.3815 21 -2.40877
      vertex 53 21 -15
      vertex 30.2216 21 -2.67913
    endloop
  endfacet
  facet normal 0 1 0
    outer loop
      vertex 30.2216 21 -2.67913
      vertex 53 21 -15
      vertex 30.0451 21 -2.93893
    endloop
  endfacet
  facet normal 0 1 0
    outer loop
      vertex 30.0451 21 -2.93893
      vertex 53 21 -15
      vertex 29.8526 21 -3.18712
    endloop
  endfacet
  facet normal 0 1 0
    outer loop
      vertex 29.8526 21 -3.18712
      vertex 53 21 -15
      vertex 29.6448 21 -3.42274
    endloop
  endfacet
  facet normal 0 1 0
    outer loop
      vertex 29.6448 21 -3.42274
      vertex 53 21 -15
      vertex 29.4227 21 -3.64484
    endloop
  endfacet
  facet normal 0 1 0
    outer loop
      vertex 3 21 -15
      vertex 26.314 21 -4.99013
      vertex 53 21 -15
    endloop
  endfacet
  facet normal 0 1 0
    outer loop
      vertex 26.6267 21 -4.96057
      vertex 53 21 -15
      vertex 26.314 21 -4.99013
    endloop
  endfacet
  facet normal 0 1 0
    outer loop
      vertex 26.9369 21 -4.91144
      vertex 53 21 -15
      vertex 26.6267 21 -4.96057
    endloop
  endfacet
  facet normal 0 1 0
    outer loop
      vertex 27.2435 21 -4.84292
      vertex 53 21 -15
      vertex 26.9369 21 -4.91144
    endloop
  endfacet
  facet normal 0 1 0
    outer loop
      vertex 27.5451 21 -4.75528
      vertex 53 21 -15
      vertex 27.2435 21 -4.84292
    endloop
  endfacet
  facet normal 0 1 0
    outer loop
      vertex 27.8406 21 -4.64888
      vertex 53 21 -15
      vertex 27.5451 21 -4.75528
    endloop
  endfacet
  facet normal 0 1 0
    outer loop
      vertex 28.1289 21 -4.52413
      vertex 53 21 -15
      vertex 27.8406 21 -4.64888
    endloop
  endfacet
  facet normal 0 1 0
    outer loop
      vertex 28.4088 21 -4.38153
      vertex 53 21 -15
      vertex 28.1289 21 -4.52413
    endloop
  endfacet
  facet normal 0 1 0
    outer loop
      vertex 28.6791 21 -4.22164
      vertex 53 21 -15
      vertex 28.4088 21 -4.38153
    endloop
  endfacet
  facet normal 0 1 0
    outer loop
      vertex 28.9389 21 -4.04508
      vertex 53 21 -15
      vertex 28.6791 21 -4.22164
    endloop
  endfacet
  facet normal 0 1 0
    outer loop
      vertex 29.1871 21 -3.85257
      vertex 53 21 -15
      vertex 28.9389 21 -4.04508
    endloop
  endfacet
  facet normal 0 1 0
    outer loop
      vertex 29.4227 21 -3.64484
      vertex 53 21 -15
      vertex 29.1871 21 -3.85257
    endloop
  endfacet
  facet normal 0 1 -0
    outer loop
      vertex 25.686 21 4.99013
      vertex 3 21 15
      vertex 26 21 5
    endloop
  endfacet
  facet normal 0 1 -0
    outer loop
      vertex 25.3733 21 4.96057
      vertex 3 21 15
      vertex 25.686 21 4.99013
    endloop
  endfacet
  facet normal 0 1 -0
    outer loop
      vertex 25.0631 21 4.91144
      vertex 3 21 15
      vertex 25.3733 21 4.96057
    endloop
  endfacet
  facet normal 0 1 -0
    outer loop
      vertex 24.7565 21 4.84292
      vertex 3 21 15
      vertex 25.0631 21 4.91144
    endloop
  endfacet
  facet normal 0 1 -0
    outer loop
      vertex 24.4549 21 4.75528
      vertex 3 21 15
      vertex 24.7565 21 4.84292
    endloop
  endfacet
  facet normal 0 1 -0
    outer loop
      vertex 24.1594 21 4.64888
      vertex 3 21 15
      vertex 24.4549 21 4.75528
    endloop
  endfacet
  facet normal 0 1 -0
    outer loop
      vertex 23.8711 21 4.52413
      vertex 3 21 15
      vertex 24.1594 21 4.64888
    endloop
  endfacet
  facet normal 0 1 -0
    outer loop
      vertex 23.5912 21 4.38153
      vertex 3 21 15
      vertex 23.8711 21 4.52413
    endloop
  endfacet
  facet normal 0 1 -0
    outer loop
      vertex 23.3209 21 4.22164
      vertex 3 21 15
      vertex 23.5912 21 4.38153
    endloop
  endfacet
  facet normal 0 1 -0
    outer loop
      vertex 23.0611 21 4.04508
      vertex 3 21 15
      vertex 23.3209 21 4.22164
    endloop
  endfacet
  facet normal 0 1 -0
    outer loop
      vertex 22.8129 21 3.85257
      vertex 3 21 15
      vertex 23.0611 21 4.04508
    endloop
  endfacet
  facet normal 0 1 -0
    outer loop
      vertex 22.5773 21 3.64484
      vertex 3 21 15
      vertex 22.8129 21 3.85257
    endloop
  endfacet
  facet normal 0 1 -0
    outer loop
      vertex 22.3552 21 3.42274
      vertex 3 21 15
      vertex 22.5773 21 3.64484
    endloop
  endfacet
  facet normal 0 1 -0
    outer loop
      vertex 22.1474 21 3.18712
      vertex 3 21 15
      vertex 22.3552 21 3.42274
    endloop
  endfacet
  facet normal 0 1 -0
    outer loop
      vertex 21.9549 21 2.93893
      vertex 3 21 15
      vertex 22.1474 21 3.18712
    endloop
  endfacet
  facet normal 0 1 -0
    outer loop
      vertex 21.7784 21 2.67913
      vertex 3 21 15
      vertex 21.9549 21 2.93893
    endloop
  endfacet
  facet normal 0 1 -0
    outer loop
      vertex 21.6185 21 2.40877
      vertex 3 21 15
      vertex 21.7784 21 2.67913
    endloop
  endfacet
  facet normal 0 1 -0
    outer loop
      vertex 21.4759 21 2.1289
      vertex 3 21 15
      vertex 21.6185 21 2.40877
    endloop
  endfacet
  facet normal 0 1 -0
    outer loop
      vertex 21.3511 21 1.84062
      vertex 3 21 15
      vertex 21.4759 21 2.1289
    endloop
  endfacet
  facet normal 0 1 -0
    outer loop
      vertex 21.2447 21 1.54508
      vertex 3 21 15
      vertex 21.3511 21 1.84062
    endloop
  endfacet
  facet normal 0 1 -0
    outer loop
      vertex 21.1571 21 1.24345
      vertex 3 21 15
      vertex 21.2447 21 1.54508
    endloop
  endfacet
  facet normal 0 1 -0
    outer loop
      vertex 21.0886 21 0.936906
      vertex 3 21 15
      vertex 21.1571 21 1.24345
    endloop
  endfacet
  facet normal 0 1 -0
    outer loop
      vertex 21.0394 21 0.626666
      vertex 3 21 15
      vertex 21.0886 21 0.936906
    endloop
  endfacet
  facet normal 0 1 -0
    outer loop
      vertex 21.0099 21 0.313952
      vertex 3 21 15
      vertex 21.0394 21 0.626666
    endloop
  endfacet
  facet normal 0 1 -0
    outer loop
      vertex 21 21 1.55431e-15
      vertex 3 21 15
      vertex 21.0099 21 0.313952
    endloop
  endfacet
  facet normal 0 1 0
    outer loop
      vertex 3 21 -15
      vertex 21 21 1.55431e-15
      vertex 21.0099 21 -0.313952
    endloop
  endfacet
  facet normal 0 1 0
    outer loop
      vertex 3 21 -15
      vertex 21.0099 21 -0.313952
      vertex 21.0394 21 -0.626666
    endloop
  endfacet
  facet normal 0 1 0
    outer loop
      vertex 3 21 -15
      vertex 21.0394 21 -0.626666
      vertex 21.0886 21 -0.936906
    endloop
  endfacet
  facet normal 0 1 0
    outer loop
      vertex 3 21 -15
      vertex 21.0886 21 -0.936906
      vertex 21.1571 21 -1.24345
    endloop
  endfacet
  facet normal 0 1 0
    outer loop
      vertex 3 21 -15
      vertex 21.1571 21 -1.24345
      vertex 21.2447 21 -1.54508
    endloop
  endfacet
  facet normal 0 1 0
    outer loop
      vertex 3 21 -15
      vertex 21.2447 21 -1.54508
      vertex 21.3511 21 -1.84062
    endloop
  endfacet
  facet normal 0 1 0
    outer loop
      vertex 3 21 -15
      vertex 21.3511 21 -1.84062
      vertex 21.4759 21 -2.1289
    endloop
  endfacet
  facet normal 0 1 0
    outer loop
      vertex 3 21 -15
      vertex 21.4759 21 -2.1289
      vertex 21.6185 21 -2.40877
    endloop
  endfacet
  facet normal 0 1 0
    outer loop
      vertex 3 21 -15
      vertex 21.6185 21 -2.40877
      vertex 21.7784 21 -2.67913
    endloop
  endfacet
  facet normal 0 1 0
    outer loop
      vertex 3 21 -15
      vertex 21.7784 21 -2.67913
      vertex 21.9549 21 -2.93893
    endloop
  endfacet
  facet normal 0 1 0
    outer loop
      vertex 3 21 -15
      vertex 21.9549 21 -2.93893
      vertex 22.1474 21 -3.18712
    endloop
  endfacet
  facet normal 0 1 0
    outer loop
      vertex 3 21 -15
      vertex 22.1474 21 -3.18712
      vertex 22.3552 21 -3.42274
    endloop
  endfacet
  facet normal 0 1 0
    outer loop
      vertex 3 21 -15
      vertex 22.3552 21 -3.42274
      vertex 22.5773 21 -3.64484
    endloop
  endfacet
  facet normal 0 1 0
    outer loop
      vertex 26.314 21 -4.99013
      vertex 3 21 -15
      vertex 26 21 -5
    endloop
  endfacet
  facet normal 0 1 0
    outer loop
      vertex 26 21 -5
      vertex 3 21 -15
      vertex 25.686 21 -4.99013
    endloop
  endfacet
  facet normal 0 1 0
    outer loop
      vertex 25.686 21 -4.99013
      vertex 3 21 -15
      vertex 25.3733 21 -4.96057
    endloop
  endfacet
  facet normal 0 1 0
    outer loop
      vertex 25.3733 21 -4.96057
      vertex 3 21 -15
      vertex 25.0631 21 -4.91144
    endloop
  endfacet
  facet normal 0 1 0
    outer loop
      vertex 25.0631 21 -4.91144
      vertex 3 21 -15
      vertex 24.7565 21 -4.84292
    endloop
  endfacet
  facet normal 0 1 0
    outer loop
      vertex 21 21 1.55431e-15
      vertex 3 21 -15
      vertex 3 21 15
    endloop
  endfacet
  facet normal 0 1 0
    outer loop
      vertex 22.8129 21 -3.85257
      vertex 3 21 -15
      vertex 22.5773 21 -3.64484
    endloop
  endfacet
  facet normal 0 1 0
    outer loop
      vertex 23.0611 21 -4.04508
      vertex 3 21 -15
      vertex 22.8129 21 -3.85257
    endloop
  endfacet
  facet normal 0 1 0
    outer loop
      vertex 23.3209 21 -4.22164
      vertex 3 21 -15
      vertex 23.0611 21 -4.04508
    endloop
  endfacet
  facet normal 0 1 0
    outer loop
      vertex 23.5912 21 -4.38153
      vertex 3 21 -15
      vertex 23.3209 21 -4.22164
    endloop
  endfacet
  facet normal 0 1 0
    outer loop
      vertex 23.8711 21 -4.52413
      vertex 3 21 -15
      vertex 23.5912 21 -4.38153
    endloop
  endfacet
  facet normal 0 1 0
    outer loop
      vertex 24.1594 21 -4.64888
      vertex 3 21 -15
      vertex 23.8711 21 -4.52413
    endloop
  endfacet
  facet normal 0 1 0
    outer loop
      vertex 24.4549 21 -4.75528
      vertex 3 21 -15
      vertex 24.1594 21 -4.64888
    endloop
  endfacet
  facet normal 0 1 0
    outer loop
      vertex 24.7565 21 -4.84292
      vertex 3 21 -15
      vertex 24.4549 21 -4.75528
    endloop
  endfacet
  facet normal 0 1 0
    outer loop
      vertex 27.7678 21 1.76777
      vertex 24.2322 21 1.76777
      vertex 26 21 2.5
    endloop
  endfacet
  facet normal 0 1 0
    outer loop
      vertex 28.5 21 1.55431e-15
      vertex 24.2322 21 1.76777
      vertex 27.7678 21 1.76777
    endloop
  endfacet
  facet normal 0 1 0
    outer loop
      vertex 28.5 21 1.55431e-15
      vertex 23.5 21 1.55431e-15
      vertex 24.2322 21 1.76777
    endloop
  endfacet
  facet normal 0 1 -0
    outer loop
      vertex 27.7678 21 -1.76777
      vertex 23.5 21 1.55431e-15
      vertex 28.5 21 1.55431e-15
    endloop
  endfacet
  facet normal 0 1 0
    outer loop
      vertex 27.7678 21 -1.76777
      vertex 24.2322 21 -1.76777
      vertex 23.5 21 1.55431e-15
    endloop
  endfacet
  facet normal -0 1 0
    outer loop
      vertex 24.2322 21 -1.76777
      vertex 27.7678 21 -1.76777
      vertex 26 21 -2.5
    endloop
  endfacet
  facet normal 0 0 -1
    outer loop
      vertex 53 -14 -15
      vertex 45 -8.66025 -15
      vertex 53 -4.04145 -15
    endloop
  endfacet
  facet normal 0 0 -1
    outer loop
      vertex 3 -3.4641 -15
      vertex 45 -8.66025 -15
      vertex 3 -14 -15
    endloop
  endfacet
  facet normal 0 0 -1
    outer loop
      vertex 3 -14 -15
      vertex 45 -8.66025 -15
      vertex 53 -14 -15
    endloop
  endfacet
  facet normal 0 0 -1
    outer loop
      vertex 45 8.66025 -15
      vertex 53 21 -15
      vertex 53 4.04145 -15
    endloop
  endfacet
  facet normal 0 0 -1
    outer loop
      vertex 45 -8.66025 -15
      vertex 3 -3.4641 -15
      vertex 45 8.66025 -15
    endloop
  endfacet
  facet normal 0 0 -1
    outer loop
      vertex 3 3.4641 -15
      vertex 45 8.66025 -15
      vertex 3 -3.4641 -15
    endloop
  endfacet
  facet normal 0 0 -1
    outer loop
      vertex 3 21 -15
      vertex 45 8.66025 -15
      vertex 3 3.4641 -15
    endloop
  endfacet
  facet normal 0 0 -1
    outer loop
      vertex 45 8.66025 -15
      vertex 3 21 -15
      vertex 53 21 -15
    endloop
  endfacet
  facet normal 0 0 -1
    outer loop
      vertex 3 -3.4641 -15
      vertex -4.5 7.79423 -15
      vertex 3 3.4641 -15
    endloop
  endfacet
  facet normal 0 -0 -1
    outer loop
      vertex -4.5 7.79423 -15
      vertex 3 -3.4641 -15
      vertex -4.5 -7.79423 -15
    endloop
  endfacet
  facet normal 0 -1 0
    outer loop
      vertex 3 -14 -15
      vertex 53 -14 15
      vertex 3 -14 15
    endloop
  endfacet
  facet normal 0 -1 -0
    outer loop
      vertex 53 -14 15
      vertex 3 -14 -15
      vertex 53 -14 -15
    endloop
  endfacet
  facet normal 1 -0 0
    outer loop
      vertex 45 -8.66025 15
      vertex 45 8.66025 -15
      vertex 45 8.66025 15
    endloop
  endfacet
  facet normal 1 0 0
    outer loop
      vertex 45 8.66025 -15
      vertex 45 -8.66025 15
      vertex 45 -8.66025 -15
    endloop
  endfacet
  facet normal -0.5 -0.866025 0
    outer loop
      vertex 45 8.66025 -15
      vertex 53 4.04145 15
      vertex 45 8.66025 15
    endloop
  endfacet
  facet normal -0.5 -0.866025 -0
    outer loop
      vertex 53 4.04145 15
      vertex 45 8.66025 -15
      vertex 53 4.04145 -15
    endloop
  endfacet
  facet normal -0.5 0.866025 0
    outer loop
      vertex 53 -4.04145 -15
      vertex 45 -8.66025 15
      vertex 53 -4.04145 15
    endloop
  endfacet
  facet normal -0.5 0.866025 0
    outer loop
      vertex 45 -8.66025 15
      vertex 53 -4.04145 -15
      vertex 45 -8.66025 -15
    endloop
  endfacet
  facet normal 0.999507 -0 0.0314119
    outer loop
      vertex 30.9901 21 0.313952
      vertex 31 35.5 -1.66533e-15
      vertex 30.9901 35.5 0.313952
    endloop
  endfacet
  facet normal 0.999507 6.97484e-18 0.0314119
    outer loop
      vertex 31 35.5 -1.66533e-15
      vertex 30.9901 21 0.313952
      vertex 31 21 1.55431e-15
    endloop
  endfacet
  facet normal -0.999507 6.97484e-18 0.0314119
    outer loop
      vertex 21 21 1.55431e-15
      vertex 21.0099 35.5 0.313952
      vertex 21 35.5 -1.66533e-15
    endloop
  endfacet
  facet normal -0.999507 0 0.0314119
    outer loop
      vertex 21.0099 35.5 0.313952
      vertex 21 21 1.55431e-15
      vertex 21.0099 21 0.313952
    endloop
  endfacet
  facet normal 0.0314118 0 0.999507
    outer loop
      vertex 26 35.5 5
      vertex 26.314 21 4.99013
      vertex 26.314 35.5 4.99013
    endloop
  endfacet
  facet normal 0.0314118 0 0.999507
    outer loop
      vertex 26.314 21 4.99013
      vertex 26 35.5 5
      vertex 26 21 5
    endloop
  endfacet
  facet normal -0.0314118 0 -0.999507
    outer loop
      vertex 25.686 21 -4.99013
      vertex 26 35.5 -5
      vertex 26 21 -5
    endloop
  endfacet
  facet normal -0.0314118 0 -0.999507
    outer loop
      vertex 26 35.5 -5
      vertex 25.686 21 -4.99013
      vertex 25.686 35.5 -4.99013
    endloop
  endfacet
  facet normal 0.707105 0 0.707108
    outer loop
      vertex 29.4227 35.5 3.64484
      vertex 29.6448 21 3.42274
      vertex 29.6448 35.5 3.42274
    endloop
  endfacet
  facet normal 0.707105 0 0.707108
    outer loop
      vertex 29.6448 21 3.42274
      vertex 29.4227 35.5 3.64484
      vertex 29.4227 21 3.64484
    endloop
  endfacet
  facet normal -0.661309 0 0.750113
    outer loop
      vertex 22.5773 35.5 3.64484
      vertex 22.8129 21 3.85257
      vertex 22.8129 35.5 3.85257
    endloop
  endfacet
  facet normal -0.661309 0 0.750113
    outer loop
      vertex 22.8129 21 3.85257
      vertex 22.5773 35.5 3.64484
      vertex 22.5773 21 3.64484
    endloop
  endfacet
  facet normal -0.338741 0 0.94088
    outer loop
      vertex 24.1594 35.5 4.64888
      vertex 24.4549 21 4.75528
      vertex 24.4549 35.5 4.75528
    endloop
  endfacet
  facet normal -0.338741 0 0.94088
    outer loop
      vertex 24.4549 21 4.75528
      vertex 24.1594 35.5 4.64888
      vertex 24.1594 21 4.64888
    endloop
  endfacet
  facet normal 0.917756 -0 0.397145
    outer loop
      vertex 30.5241 21 2.1289
      vertex 30.6489 35.5 1.84062
      vertex 30.5241 35.5 2.1289
    endloop
  endfacet
  facet normal 0.917756 0 0.397145
    outer loop
      vertex 30.6489 35.5 1.84062
      vertex 30.5241 21 2.1289
      vertex 30.6489 21 1.84062
    endloop
  endfacet
  facet normal 0.397149 0 0.917754
    outer loop
      vertex 27.8406 35.5 4.64888
      vertex 28.1289 21 4.52413
      vertex 28.1289 35.5 4.52413
    endloop
  endfacet
  facet normal 0.397149 0 0.917754
    outer loop
      vertex 28.1289 21 4.52413
      vertex 27.8406 35.5 4.64888
      vertex 27.8406 21 4.64888
    endloop
  endfacet
  facet normal 0.562081 0 0.827082
    outer loop
      vertex 28.6791 35.5 4.22164
      vertex 28.9389 21 4.04508
      vertex 28.9389 35.5 4.04508
    endloop
  endfacet
  facet normal 0.562081 0 0.827082
    outer loop
      vertex 28.9389 21 4.04508
      vertex 28.6791 35.5 4.22164
      vertex 28.6791 21 4.22164
    endloop
  endfacet
  facet normal -0.917756 0 0.397145
    outer loop
      vertex 21.3511 21 1.84062
      vertex 21.4759 35.5 2.1289
      vertex 21.3511 35.5 1.84062
    endloop
  endfacet
  facet normal -0.917756 0 0.397145
    outer loop
      vertex 21.4759 35.5 2.1289
      vertex 21.3511 21 1.84062
      vertex 21.4759 21 2.1289
    endloop
  endfacet
  facet normal -0.156435 0 0.987688
    outer loop
      vertex 25.0631 35.5 4.91144
      vertex 25.3733 21 4.96057
      vertex 25.3733 35.5 4.96057
    endloop
  endfacet
  facet normal -0.156435 0 0.987688
    outer loop
      vertex 25.3733 21 4.96057
      vertex 25.0631 35.5 4.91144
      vertex 25.0631 21 4.91144
    endloop
  endfacet
  facet normal 0.975916 -0 0.218146
    outer loop
      vertex 30.8429 21 1.24345
      vertex 30.9114 35.5 0.936906
      vertex 30.8429 35.5 1.24345
    endloop
  endfacet
  facet normal 0.975916 0 0.218146
    outer loop
      vertex 30.9114 35.5 0.936906
      vertex 30.8429 21 1.24345
      vertex 30.9114 21 0.936906
    endloop
  endfacet
  facet normal 0.960295 -0 0.278985
    outer loop
      vertex 30.7553 21 1.54508
      vertex 30.8429 35.5 1.24345
      vertex 30.7553 35.5 1.54508
    endloop
  endfacet
  facet normal 0.960295 0 0.278985
    outer loop
      vertex 30.8429 35.5 1.24345
      vertex 30.7553 21 1.54508
      vertex 30.8429 21 1.24345
    endloop
  endfacet
  facet normal 0.827085 -0 0.562077
    outer loop
      vertex 30.0451 21 2.93893
      vertex 30.2216 35.5 2.67913
      vertex 30.0451 35.5 2.93893
    endloop
  endfacet
  facet normal 0.827085 0 0.562077
    outer loop
      vertex 30.2216 35.5 2.67913
      vertex 30.0451 21 2.93893
      vertex 30.2216 21 2.67913
    endloop
  endfacet
  facet normal 0.891005 -0 0.453993
    outer loop
      vertex 30.3815 21 2.40877
      vertex 30.5241 35.5 2.1289
      vertex 30.3815 35.5 2.40877
    endloop
  endfacet
  facet normal 0.891005 0 0.453993
    outer loop
      vertex 30.5241 35.5 2.1289
      vertex 30.3815 21 2.40877
      vertex 30.5241 21 2.1289
    endloop
  endfacet
  facet normal 0.218142 0 0.975917
    outer loop
      vertex 26.9369 35.5 4.91144
      vertex 27.2435 21 4.84292
      vertex 27.2435 35.5 4.84292
    endloop
  endfacet
  facet normal 0.218142 0 0.975917
    outer loop
      vertex 27.2435 21 4.84292
      vertex 26.9369 35.5 4.91144
      vertex 26.9369 21 4.91144
    endloop
  endfacet
  facet normal 0.338741 0 0.94088
    outer loop
      vertex 27.5451 35.5 4.75528
      vertex 27.8406 21 4.64888
      vertex 27.8406 35.5 4.64888
    endloop
  endfacet
  facet normal 0.338741 0 0.94088
    outer loop
      vertex 27.8406 21 4.64888
      vertex 27.5451 35.5 4.75528
      vertex 27.5451 21 4.75528
    endloop
  endfacet
  facet normal 0.156435 0 0.987688
    outer loop
      vertex 26.6267 35.5 4.96057
      vertex 26.9369 21 4.91144
      vertex 26.9369 35.5 4.91144
    endloop
  endfacet
  facet normal 0.156435 0 0.987688
    outer loop
      vertex 26.9369 21 4.91144
      vertex 26.6267 35.5 4.96057
      vertex 26.6267 21 4.96057
    endloop
  endfacet
  facet normal 0.50904 0 0.860743
    outer loop
      vertex 28.4088 35.5 4.38153
      vertex 28.6791 21 4.22164
      vertex 28.6791 35.5 4.22164
    endloop
  endfacet
  facet normal 0.50904 0 0.860743
    outer loop
      vertex 28.6791 21 4.22164
      vertex 28.4088 35.5 4.38153
      vertex 28.4088 21 4.38153
    endloop
  endfacet
  facet normal 0.612911 0 0.790152
    outer loop
      vertex 28.9389 35.5 4.04508
      vertex 29.1871 21 3.85257
      vertex 29.1871 35.5 3.85257
    endloop
  endfacet
  facet normal 0.612911 0 0.790152
    outer loop
      vertex 29.1871 21 3.85257
      vertex 28.9389 35.5 4.04508
      vertex 28.9389 21 4.04508
    endloop
  endfacet
  facet normal -0.975916 0 0.218146
    outer loop
      vertex 21.0886 21 0.936906
      vertex 21.1571 35.5 1.24345
      vertex 21.0886 35.5 0.936906
    endloop
  endfacet
  facet normal -0.975916 0 0.218146
    outer loop
      vertex 21.1571 35.5 1.24345
      vertex 21.0886 21 0.936906
      vertex 21.1571 21 1.24345
    endloop
  endfacet
  facet normal -0.790153 0 0.61291
    outer loop
      vertex 21.9549 21 2.93893
      vertex 22.1474 35.5 3.18712
      vertex 21.9549 35.5 2.93893
    endloop
  endfacet
  facet normal -0.790153 0 0.61291
    outer loop
      vertex 22.1474 35.5 3.18712
      vertex 21.9549 21 2.93893
      vertex 22.1474 21 3.18712
    endloop
  endfacet
  facet normal -0.707105 0 0.707108
    outer loop
      vertex 22.3552 35.5 3.42274
      vertex 22.5773 21 3.64484
      vertex 22.5773 35.5 3.64484
    endloop
  endfacet
  facet normal -0.707105 0 0.707108
    outer loop
      vertex 22.5773 21 3.64484
      vertex 22.3552 35.5 3.42274
      vertex 22.3552 21 3.42274
    endloop
  endfacet
  facet normal -0.940879 0 0.338742
    outer loop
      vertex 21.2447 21 1.54508
      vertex 21.3511 35.5 1.84062
      vertex 21.2447 35.5 1.54508
    endloop
  endfacet
  facet normal -0.940879 0 0.338742
    outer loop
      vertex 21.3511 35.5 1.84062
      vertex 21.2447 21 1.54508
      vertex 21.3511 21 1.84062
    endloop
  endfacet
  facet normal -0.987688 0 0.156434
    outer loop
      vertex 21.0394 21 0.626666
      vertex 21.0886 35.5 0.936906
      vertex 21.0394 35.5 0.626666
    endloop
  endfacet
  facet normal -0.987688 0 0.156434
    outer loop
      vertex 21.0886 35.5 0.936906
      vertex 21.0394 21 0.626666
      vertex 21.0886 21 0.936906
    endloop
  endfacet
  facet normal -0.50904 0 0.860743
    outer loop
      vertex 23.3209 35.5 4.22164
      vertex 23.5912 21 4.38153
      vertex 23.5912 35.5 4.38153
    endloop
  endfacet
  facet normal -0.50904 0 0.860743
    outer loop
      vertex 23.5912 21 4.38153
      vertex 23.3209 35.5 4.22164
      vertex 23.3209 21 4.22164
    endloop
  endfacet
  facet normal -0.562081 0 0.827082
    outer loop
      vertex 23.0611 35.5 4.04508
      vertex 23.3209 21 4.22164
      vertex 23.3209 35.5 4.22164
    endloop
  endfacet
  facet normal -0.562081 0 0.827082
    outer loop
      vertex 23.3209 21 4.22164
      vertex 23.0611 35.5 4.04508
      vertex 23.0611 21 4.04508
    endloop
  endfacet
  facet normal -0.0941082 0 0.995562
    outer loop
      vertex 25.3733 35.5 4.96057
      vertex 25.686 21 4.99013
      vertex 25.686 35.5 4.99013
    endloop
  endfacet
  facet normal -0.0941082 0 0.995562
    outer loop
      vertex 25.686 21 4.99013
      vertex 25.3733 35.5 4.96057
      vertex 25.3733 21 4.96057
    endloop
  endfacet
  facet normal 0.562081 0 -0.827082
    outer loop
      vertex 28.6791 21 -4.22164
      vertex 28.9389 35.5 -4.04508
      vertex 28.9389 21 -4.04508
    endloop
  endfacet
  facet normal 0.562081 0 -0.827082
    outer loop
      vertex 28.9389 35.5 -4.04508
      vertex 28.6791 21 -4.22164
      vertex 28.6791 35.5 -4.22164
    endloop
  endfacet
  facet normal 0.86074 0 -0.509044
    outer loop
      vertex 30.3815 21 -2.40877
      vertex 30.2216 35.5 -2.67913
      vertex 30.3815 35.5 -2.40877
    endloop
  endfacet
  facet normal 0.86074 0 -0.509044
    outer loop
      vertex 30.2216 35.5 -2.67913
      vertex 30.3815 21 -2.40877
      vertex 30.2216 21 -2.67913
    endloop
  endfacet
  facet normal 0.891005 0 -0.453993
    outer loop
      vertex 30.5241 21 -2.1289
      vertex 30.3815 35.5 -2.40877
      vertex 30.5241 35.5 -2.1289
    endloop
  endfacet
  facet normal 0.891005 0 -0.453993
    outer loop
      vertex 30.3815 35.5 -2.40877
      vertex 30.5241 21 -2.1289
      vertex 30.3815 21 -2.40877
    endloop
  endfacet
  facet normal -0.218142 0 -0.975917
    outer loop
      vertex 24.7565 21 -4.84292
      vertex 25.0631 35.5 -4.91144
      vertex 25.0631 21 -4.91144
    endloop
  endfacet
  facet normal -0.218142 0 -0.975917
    outer loop
      vertex 25.0631 35.5 -4.91144
      vertex 24.7565 21 -4.84292
      vertex 24.7565 35.5 -4.84292
    endloop
  endfacet
  facet normal -0.707105 0 -0.707108
    outer loop
      vertex 22.3552 21 -3.42274
      vertex 22.5773 35.5 -3.64484
      vertex 22.5773 21 -3.64484
    endloop
  endfacet
  facet normal -0.707105 0 -0.707108
    outer loop
      vertex 22.5773 35.5 -3.64484
      vertex 22.3552 21 -3.42274
      vertex 22.3552 35.5 -3.42274
    endloop
  endfacet
  facet normal -0.338741 0 -0.94088
    outer loop
      vertex 24.1594 21 -4.64888
      vertex 24.4549 35.5 -4.75528
      vertex 24.4549 21 -4.75528
    endloop
  endfacet
  facet normal -0.338741 0 -0.94088
    outer loop
      vertex 24.4549 35.5 -4.75528
      vertex 24.1594 21 -4.64888
      vertex 24.1594 35.5 -4.64888
    endloop
  endfacet
  facet normal -0.156435 0 -0.987688
    outer loop
      vertex 25.0631 21 -4.91144
      vertex 25.3733 35.5 -4.96057
      vertex 25.3733 21 -4.96057
    endloop
  endfacet
  facet normal -0.156435 0 -0.987688
    outer loop
      vertex 25.3733 35.5 -4.96057
      vertex 25.0631 21 -4.91144
      vertex 25.0631 35.5 -4.91144
    endloop
  endfacet
  facet normal -0.827085 0 -0.562077
    outer loop
      vertex 21.9549 21 -2.93893
      vertex 21.7784 35.5 -2.67913
      vertex 21.9549 35.5 -2.93893
    endloop
  endfacet
  facet normal -0.827085 -0 -0.562077
    outer loop
      vertex 21.7784 35.5 -2.67913
      vertex 21.9549 21 -2.93893
      vertex 21.7784 21 -2.67913
    endloop
  endfacet
  facet normal 0 1 0
    outer loop
      vertex 26 35.5 2.5
      vertex 26 35.5 5
      vertex 26.314 35.5 4.99013
    endloop
  endfacet
  facet normal 0 1 0
    outer loop
      vertex 26 35.5 2.5
      vertex 26.314 35.5 4.99013
      vertex 26.6267 35.5 4.96057
    endloop
  endfacet
  facet normal 0 1 0
    outer loop
      vertex 26 35.5 5
      vertex 26 35.5 2.5
      vertex 25.686 35.5 4.99013
    endloop
  endfacet
  facet normal 0 1 0
    outer loop
      vertex 26 35.5 2.5
      vertex 26.6267 35.5 4.96057
      vertex 26.9369 35.5 4.91144
    endloop
  endfacet
  facet normal 0 1 0
    outer loop
      vertex 25.686 35.5 4.99013
      vertex 26 35.5 2.5
      vertex 25.3733 35.5 4.96057
    endloop
  endfacet
  facet normal 0 1 0
    outer loop
      vertex 26 35.5 2.5
      vertex 26.9369 35.5 4.91144
      vertex 27.2435 35.5 4.84292
    endloop
  endfacet
  facet normal 0 1 0
    outer loop
      vertex 25.3733 35.5 4.96057
      vertex 26 35.5 2.5
      vertex 25.0631 35.5 4.91144
    endloop
  endfacet
  facet normal 0 1 0
    outer loop
      vertex 26 35.5 2.5
      vertex 27.2435 35.5 4.84292
      vertex 27.5451 35.5 4.75528
    endloop
  endfacet
  facet normal 0 1 0
    outer loop
      vertex 25.0631 35.5 4.91144
      vertex 26 35.5 2.5
      vertex 24.7565 35.5 4.84292
    endloop
  endfacet
  facet normal 0 1 0
    outer loop
      vertex 26 35.5 2.5
      vertex 27.5451 35.5 4.75528
      vertex 27.8406 35.5 4.64888
    endloop
  endfacet
  facet normal 0 1 0
    outer loop
      vertex 24.7565 35.5 4.84292
      vertex 26 35.5 2.5
      vertex 24.4549 35.5 4.75528
    endloop
  endfacet
  facet normal 0 1 0
    outer loop
      vertex 27.7678 35.5 1.76777
      vertex 27.8406 35.5 4.64888
      vertex 28.1289 35.5 4.52413
    endloop
  endfacet
  facet normal 0 1 0
    outer loop
      vertex 24.4549 35.5 4.75528
      vertex 26 35.5 2.5
      vertex 24.1594 35.5 4.64888
    endloop
  endfacet
  facet normal 0 1 0
    outer loop
      vertex 27.7678 35.5 1.76777
      vertex 28.1289 35.5 4.52413
      vertex 28.4088 35.5 4.38153
    endloop
  endfacet
  facet normal 0 1 -0
    outer loop
      vertex 24.2322 35.5 1.76777
      vertex 24.1594 35.5 4.64888
      vertex 26 35.5 2.5
    endloop
  endfacet
  facet normal 0 1 0
    outer loop
      vertex 27.7678 35.5 1.76777
      vertex 28.4088 35.5 4.38153
      vertex 28.6791 35.5 4.22164
    endloop
  endfacet
  facet normal 0 1 0
    outer loop
      vertex 24.1594 35.5 4.64888
      vertex 24.2322 35.5 1.76777
      vertex 23.8711 35.5 4.52413
    endloop
  endfacet
  facet normal 0 1 0
    outer loop
      vertex 27.7678 35.5 1.76777
      vertex 28.6791 35.5 4.22164
      vertex 28.9389 35.5 4.04508
    endloop
  endfacet
  facet normal 0 1 0
    outer loop
      vertex 23.8711 35.5 4.52413
      vertex 24.2322 35.5 1.76777
      vertex 23.5912 35.5 4.38153
    endloop
  endfacet
  facet normal 0 1 0
    outer loop
      vertex 27.7678 35.5 1.76777
      vertex 28.9389 35.5 4.04508
      vertex 29.1871 35.5 3.85257
    endloop
  endfacet
  facet normal 0 1 0
    outer loop
      vertex 23.5912 35.5 4.38153
      vertex 24.2322 35.5 1.76777
      vertex 23.3209 35.5 4.22164
    endloop
  endfacet
  facet normal 0 1 0
    outer loop
      vertex 27.7678 35.5 1.76777
      vertex 29.1871 35.5 3.85257
      vertex 29.4227 35.5 3.64484
    endloop
  endfacet
  facet normal 0 1 0
    outer loop
      vertex 23.3209 35.5 4.22164
      vertex 24.2322 35.5 1.76777
      vertex 23.0611 35.5 4.04508
    endloop
  endfacet
  facet normal 0 1 0
    outer loop
      vertex 27.7678 35.5 1.76777
      vertex 29.4227 35.5 3.64484
      vertex 29.6448 35.5 3.42274
    endloop
  endfacet
  facet normal 0 1 0
    outer loop
      vertex 23.0611 35.5 4.04508
      vertex 24.2322 35.5 1.76777
      vertex 22.8129 35.5 3.85257
    endloop
  endfacet
  facet normal 0 1 0
    outer loop
      vertex 27.7678 35.5 1.76777
      vertex 29.6448 35.5 3.42274
      vertex 29.8526 35.5 3.18712
    endloop
  endfacet
  facet normal 0 1 0
    outer loop
      vertex 22.8129 35.5 3.85257
      vertex 24.2322 35.5 1.76777
      vertex 22.5773 35.5 3.64484
    endloop
  endfacet
  facet normal 0 1 0
    outer loop
      vertex 27.7678 35.5 1.76777
      vertex 29.8526 35.5 3.18712
      vertex 30.0451 35.5 2.93893
    endloop
  endfacet
  facet normal 0 1 0
    outer loop
      vertex 22.5773 35.5 3.64484
      vertex 24.2322 35.5 1.76777
      vertex 22.3552 35.5 3.42274
    endloop
  endfacet
  facet normal 0 1 0
    outer loop
      vertex 27.7678 35.5 1.76777
      vertex 30.0451 35.5 2.93893
      vertex 30.2216 35.5 2.67913
    endloop
  endfacet
  facet normal 0 1 0
    outer loop
      vertex 22.3552 35.5 3.42274
      vertex 24.2322 35.5 1.76777
      vertex 22.1474 35.5 3.18712
    endloop
  endfacet
  facet normal 0 1 0
    outer loop
      vertex 22.1474 35.5 3.18712
      vertex 24.2322 35.5 1.76777
      vertex 21.9549 35.5 2.93893
    endloop
  endfacet
  facet normal 0 1 0
    outer loop
      vertex 27.7678 35.5 1.76777
      vertex 30.2216 35.5 2.67913
      vertex 30.3815 35.5 2.40877
    endloop
  endfacet
  facet normal 0 1 0
    outer loop
      vertex 27.7678 35.5 1.76777
      vertex 30.3815 35.5 2.40877
      vertex 30.5241 35.5 2.1289
    endloop
  endfacet
  facet normal 0 1 0
    outer loop
      vertex 27.7678 35.5 1.76777
      vertex 30.5241 35.5 2.1289
      vertex 30.6489 35.5 1.84062
    endloop
  endfacet
  facet normal 0 1 0
    outer loop
      vertex 27.8406 35.5 4.64888
      vertex 27.7678 35.5 1.76777
      vertex 26 35.5 2.5
    endloop
  endfacet
  facet normal 0 1 0
    outer loop
      vertex 28.5 35.5 -1.66533e-15
      vertex 30.6489 35.5 1.84062
      vertex 30.7553 35.5 1.54508
    endloop
  endfacet
  facet normal 0 1 0
    outer loop
      vertex 28.5 35.5 -1.66533e-15
      vertex 30.7553 35.5 1.54508
      vertex 30.8429 35.5 1.24345
    endloop
  endfacet
  facet normal 0 1 0
    outer loop
      vertex 28.5 35.5 -1.66533e-15
      vertex 30.8429 35.5 1.24345
      vertex 30.9114 35.5 0.936906
    endloop
  endfacet
  facet normal 0 1 0
    outer loop
      vertex 28.5 35.5 -1.66533e-15
      vertex 30.9114 35.5 0.936906
      vertex 30.9606 35.5 0.626666
    endloop
  endfacet
  facet normal 0 1 0
    outer loop
      vertex 28.5 35.5 -1.66533e-15
      vertex 30.9606 35.5 0.626666
      vertex 30.9901 35.5 0.313952
    endloop
  endfacet
  facet normal 0 1 0
    outer loop
      vertex 28.5 35.5 -1.66533e-15
      vertex 30.9901 35.5 0.313952
      vertex 31 35.5 -1.66533e-15
    endloop
  endfacet
  facet normal 0 1 0
    outer loop
      vertex 30.6489 35.5 1.84062
      vertex 28.5 35.5 -1.66533e-15
      vertex 27.7678 35.5 1.76777
    endloop
  endfacet
  facet normal 0 1 -0
    outer loop
      vertex 30.9901 35.5 -0.313952
      vertex 28.5 35.5 -1.66533e-15
      vertex 31 35.5 -1.66533e-15
    endloop
  endfacet
  facet normal 0 1 -0
    outer loop
      vertex 30.9606 35.5 -0.626666
      vertex 28.5 35.5 -1.66533e-15
      vertex 30.9901 35.5 -0.313952
    endloop
  endfacet
  facet normal 0 1 -0
    outer loop
      vertex 30.9114 35.5 -0.936906
      vertex 28.5 35.5 -1.66533e-15
      vertex 30.9606 35.5 -0.626666
    endloop
  endfacet
  facet normal 0 1 -0
    outer loop
      vertex 30.8429 35.5 -1.24345
      vertex 28.5 35.5 -1.66533e-15
      vertex 30.9114 35.5 -0.936906
    endloop
  endfacet
  facet normal 0 1 -0
    outer loop
      vertex 30.7553 35.5 -1.54508
      vertex 28.5 35.5 -1.66533e-15
      vertex 30.8429 35.5 -1.24345
    endloop
  endfacet
  facet normal 0 1 -0
    outer loop
      vertex 30.6489 35.5 -1.84062
      vertex 28.5 35.5 -1.66533e-15
      vertex 30.7553 35.5 -1.54508
    endloop
  endfacet
  facet normal 0 1 0
    outer loop
      vertex 28.5 35.5 -1.66533e-15
      vertex 30.6489 35.5 -1.84062
      vertex 27.7678 35.5 -1.76777
    endloop
  endfacet
  facet normal 0 1 -0
    outer loop
      vertex 30.5241 35.5 -2.1289
      vertex 27.7678 35.5 -1.76777
      vertex 30.6489 35.5 -1.84062
    endloop
  endfacet
  facet normal 0 1 -0
    outer loop
      vertex 30.3815 35.5 -2.40877
      vertex 27.7678 35.5 -1.76777
      vertex 30.5241 35.5 -2.1289
    endloop
  endfacet
  facet normal 0 1 -0
    outer loop
      vertex 30.2216 35.5 -2.67913
      vertex 27.7678 35.5 -1.76777
      vertex 30.3815 35.5 -2.40877
    endloop
  endfacet
  facet normal 0 1 -0
    outer loop
      vertex 30.0451 35.5 -2.93893
      vertex 27.7678 35.5 -1.76777
      vertex 30.2216 35.5 -2.67913
    endloop
  endfacet
  facet normal 0 1 0
    outer loop
      vertex 21.9549 35.5 2.93893
      vertex 24.2322 35.5 1.76777
      vertex 21.7784 35.5 2.67913
    endloop
  endfacet
  facet normal 0 1 0
    outer loop
      vertex 21.7784 35.5 2.67913
      vertex 24.2322 35.5 1.76777
      vertex 21.6185 35.5 2.40877
    endloop
  endfacet
  facet normal 0 1 0
    outer loop
      vertex 21.6185 35.5 2.40877
      vertex 24.2322 35.5 1.76777
      vertex 21.4759 35.5 2.1289
    endloop
  endfacet
  facet normal 0 1 0
    outer loop
      vertex 21.4759 35.5 2.1289
      vertex 24.2322 35.5 1.76777
      vertex 21.3511 35.5 1.84062
    endloop
  endfacet
  facet normal 0 1 -0
    outer loop
      vertex 23.5 35.5 -1.66533e-15
      vertex 21.3511 35.5 1.84062
      vertex 24.2322 35.5 1.76777
    endloop
  endfacet
  facet normal 0 1 0
    outer loop
      vertex 21.3511 35.5 1.84062
      vertex 23.5 35.5 -1.66533e-15
      vertex 21.2447 35.5 1.54508
    endloop
  endfacet
  facet normal 0 1 0
    outer loop
      vertex 21.2447 35.5 1.54508
      vertex 23.5 35.5 -1.66533e-15
      vertex 21.1571 35.5 1.24345
    endloop
  endfacet
  facet normal 0 1 0
    outer loop
      vertex 21.1571 35.5 1.24345
      vertex 23.5 35.5 -1.66533e-15
      vertex 21.0886 35.5 0.936906
    endloop
  endfacet
  facet normal 0 1 0
    outer loop
      vertex 21.0886 35.5 0.936906
      vertex 23.5 35.5 -1.66533e-15
      vertex 21.0394 35.5 0.626666
    endloop
  endfacet
  facet normal 0 1 0
    outer loop
      vertex 21.0394 35.5 0.626666
      vertex 23.5 35.5 -1.66533e-15
      vertex 21.0099 35.5 0.313952
    endloop
  endfacet
  facet normal 0 1 0
    outer loop
      vertex 23.5 35.5 -1.66533e-15
      vertex 21 35.5 -1.66533e-15
      vertex 21.0099 35.5 0.313952
    endloop
  endfacet
  facet normal 0 1 0
    outer loop
      vertex 23.5 35.5 -1.66533e-15
      vertex 21.0099 35.5 -0.313952
      vertex 21 35.5 -1.66533e-15
    endloop
  endfacet
  facet normal 0 1 0
    outer loop
      vertex 23.5 35.5 -1.66533e-15
      vertex 21.0394 35.5 -0.626666
      vertex 21.0099 35.5 -0.313952
    endloop
  endfacet
  facet normal 0 1 0
    outer loop
      vertex 23.5 35.5 -1.66533e-15
      vertex 21.0886 35.5 -0.936906
      vertex 21.0394 35.5 -0.626666
    endloop
  endfacet
  facet normal 0 1 0
    outer loop
      vertex 23.5 35.5 -1.66533e-15
      vertex 21.1571 35.5 -1.24345
      vertex 21.0886 35.5 -0.936906
    endloop
  endfacet
  facet normal 0 1 0
    outer loop
      vertex 23.5 35.5 -1.66533e-15
      vertex 21.2447 35.5 -1.54508
      vertex 21.1571 35.5 -1.24345
    endloop
  endfacet
  facet normal 0 1 0
    outer loop
      vertex 21.3511 35.5 -1.84062
      vertex 23.5 35.5 -1.66533e-15
      vertex 24.2322 35.5 -1.76777
    endloop
  endfacet
  facet normal 0 1 0
    outer loop
      vertex 23.5 35.5 -1.66533e-15
      vertex 21.3511 35.5 -1.84062
      vertex 21.2447 35.5 -1.54508
    endloop
  endfacet
  facet normal 0 1 0
    outer loop
      vertex 24.2322 35.5 -1.76777
      vertex 21.4759 35.5 -2.1289
      vertex 21.3511 35.5 -1.84062
    endloop
  endfacet
  facet normal 0 1 0
    outer loop
      vertex 24.2322 35.5 -1.76777
      vertex 21.6185 35.5 -2.40877
      vertex 21.4759 35.5 -2.1289
    endloop
  endfacet
  facet normal 0 1 0
    outer loop
      vertex 24.1594 35.5 -4.64888
      vertex 24.2322 35.5 -1.76777
      vertex 26 35.5 -2.5
    endloop
  endfacet
  facet normal 0 1 -0
    outer loop
      vertex 29.8526 35.5 -3.18712
      vertex 27.7678 35.5 -1.76777
      vertex 30.0451 35.5 -2.93893
    endloop
  endfacet
  facet normal 0 1 0
    outer loop
      vertex 24.2322 35.5 -1.76777
      vertex 21.7784 35.5 -2.67913
      vertex 21.6185 35.5 -2.40877
    endloop
  endfacet
  facet normal 0 1 -0
    outer loop
      vertex 29.6448 35.5 -3.42274
      vertex 27.7678 35.5 -1.76777
      vertex 29.8526 35.5 -3.18712
    endloop
  endfacet
  facet normal 0 1 0
    outer loop
      vertex 24.2322 35.5 -1.76777
      vertex 21.9549 35.5 -2.93893
      vertex 21.7784 35.5 -2.67913
    endloop
  endfacet
  facet normal 0 1 -0
    outer loop
      vertex 29.4227 35.5 -3.64484
      vertex 27.7678 35.5 -1.76777
      vertex 29.6448 35.5 -3.42274
    endloop
  endfacet
  facet normal 0 1 0
    outer loop
      vertex 24.2322 35.5 -1.76777
      vertex 22.1474 35.5 -3.18712
      vertex 21.9549 35.5 -2.93893
    endloop
  endfacet
  facet normal 0 1 -0
    outer loop
      vertex 29.1871 35.5 -3.85257
      vertex 27.7678 35.5 -1.76777
      vertex 29.4227 35.5 -3.64484
    endloop
  endfacet
  facet normal 0 1 0
    outer loop
      vertex 24.2322 35.5 -1.76777
      vertex 22.3552 35.5 -3.42274
      vertex 22.1474 35.5 -3.18712
    endloop
  endfacet
  facet normal 0 1 -0
    outer loop
      vertex 28.9389 35.5 -4.04508
      vertex 27.7678 35.5 -1.76777
      vertex 29.1871 35.5 -3.85257
    endloop
  endfacet
  facet normal 0 1 0
    outer loop
      vertex 24.2322 35.5 -1.76777
      vertex 22.5773 35.5 -3.64484
      vertex 22.3552 35.5 -3.42274
    endloop
  endfacet
  facet normal 0 1 -0
    outer loop
      vertex 28.6791 35.5 -4.22164
      vertex 27.7678 35.5 -1.76777
      vertex 28.9389 35.5 -4.04508
    endloop
  endfacet
  facet normal 0 1 0
    outer loop
      vertex 24.2322 35.5 -1.76777
      vertex 22.8129 35.5 -3.85257
      vertex 22.5773 35.5 -3.64484
    endloop
  endfacet
  facet normal 0 1 -0
    outer loop
      vertex 28.4088 35.5 -4.38153
      vertex 27.7678 35.5 -1.76777
      vertex 28.6791 35.5 -4.22164
    endloop
  endfacet
  facet normal 0 1 0
    outer loop
      vertex 24.2322 35.5 -1.76777
      vertex 23.0611 35.5 -4.04508
      vertex 22.8129 35.5 -3.85257
    endloop
  endfacet
  facet normal 0 1 -0
    outer loop
      vertex 28.1289 35.5 -4.52413
      vertex 27.7678 35.5 -1.76777
      vertex 28.4088 35.5 -4.38153
    endloop
  endfacet
  facet normal 0 1 0
    outer loop
      vertex 24.2322 35.5 -1.76777
      vertex 23.3209 35.5 -4.22164
      vertex 23.0611 35.5 -4.04508
    endloop
  endfacet
  facet normal 0 1 -0
    outer loop
      vertex 27.8406 35.5 -4.64888
      vertex 27.7678 35.5 -1.76777
      vertex 28.1289 35.5 -4.52413
    endloop
  endfacet
  facet normal 0 1 0
    outer loop
      vertex 24.2322 35.5 -1.76777
      vertex 23.5912 35.5 -4.38153
      vertex 23.3209 35.5 -4.22164
    endloop
  endfacet
  facet normal 0 1 0
    outer loop
      vertex 27.7678 35.5 -1.76777
      vertex 27.8406 35.5 -4.64888
      vertex 26 35.5 -2.5
    endloop
  endfacet
  facet normal 0 1 0
    outer loop
      vertex 24.2322 35.5 -1.76777
      vertex 23.8711 35.5 -4.52413
      vertex 23.5912 35.5 -4.38153
    endloop
  endfacet
  facet normal 0 1 -0
    outer loop
      vertex 27.5451 35.5 -4.75528
      vertex 26 35.5 -2.5
      vertex 27.8406 35.5 -4.64888
    endloop
  endfacet
  facet normal 0 1 0
    outer loop
      vertex 24.2322 35.5 -1.76777
      vertex 24.1594 35.5 -4.64888
      vertex 23.8711 35.5 -4.52413
    endloop
  endfacet
  facet normal 0 1 -0
    outer loop
      vertex 27.2435 35.5 -4.84292
      vertex 26 35.5 -2.5
      vertex 27.5451 35.5 -4.75528
    endloop
  endfacet
  facet normal 0 1 0
    outer loop
      vertex 26 35.5 -2.5
      vertex 24.4549 35.5 -4.75528
      vertex 24.1594 35.5 -4.64888
    endloop
  endfacet
  facet normal 0 1 -0
    outer loop
      vertex 26.9369 35.5 -4.91144
      vertex 26 35.5 -2.5
      vertex 27.2435 35.5 -4.84292
    endloop
  endfacet
  facet normal 0 1 0
    outer loop
      vertex 26 35.5 -2.5
      vertex 24.7565 35.5 -4.84292
      vertex 24.4549 35.5 -4.75528
    endloop
  endfacet
  facet normal 0 1 -0
    outer loop
      vertex 26.6267 35.5 -4.96057
      vertex 26 35.5 -2.5
      vertex 26.9369 35.5 -4.91144
    endloop
  endfacet
  facet normal 0 1 0
    outer loop
      vertex 26 35.5 -2.5
      vertex 25.0631 35.5 -4.91144
      vertex 24.7565 35.5 -4.84292
    endloop
  endfacet
  facet normal 0 1 -0
    outer loop
      vertex 26.314 35.5 -4.99013
      vertex 26 35.5 -2.5
      vertex 26.6267 35.5 -4.96057
    endloop
  endfacet
  facet normal 0 1 0
    outer loop
      vertex 26 35.5 -2.5
      vertex 25.3733 35.5 -4.96057
      vertex 25.0631 35.5 -4.91144
    endloop
  endfacet
  facet normal 0 1 0
    outer loop
      vertex 26 35.5 -5
      vertex 26 35.5 -2.5
      vertex 26.314 35.5 -4.99013
    endloop
  endfacet
  facet normal 0 1 0
    outer loop
      vertex 26 35.5 -2.5
      vertex 25.686 35.5 -4.99013
      vertex 25.3733 35.5 -4.96057
    endloop
  endfacet
  facet normal 0 1 0
    outer loop
      vertex 26 35.5 -2.5
      vertex 26 35.5 -5
      vertex 25.686 35.5 -4.99013
    endloop
  endfacet
  facet normal 0.987688 -0 0.156434
    outer loop
      vertex 30.9114 21 0.936906
      vertex 30.9606 35.5 0.626666
      vertex 30.9114 35.5 0.936906
    endloop
  endfacet
  facet normal 0.987688 0 0.156434
    outer loop
      vertex 30.9606 35.5 0.626666
      vertex 30.9114 21 0.936906
      vertex 30.9606 21 0.626666
    endloop
  endfacet
  facet normal 0.995562 -0 0.0941082
    outer loop
      vertex 30.9606 21 0.626666
      vertex 30.9901 35.5 0.313952
      vertex 30.9606 35.5 0.626666
    endloop
  endfacet
  facet normal 0.995562 0 0.0941082
    outer loop
      vertex 30.9901 35.5 0.313952
      vertex 30.9606 21 0.626666
      vertex 30.9901 21 0.313952
    endloop
  endfacet
  facet normal 0.940879 -0 0.338742
    outer loop
      vertex 30.6489 21 1.84062
      vertex 30.7553 35.5 1.54508
      vertex 30.6489 35.5 1.84062
    endloop
  endfacet
  facet normal 0.940879 0 0.338742
    outer loop
      vertex 30.7553 35.5 1.54508
      vertex 30.6489 21 1.84062
      vertex 30.7553 21 1.54508
    endloop
  endfacet
  facet normal 0.790153 -0 0.61291
    outer loop
      vertex 29.8526 21 3.18712
      vertex 30.0451 35.5 2.93893
      vertex 29.8526 35.5 3.18712
    endloop
  endfacet
  facet normal 0.790153 0 0.61291
    outer loop
      vertex 30.0451 35.5 2.93893
      vertex 29.8526 21 3.18712
      vertex 30.0451 21 2.93893
    endloop
  endfacet
  facet normal 0.750113 -0 0.661309
    outer loop
      vertex 29.6448 21 3.42274
      vertex 29.8526 35.5 3.18712
      vertex 29.6448 35.5 3.42274
    endloop
  endfacet
  facet normal 0.750113 0 0.661309
    outer loop
      vertex 29.8526 35.5 3.18712
      vertex 29.6448 21 3.42274
      vertex 29.8526 21 3.18712
    endloop
  endfacet
  facet normal 0.86074 -0 0.509044
    outer loop
      vertex 30.2216 21 2.67913
      vertex 30.3815 35.5 2.40877
      vertex 30.2216 35.5 2.67913
    endloop
  endfacet
  facet normal 0.86074 0 0.509044
    outer loop
      vertex 30.3815 35.5 2.40877
      vertex 30.2216 21 2.67913
      vertex 30.3815 21 2.40877
    endloop
  endfacet
  facet normal 0.278991 0 0.960294
    outer loop
      vertex 27.2435 35.5 4.84292
      vertex 27.5451 21 4.75528
      vertex 27.5451 35.5 4.75528
    endloop
  endfacet
  facet normal 0.278991 0 0.960294
    outer loop
      vertex 27.5451 21 4.75528
      vertex 27.2435 35.5 4.84292
      vertex 27.2435 21 4.84292
    endloop
  endfacet
  facet normal 0.0941082 0 0.995562
    outer loop
      vertex 26.314 35.5 4.99013
      vertex 26.6267 21 4.96057
      vertex 26.6267 35.5 4.96057
    endloop
  endfacet
  facet normal 0.0941082 0 0.995562
    outer loop
      vertex 26.6267 21 4.96057
      vertex 26.314 35.5 4.99013
      vertex 26.314 21 4.99013
    endloop
  endfacet
  facet normal 0.45399 0 0.891007
    outer loop
      vertex 28.1289 35.5 4.52413
      vertex 28.4088 21 4.38153
      vertex 28.4088 35.5 4.38153
    endloop
  endfacet
  facet normal 0.45399 0 0.891007
    outer loop
      vertex 28.4088 21 4.38153
      vertex 28.1289 35.5 4.52413
      vertex 28.1289 21 4.52413
    endloop
  endfacet
  facet normal 0.661309 0 0.750113
    outer loop
      vertex 29.1871 35.5 3.85257
      vertex 29.4227 21 3.64484
      vertex 29.4227 35.5 3.64484
    endloop
  endfacet
  facet normal 0.661309 0 0.750113
    outer loop
      vertex 29.4227 21 3.64484
      vertex 29.1871 35.5 3.85257
      vertex 29.1871 21 3.85257
    endloop
  endfacet
  facet normal -0.750113 0 0.661309
    outer loop
      vertex 22.1474 21 3.18712
      vertex 22.3552 35.5 3.42274
      vertex 22.1474 35.5 3.18712
    endloop
  endfacet
  facet normal -0.750113 0 0.661309
    outer loop
      vertex 22.3552 35.5 3.42274
      vertex 22.1474 21 3.18712
      vertex 22.3552 21 3.42274
    endloop
  endfacet
  facet normal -0.86074 0 0.509044
    outer loop
      vertex 21.6185 21 2.40877
      vertex 21.7784 35.5 2.67913
      vertex 21.6185 35.5 2.40877
    endloop
  endfacet
  facet normal -0.86074 0 0.509044
    outer loop
      vertex 21.7784 35.5 2.67913
      vertex 21.6185 21 2.40877
      vertex 21.7784 21 2.67913
    endloop
  endfacet
  facet normal -0.891005 0 0.453993
    outer loop
      vertex 21.4759 21 2.1289
      vertex 21.6185 35.5 2.40877
      vertex 21.4759 35.5 2.1289
    endloop
  endfacet
  facet normal -0.891005 0 0.453993
    outer loop
      vertex 21.6185 35.5 2.40877
      vertex 21.4759 21 2.1289
      vertex 21.6185 21 2.40877
    endloop
  endfacet
  facet normal -0.827085 0 0.562077
    outer loop
      vertex 21.7784 21 2.67913
      vertex 21.9549 35.5 2.93893
      vertex 21.7784 35.5 2.67913
    endloop
  endfacet
  facet normal -0.827085 0 0.562077
    outer loop
      vertex 21.9549 35.5 2.93893
      vertex 21.7784 21 2.67913
      vertex 21.9549 21 2.93893
    endloop
  endfacet
  facet normal -0.960295 0 0.278985
    outer loop
      vertex 21.1571 21 1.24345
      vertex 21.2447 35.5 1.54508
      vertex 21.1571 35.5 1.24345
    endloop
  endfacet
  facet normal -0.960295 0 0.278985
    outer loop
      vertex 21.2447 35.5 1.54508
      vertex 21.1571 21 1.24345
      vertex 21.2447 21 1.54508
    endloop
  endfacet
  facet normal -0.995562 0 0.0941082
    outer loop
      vertex 21.0099 21 0.313952
      vertex 21.0394 35.5 0.626666
      vertex 21.0099 35.5 0.313952
    endloop
  endfacet
  facet normal -0.995562 0 0.0941082
    outer loop
      vertex 21.0394 35.5 0.626666
      vertex 21.0099 21 0.313952
      vertex 21.0394 21 0.626666
    endloop
  endfacet
  facet normal -0.45399 0 0.891007
    outer loop
      vertex 23.5912 35.5 4.38153
      vertex 23.8711 21 4.52413
      vertex 23.8711 35.5 4.52413
    endloop
  endfacet
  facet normal -0.45399 0 0.891007
    outer loop
      vertex 23.8711 21 4.52413
      vertex 23.5912 35.5 4.38153
      vertex 23.5912 21 4.38153
    endloop
  endfacet
  facet normal -0.397149 0 0.917754
    outer loop
      vertex 23.8711 35.5 4.52413
      vertex 24.1594 21 4.64888
      vertex 24.1594 35.5 4.64888
    endloop
  endfacet
  facet normal -0.397149 0 0.917754
    outer loop
      vertex 24.1594 21 4.64888
      vertex 23.8711 35.5 4.52413
      vertex 23.8711 21 4.52413
    endloop
  endfacet
  facet normal -0.612911 0 0.790152
    outer loop
      vertex 22.8129 35.5 3.85257
      vertex 23.0611 21 4.04508
      vertex 23.0611 35.5 4.04508
    endloop
  endfacet
  facet normal -0.612911 0 0.790152
    outer loop
      vertex 23.0611 21 4.04508
      vertex 22.8129 35.5 3.85257
      vertex 22.8129 21 3.85257
    endloop
  endfacet
  facet normal -0.218142 0 0.975917
    outer loop
      vertex 24.7565 35.5 4.84292
      vertex 25.0631 21 4.91144
      vertex 25.0631 35.5 4.91144
    endloop
  endfacet
  facet normal -0.218142 0 0.975917
    outer loop
      vertex 25.0631 21 4.91144
      vertex 24.7565 35.5 4.84292
      vertex 24.7565 21 4.84292
    endloop
  endfacet
  facet normal -0.278991 0 0.960294
    outer loop
      vertex 24.4549 35.5 4.75528
      vertex 24.7565 21 4.84292
      vertex 24.7565 35.5 4.84292
    endloop
  endfacet
  facet normal -0.278991 0 0.960294
    outer loop
      vertex 24.7565 21 4.84292
      vertex 24.4549 35.5 4.75528
      vertex 24.4549 21 4.75528
    endloop
  endfacet
  facet normal -0.0314118 0 0.999507
    outer loop
      vertex 25.686 35.5 4.99013
      vertex 26 21 5
      vertex 26 35.5 5
    endloop
  endfacet
  facet normal -0.0314118 0 0.999507
    outer loop
      vertex 26 21 5
      vertex 25.686 35.5 4.99013
      vertex 25.686 21 4.99013
    endloop
  endfacet
  facet normal 0.0314118 0 -0.999507
    outer loop
      vertex 26 21 -5
      vertex 26.314 35.5 -4.99013
      vertex 26.314 21 -4.99013
    endloop
  endfacet
  facet normal 0.0314118 0 -0.999507
    outer loop
      vertex 26.314 35.5 -4.99013
      vertex 26 21 -5
      vertex 26 35.5 -5
    endloop
  endfacet
  facet normal 0.156435 0 -0.987688
    outer loop
      vertex 26.6267 21 -4.96057
      vertex 26.9369 35.5 -4.91144
      vertex 26.9369 21 -4.91144
    endloop
  endfacet
  facet normal 0.156435 0 -0.987688
    outer loop
      vertex 26.9369 35.5 -4.91144
      vertex 26.6267 21 -4.96057
      vertex 26.6267 35.5 -4.96057
    endloop
  endfacet
  facet normal 0.338741 0 -0.94088
    outer loop
      vertex 27.5451 21 -4.75528
      vertex 27.8406 35.5 -4.64888
      vertex 27.8406 21 -4.64888
    endloop
  endfacet
  facet normal 0.338741 0 -0.94088
    outer loop
      vertex 27.8406 35.5 -4.64888
      vertex 27.5451 21 -4.75528
      vertex 27.5451 35.5 -4.75528
    endloop
  endfacet
  facet normal 0.218142 0 -0.975917
    outer loop
      vertex 26.9369 21 -4.91144
      vertex 27.2435 35.5 -4.84292
      vertex 27.2435 21 -4.84292
    endloop
  endfacet
  facet normal 0.218142 0 -0.975917
    outer loop
      vertex 27.2435 35.5 -4.84292
      vertex 26.9369 21 -4.91144
      vertex 26.9369 35.5 -4.91144
    endloop
  endfacet
  facet normal 0.612911 0 -0.790152
    outer loop
      vertex 28.9389 21 -4.04508
      vertex 29.1871 35.5 -3.85257
      vertex 29.1871 21 -3.85257
    endloop
  endfacet
  facet normal 0.612911 0 -0.790152
    outer loop
      vertex 29.1871 35.5 -3.85257
      vertex 28.9389 21 -4.04508
      vertex 28.9389 35.5 -4.04508
    endloop
  endfacet
  facet normal 0.707105 0 -0.707108
    outer loop
      vertex 29.4227 21 -3.64484
      vertex 29.6448 35.5 -3.42274
      vertex 29.6448 21 -3.42274
    endloop
  endfacet
  facet normal 0.707105 0 -0.707108
    outer loop
      vertex 29.6448 35.5 -3.42274
      vertex 29.4227 21 -3.64484
      vertex 29.4227 35.5 -3.64484
    endloop
  endfacet
  facet normal 0.50904 0 -0.860743
    outer loop
      vertex 28.4088 21 -4.38153
      vertex 28.6791 35.5 -4.22164
      vertex 28.6791 21 -4.22164
    endloop
  endfacet
  facet normal 0.50904 0 -0.860743
    outer loop
      vertex 28.6791 35.5 -4.22164
      vertex 28.4088 21 -4.38153
      vertex 28.4088 35.5 -4.38153
    endloop
  endfacet
  facet normal 0.397149 0 -0.917754
    outer loop
      vertex 27.8406 21 -4.64888
      vertex 28.1289 35.5 -4.52413
      vertex 28.1289 21 -4.52413
    endloop
  endfacet
  facet normal 0.397149 0 -0.917754
    outer loop
      vertex 28.1289 35.5 -4.52413
      vertex 27.8406 21 -4.64888
      vertex 27.8406 35.5 -4.64888
    endloop
  endfacet
  facet normal 0.750113 0 -0.661309
    outer loop
      vertex 29.8526 21 -3.18712
      vertex 29.6448 35.5 -3.42274
      vertex 29.8526 35.5 -3.18712
    endloop
  endfacet
  facet normal 0.750113 0 -0.661309
    outer loop
      vertex 29.6448 35.5 -3.42274
      vertex 29.8526 21 -3.18712
      vertex 29.6448 21 -3.42274
    endloop
  endfacet
  facet normal 0.827085 0 -0.562077
    outer loop
      vertex 30.2216 21 -2.67913
      vertex 30.0451 35.5 -2.93893
      vertex 30.2216 35.5 -2.67913
    endloop
  endfacet
  facet normal 0.827085 0 -0.562077
    outer loop
      vertex 30.0451 35.5 -2.93893
      vertex 30.2216 21 -2.67913
      vertex 30.0451 21 -2.93893
    endloop
  endfacet
  facet normal 0.917756 0 -0.397145
    outer loop
      vertex 30.6489 21 -1.84062
      vertex 30.5241 35.5 -2.1289
      vertex 30.6489 35.5 -1.84062
    endloop
  endfacet
  facet normal 0.917756 0 -0.397145
    outer loop
      vertex 30.5241 35.5 -2.1289
      vertex 30.6489 21 -1.84062
      vertex 30.5241 21 -2.1289
    endloop
  endfacet
  facet normal 0.987688 0 -0.156434
    outer loop
      vertex 30.9606 21 -0.626666
      vertex 30.9114 35.5 -0.936906
      vertex 30.9606 35.5 -0.626666
    endloop
  endfacet
  facet normal 0.987688 0 -0.156434
    outer loop
      vertex 30.9114 35.5 -0.936906
      vertex 30.9606 21 -0.626666
      vertex 30.9114 21 -0.936906
    endloop
  endfacet
  facet normal 0.960295 0 -0.278985
    outer loop
      vertex 30.8429 21 -1.24345
      vertex 30.7553 35.5 -1.54508
      vertex 30.8429 35.5 -1.24345
    endloop
  endfacet
  facet normal 0.960295 0 -0.278985
    outer loop
      vertex 30.7553 35.5 -1.54508
      vertex 30.8429 21 -1.24345
      vertex 30.7553 21 -1.54508
    endloop
  endfacet
  facet normal -0.661309 0 -0.750113
    outer loop
      vertex 22.5773 21 -3.64484
      vertex 22.8129 35.5 -3.85257
      vertex 22.8129 21 -3.85257
    endloop
  endfacet
  facet normal -0.661309 0 -0.750113
    outer loop
      vertex 22.8129 35.5 -3.85257
      vertex 22.5773 21 -3.64484
      vertex 22.5773 35.5 -3.64484
    endloop
  endfacet
  facet normal -0.45399 0 -0.891007
    outer loop
      vertex 23.5912 21 -4.38153
      vertex 23.8711 35.5 -4.52413
      vertex 23.8711 21 -4.52413
    endloop
  endfacet
  facet normal -0.45399 0 -0.891007
    outer loop
      vertex 23.8711 35.5 -4.52413
      vertex 23.5912 21 -4.38153
      vertex 23.5912 35.5 -4.38153
    endloop
  endfacet
  facet normal -0.562081 0 -0.827082
    outer loop
      vertex 23.0611 21 -4.04508
      vertex 23.3209 35.5 -4.22164
      vertex 23.3209 21 -4.22164
    endloop
  endfacet
  facet normal -0.562081 0 -0.827082
    outer loop
      vertex 23.3209 35.5 -4.22164
      vertex 23.0611 21 -4.04508
      vertex 23.0611 35.5 -4.04508
    endloop
  endfacet
  facet normal -0.278991 0 -0.960294
    outer loop
      vertex 24.4549 21 -4.75528
      vertex 24.7565 35.5 -4.84292
      vertex 24.7565 21 -4.84292
    endloop
  endfacet
  facet normal -0.278991 0 -0.960294
    outer loop
      vertex 24.7565 35.5 -4.84292
      vertex 24.4549 21 -4.75528
      vertex 24.4549 35.5 -4.75528
    endloop
  endfacet
  facet normal -0.0941082 0 -0.995562
    outer loop
      vertex 25.3733 21 -4.96057
      vertex 25.686 35.5 -4.99013
      vertex 25.686 21 -4.99013
    endloop
  endfacet
  facet normal -0.0941082 0 -0.995562
    outer loop
      vertex 25.686 35.5 -4.99013
      vertex 25.3733 21 -4.96057
      vertex 25.3733 35.5 -4.96057
    endloop
  endfacet
  facet normal -0.917756 0 -0.397145
    outer loop
      vertex 21.4759 21 -2.1289
      vertex 21.3511 35.5 -1.84062
      vertex 21.4759 35.5 -2.1289
    endloop
  endfacet
  facet normal -0.917756 -0 -0.397145
    outer loop
      vertex 21.3511 35.5 -1.84062
      vertex 21.4759 21 -2.1289
      vertex 21.3511 21 -1.84062
    endloop
  endfacet
  facet normal -0.86074 0 -0.509044
    outer loop
      vertex 21.7784 21 -2.67913
      vertex 21.6185 35.5 -2.40877
      vertex 21.7784 35.5 -2.67913
    endloop
  endfacet
  facet normal -0.86074 -0 -0.509044
    outer loop
      vertex 21.6185 35.5 -2.40877
      vertex 21.7784 21 -2.67913
      vertex 21.6185 21 -2.40877
    endloop
  endfacet
  facet normal -0.790153 0 -0.61291
    outer loop
      vertex 22.1474 21 -3.18712
      vertex 21.9549 35.5 -2.93893
      vertex 22.1474 35.5 -3.18712
    endloop
  endfacet
  facet normal -0.790153 -0 -0.61291
    outer loop
      vertex 21.9549 35.5 -2.93893
      vertex 22.1474 21 -3.18712
      vertex 21.9549 21 -2.93893
    endloop
  endfacet
  facet normal -0.975916 0 -0.218146
    outer loop
      vertex 21.1571 21 -1.24345
      vertex 21.0886 35.5 -0.936906
      vertex 21.1571 35.5 -1.24345
    endloop
  endfacet
  facet normal -0.975916 -0 -0.218146
    outer loop
      vertex 21.0886 35.5 -0.936906
      vertex 21.1571 21 -1.24345
      vertex 21.0886 21 -0.936906
    endloop
  endfacet
  facet normal -0.940879 0 -0.338742
    outer loop
      vertex 21.3511 21 -1.84062
      vertex 21.2447 35.5 -1.54508
      vertex 21.3511 35.5 -1.84062
    endloop
  endfacet
  facet normal -0.940879 -0 -0.338742
    outer loop
      vertex 21.2447 35.5 -1.54508
      vertex 21.3511 21 -1.84062
      vertex 21.2447 21 -1.54508
    endloop
  endfacet
  facet normal -0.987688 0 -0.156434
    outer loop
      vertex 21.0886 21 -0.936906
      vertex 21.0394 35.5 -0.626666
      vertex 21.0886 35.5 -0.936906
    endloop
  endfacet
  facet normal -0.987688 -0 -0.156434
    outer loop
      vertex 21.0394 35.5 -0.626666
      vertex 21.0886 21 -0.936906
      vertex 21.0394 21 -0.626666
    endloop
  endfacet
  facet normal -0.999507 0 -0.0314119
    outer loop
      vertex 21.0099 21 -0.313952
      vertex 21 35.5 -1.66533e-15
      vertex 21.0099 35.5 -0.313952
    endloop
  endfacet
  facet normal -0.999507 -6.97484e-18 -0.0314119
    outer loop
      vertex 21 35.5 -1.66533e-15
      vertex 21.0099 21 -0.313952
      vertex 21 21 1.55431e-15
    endloop
  endfacet
  facet normal 0.0941082 0 -0.995562
    outer loop
      vertex 26.314 21 -4.99013
      vertex 26.6267 35.5 -4.96057
      vertex 26.6267 21 -4.96057
    endloop
  endfacet
  facet normal 0.0941082 0 -0.995562
    outer loop
      vertex 26.6267 35.5 -4.96057
      vertex 26.314 21 -4.99013
      vertex 26.314 35.5 -4.99013
    endloop
  endfacet
  facet normal 0.278991 0 -0.960294
    outer loop
      vertex 27.2435 21 -4.84292
      vertex 27.5451 35.5 -4.75528
      vertex 27.5451 21 -4.75528
    endloop
  endfacet
  facet normal 0.278991 0 -0.960294
    outer loop
      vertex 27.5451 35.5 -4.75528
      vertex 27.2435 21 -4.84292
      vertex 27.2435 35.5 -4.84292
    endloop
  endfacet
  facet normal 0.661309 0 -0.750113
    outer loop
      vertex 29.1871 21 -3.85257
      vertex 29.4227 35.5 -3.64484
      vertex 29.4227 21 -3.64484
    endloop
  endfacet
  facet normal 0.661309 0 -0.750113
    outer loop
      vertex 29.4227 35.5 -3.64484
      vertex 29.1871 21 -3.85257
      vertex 29.1871 35.5 -3.85257
    endloop
  endfacet
  facet normal 0.45399 0 -0.891007
    outer loop
      vertex 28.1289 21 -4.52413
      vertex 28.4088 35.5 -4.38153
      vertex 28.4088 21 -4.38153
    endloop
  endfacet
  facet normal 0.45399 0 -0.891007
    outer loop
      vertex 28.4088 35.5 -4.38153
      vertex 28.1289 21 -4.52413
      vertex 28.1289 35.5 -4.52413
    endloop
  endfacet
  facet normal 0.790153 0 -0.61291
    outer loop
      vertex 30.0451 21 -2.93893
      vertex 29.8526 35.5 -3.18712
      vertex 30.0451 35.5 -2.93893
    endloop
  endfacet
  facet normal 0.790153 0 -0.61291
    outer loop
      vertex 29.8526 35.5 -3.18712
      vertex 30.0451 21 -2.93893
      vertex 29.8526 21 -3.18712
    endloop
  endfacet
  facet normal 0.940879 0 -0.338742
    outer loop
      vertex 30.7553 21 -1.54508
      vertex 30.6489 35.5 -1.84062
      vertex 30.7553 35.5 -1.54508
    endloop
  endfacet
  facet normal 0.940879 0 -0.338742
    outer loop
      vertex 30.6489 35.5 -1.84062
      vertex 30.7553 21 -1.54508
      vertex 30.6489 21 -1.84062
    endloop
  endfacet
  facet normal 0.995562 0 -0.0941082
    outer loop
      vertex 30.9901 21 -0.313952
      vertex 30.9606 35.5 -0.626666
      vertex 30.9901 35.5 -0.313952
    endloop
  endfacet
  facet normal 0.995562 0 -0.0941082
    outer loop
      vertex 30.9606 35.5 -0.626666
      vertex 30.9901 21 -0.313952
      vertex 30.9606 21 -0.626666
    endloop
  endfacet
  facet normal 0.975916 0 -0.218146
    outer loop
      vertex 30.9114 21 -0.936906
      vertex 30.8429 35.5 -1.24345
      vertex 30.9114 35.5 -0.936906
    endloop
  endfacet
  facet normal 0.975916 0 -0.218146
    outer loop
      vertex 30.8429 35.5 -1.24345
      vertex 30.9114 21 -0.936906
      vertex 30.8429 21 -1.24345
    endloop
  endfacet
  facet normal -0.612911 0 -0.790152
    outer loop
      vertex 22.8129 21 -3.85257
      vertex 23.0611 35.5 -4.04508
      vertex 23.0611 21 -4.04508
    endloop
  endfacet
  facet normal -0.612911 0 -0.790152
    outer loop
      vertex 23.0611 35.5 -4.04508
      vertex 22.8129 21 -3.85257
      vertex 22.8129 35.5 -3.85257
    endloop
  endfacet
  facet normal -0.397149 0 -0.917754
    outer loop
      vertex 23.8711 21 -4.52413
      vertex 24.1594 35.5 -4.64888
      vertex 24.1594 21 -4.64888
    endloop
  endfacet
  facet normal -0.397149 0 -0.917754
    outer loop
      vertex 24.1594 35.5 -4.64888
      vertex 23.8711 21 -4.52413
      vertex 23.8711 35.5 -4.52413
    endloop
  endfacet
  facet normal -0.50904 0 -0.860743
    outer loop
      vertex 23.3209 21 -4.22164
      vertex 23.5912 35.5 -4.38153
      vertex 23.5912 21 -4.38153
    endloop
  endfacet
  facet normal -0.50904 0 -0.860743
    outer loop
      vertex 23.5912 35.5 -4.38153
      vertex 23.3209 21 -4.22164
      vertex 23.3209 35.5 -4.22164
    endloop
  endfacet
  facet normal -0.891005 0 -0.453993
    outer loop
      vertex 21.6185 21 -2.40877
      vertex 21.4759 35.5 -2.1289
      vertex 21.6185 35.5 -2.40877
    endloop
  endfacet
  facet normal -0.891005 -0 -0.453993
    outer loop
      vertex 21.4759 35.5 -2.1289
      vertex 21.6185 21 -2.40877
      vertex 21.4759 21 -2.1289
    endloop
  endfacet
  facet normal -0.750113 0 -0.661309
    outer loop
      vertex 22.3552 21 -3.42274
      vertex 22.1474 35.5 -3.18712
      vertex 22.3552 35.5 -3.42274
    endloop
  endfacet
  facet normal -0.750113 -0 -0.661309
    outer loop
      vertex 22.1474 35.5 -3.18712
      vertex 22.3552 21 -3.42274
      vertex 22.1474 21 -3.18712
    endloop
  endfacet
  facet normal -0.960295 0 -0.278985
    outer loop
      vertex 21.2447 21 -1.54508
      vertex 21.1571 35.5 -1.24345
      vertex 21.2447 35.5 -1.54508
    endloop
  endfacet
  facet normal -0.960295 -0 -0.278985
    outer loop
      vertex 21.1571 35.5 -1.24345
      vertex 21.2447 21 -1.54508
      vertex 21.1571 21 -1.24345
    endloop
  endfacet
  facet normal -0.995562 0 -0.0941082
    outer loop
      vertex 21.0394 21 -0.626666
      vertex 21.0099 35.5 -0.313952
      vertex 21.0394 35.5 -0.626666
    endloop
  endfacet
  facet normal -0.995562 -0 -0.0941082
    outer loop
      vertex 21.0099 35.5 -0.313952
      vertex 21.0394 21 -0.626666
      vertex 21.0099 21 -0.313952
    endloop
  endfacet
  facet normal 0.999507 -6.97484e-18 -0.0314119
    outer loop
      vertex 31 21 1.55431e-15
      vertex 30.9901 35.5 -0.313952
      vertex 31 35.5 -1.66533e-15
    endloop
  endfacet
  facet normal 0.999507 0 -0.0314119
    outer loop
      vertex 30.9901 35.5 -0.313952
      vertex 31 21 1.55431e-15
      vertex 30.9901 21 -0.313952
    endloop
  endfacet
  facet normal -0.92388 -8.49728e-17 -0.382683
    outer loop
      vertex 28.5 21 1.55431e-15
      vertex 27.7678 35.5 1.76777
      vertex 28.5 35.5 -1.66533e-15
    endloop
  endfacet
  facet normal -0.92388 -0 -0.382683
    outer loop
      vertex 27.7678 35.5 1.76777
      vertex 28.5 21 1.55431e-15
      vertex 27.7678 21 1.76777
    endloop
  endfacet
  facet normal 0.92388 0 -0.382683
    outer loop
      vertex 24.2322 21 1.76777
      vertex 23.5 35.5 -1.66533e-15
      vertex 24.2322 35.5 1.76777
    endloop
  endfacet
  facet normal 0.92388 -8.49728e-17 -0.382683
    outer loop
      vertex 23.5 35.5 -1.66533e-15
      vertex 24.2322 21 1.76777
      vertex 23.5 21 1.55431e-15
    endloop
  endfacet
  facet normal -0.382683 0 -0.92388
    outer loop
      vertex 26 21 2.5
      vertex 27.7678 35.5 1.76777
      vertex 27.7678 21 1.76777
    endloop
  endfacet
  facet normal -0.382683 0 -0.92388
    outer loop
      vertex 27.7678 35.5 1.76777
      vertex 26 21 2.5
      vertex 26 35.5 2.5
    endloop
  endfacet
  facet normal 0.382683 0 -0.92388
    outer loop
      vertex 24.2322 21 1.76777
      vertex 26 35.5 2.5
      vertex 26 21 2.5
    endloop
  endfacet
  facet normal 0.382683 0 -0.92388
    outer loop
      vertex 26 35.5 2.5
      vertex 24.2322 21 1.76777
      vertex 24.2322 35.5 1.76777
    endloop
  endfacet
  facet normal -0.382683 0 0.92388
    outer loop
      vertex 26 35.5 -2.5
      vertex 27.7678 21 -1.76777
      vertex 27.7678 35.5 -1.76777
    endloop
  endfacet
  facet normal -0.382683 0 0.92388
    outer loop
      vertex 27.7678 21 -1.76777
      vertex 26 35.5 -2.5
      vertex 26 21 -2.5
    endloop
  endfacet
  facet normal 0.92388 8.49728e-17 0.382683
    outer loop
      vertex 23.5 21 1.55431e-15
      vertex 24.2322 35.5 -1.76777
      vertex 23.5 35.5 -1.66533e-15
    endloop
  endfacet
  facet normal 0.92388 0 0.382683
    outer loop
      vertex 24.2322 35.5 -1.76777
      vertex 23.5 21 1.55431e-15
      vertex 24.2322 21 -1.76777
    endloop
  endfacet
  facet normal 0.382683 0 0.92388
    outer loop
      vertex 24.2322 35.5 -1.76777
      vertex 26 21 -2.5
      vertex 26 35.5 -2.5
    endloop
  endfacet
  facet normal 0.382683 0 0.92388
    outer loop
      vertex 26 21 -2.5
      vertex 24.2322 35.5 -1.76777
      vertex 24.2322 21 -1.76777
    endloop
  endfacet
  facet normal -0.92388 0 0.382683
    outer loop
      vertex 27.7678 21 -1.76777
      vertex 28.5 35.5 -1.66533e-15
      vertex 27.7678 35.5 -1.76777
    endloop
  endfacet
  facet normal -0.92388 8.49728e-17 0.382683
    outer loop
      vertex 28.5 35.5 -1.66533e-15
      vertex 27.7678 21 -1.76777
      vertex 28.5 21 1.55431e-15
    endloop
  endfacet
  facet normal -1 6.11782e-08 0
    outer loop
      vertex -4.5 -7.79423 -15
      vertex -4.5 7.79423 15
      vertex -4.5 7.79423 -15
    endloop
  endfacet
  facet normal -1 6.11782e-08 0
    outer loop
      vertex -4.5 7.79423 15
      vertex -4.5 -7.79423 -15
      vertex -4.5 -7.79423 15
    endloop
  endfacet
  facet normal 0.5 0.866025 -0
    outer loop
      vertex 3 3.4641 -15
      vertex -4.5 7.79423 15
      vertex 3 3.4641 15
    endloop
  endfacet
  facet normal 0.5 0.866025 0
    outer loop
      vertex -4.5 7.79423 15
      vertex 3 3.4641 -15
      vertex -4.5 7.79423 -15
    endloop
  endfacet
  facet normal 0.5 -0.866025 0
    outer loop
      vertex -4.5 -7.79423 -15
      vertex 3 -3.4641 15
      vertex -4.5 -7.79423 15
    endloop
  endfacet
  facet normal 0.5 -0.866025 0
    outer loop
      vertex 3 -3.4641 15
      vertex -4.5 -7.79423 -15
      vertex 3 -3.4641 -15
    endloop
  endfacet
  facet normal 0.923495 0.382524 0.0288592
    outer loop
      vertex 2.4375 50 -13
      vertex 1.7968 51.5468 -13
      vertex 2 50 1
    endloop
  endfacet
  facet normal -0.382523 -0.923495 0.028859
    outer loop
      vertex -1.5468 48.2032 -13
      vertex -1.41421 48.5858 1
      vertex -1.72357 48.2764 -13
    endloop
  endfacet
  facet normal -0.382523 -0.923495 0.028859
    outer loop
      vertex -1.41421 48.5858 1
      vertex -1.5468 48.2032 -13
      vertex 0 48 1
    endloop
  endfacet
  facet normal 0.382523 0.923495 0.028859
    outer loop
      vertex 1.5468 51.7968 -13
      vertex 1.41421 51.4142 1
      vertex 1.72357 51.7236 -13
    endloop
  endfacet
  facet normal 0.382523 0.923495 0.028859
    outer loop
      vertex 1.41421 51.4142 1
      vertex 1.5468 51.7968 -13
      vertex 0 52 1
    endloop
  endfacet
  facet normal -0.382525 -0.923494 0.0288592
    outer loop
      vertex 0 48 1
      vertex -1.5468 48.2032 -13
      vertex 0 47.5625 -13
    endloop
  endfacet
  facet normal 0 0 1
    outer loop
      vertex 1.41421 51.4142 1
      vertex 1.41421 48.5858 1
      vertex 2 50 1
    endloop
  endfacet
  facet normal 0 0 1
    outer loop
      vertex 0 52 1
      vertex 1.41421 48.5858 1
      vertex 1.41421 51.4142 1
    endloop
  endfacet
  facet normal 0 0 1
    outer loop
      vertex 0 52 1
      vertex 0 48 1
      vertex 1.41421 48.5858 1
    endloop
  endfacet
  facet normal -0 0 1
    outer loop
      vertex -1.41421 51.4142 1
      vertex 0 48 1
      vertex 0 52 1
    endloop
  endfacet
  facet normal 0 0 1
    outer loop
      vertex -1.41421 51.4142 1
      vertex -1.41421 48.5858 1
      vertex 0 48 1
    endloop
  endfacet
  facet normal 0 -0 1
    outer loop
      vertex -1.41421 48.5858 1
      vertex -1.41421 51.4142 1
      vertex -2 50 1
    endloop
  endfacet
  facet normal 0.382525 0.923494 0.0288592
    outer loop
      vertex 0 52.4375 -13
      vertex 0 52 1
      vertex 1.5468 51.7968 -13
    endloop
  endfacet
  facet normal 0 0 -1
    outer loop
      vertex 7.24444 48.0589 -15
      vertex 7.24444 51.9411 -15
      vertex 7.5 50 -15
    endloop
  endfacet
  facet normal 0 0 -1
    outer loop
      vertex 6.49519 46.25 -15
      vertex 7.24444 51.9411 -15
      vertex 7.24444 48.0589 -15
    endloop
  endfacet
  facet normal 0 0 -1
    outer loop
      vertex 6.49519 46.25 -15
      vertex 6.49519 53.75 -15
      vertex 7.24444 51.9411 -15
    endloop
  endfacet
  facet normal 0 0 -1
    outer loop
      vertex 5.3033 44.6967 -15
      vertex 6.49519 53.75 -15
      vertex 6.49519 46.25 -15
    endloop
  endfacet
  facet normal 0 0 -1
    outer loop
      vertex 5.3033 44.6967 -15
      vertex 5.3033 55.3033 -15
      vertex 6.49519 53.75 -15
    endloop
  endfacet
  facet normal 0 0 -1
    outer loop
      vertex 3.75 43.5048 -15
      vertex 5.3033 55.3033 -15
      vertex 5.3033 44.6967 -15
    endloop
  endfacet
  facet normal 0 0 -1
    outer loop
      vertex 3.75 43.5048 -15
      vertex 3.75 56.4952 -15
      vertex 5.3033 55.3033 -15
    endloop
  endfacet
  facet normal 0 0 -1
    outer loop
      vertex 1.94114 42.7556 -15
      vertex 3.75 56.4952 -15
      vertex 3.75 43.5048 -15
    endloop
  endfacet
  facet normal 0 0 -1
    outer loop
      vertex 1.94114 42.7556 -15
      vertex 1.94114 57.2444 -15
      vertex 3.75 56.4952 -15
    endloop
  endfacet
  facet normal 0 0 -1
    outer loop
      vertex 0 42.5 -15
      vertex 1.94114 57.2444 -15
      vertex 1.94114 42.7556 -15
    endloop
  endfacet
  facet normal 0 0 -1
    outer loop
      vertex 0 42.5 -15
      vertex 0 57.5 -15
      vertex 1.94114 57.2444 -15
    endloop
  endfacet
  facet normal 0 0 -1
    outer loop
      vertex -1.94114 42.7556 -15
      vertex 0 57.5 -15
      vertex 0 42.5 -15
    endloop
  endfacet
  facet normal 0 0 -1
    outer loop
      vertex -1.94114 42.7556 -15
      vertex -1.94114 57.2444 -15
      vertex 0 57.5 -15
    endloop
  endfacet
  facet normal 0 0 -1
    outer loop
      vertex -1.94114 42.7556 -15
      vertex -3.75 56.4952 -15
      vertex -1.94114 57.2444 -15
    endloop
  endfacet
  facet normal 0 0 -1
    outer loop
      vertex -3.75 43.5048 -15
      vertex -3.75 56.4952 -15
      vertex -1.94114 42.7556 -15
    endloop
  endfacet
  facet normal 0 0 -1
    outer loop
      vertex -5.3033 44.6967 -15
      vertex -3.75 56.4952 -15
      vertex -3.75 43.5048 -15
    endloop
  endfacet
  facet normal 0 0 -1
    outer loop
      vertex -5.3033 44.6967 -15
      vertex -5.3033 55.3033 -15
      vertex -3.75 56.4952 -15
    endloop
  endfacet
  facet normal 0 0 -1
    outer loop
      vertex -6.49519 46.25 -15
      vertex -5.3033 55.3033 -15
      vertex -5.3033 44.6967 -15
    endloop
  endfacet
  facet normal 0 0 -1
    outer loop
      vertex -6.49519 46.25 -15
      vertex -6.49519 53.75 -15
      vertex -5.3033 55.3033 -15
    endloop
  endfacet
  facet normal 0 0 -1
    outer loop
      vertex -7.24444 48.0589 -15
      vertex -6.49519 53.75 -15
      vertex -6.49519 46.25 -15
    endloop
  endfacet
  facet normal 0 0 -1
    outer loop
      vertex -7.24444 48.0589 -15
      vertex -7.24444 51.9411 -15
      vertex -6.49519 53.75 -15
    endloop
  endfacet
  facet normal 0 -0 -1
    outer loop
      vertex -7.24444 51.9411 -15
      vertex -7.24444 48.0589 -15
      vertex -7.5 50 -15
    endloop
  endfacet
  facet normal 0.923495 0.382524 0.0288592
    outer loop
      vertex 1.41421 51.4142 1
      vertex 1.7968 51.5468 -13
      vertex 1.72357 51.7236 -13
    endloop
  endfacet
  facet normal 0.923495 0.382524 0.0288592
    outer loop
      vertex 1.7968 51.5468 -13
      vertex 1.41421 51.4142 1
      vertex 2 50 1
    endloop
  endfacet
  facet normal 0.923495 -0.382524 0.0288592
    outer loop
      vertex 2 50 1
      vertex 1.7968 48.4532 -13
      vertex 2.4375 50 -13
    endloop
  endfacet
  facet normal -0.382525 0.923494 0.0288592
    outer loop
      vertex 0 52.4375 -13
      vertex -1.5468 51.7968 -13
      vertex 0 52 1
    endloop
  endfacet
  facet normal -0.382523 0.923495 0.028859
    outer loop
      vertex -1.5468 51.7968 -13
      vertex -1.41421 51.4142 1
      vertex 0 52 1
    endloop
  endfacet
  facet normal -0.382523 0.923495 0.028859
    outer loop
      vertex -1.41421 51.4142 1
      vertex -1.5468 51.7968 -13
      vertex -1.72357 51.7236 -13
    endloop
  endfacet
  facet normal -0.923495 0.382524 0.0288592
    outer loop
      vertex -1.7968 51.5468 -13
      vertex -2.4375 50 -13
      vertex -2 50 1
    endloop
  endfacet
  facet normal -0.923495 -0.382524 0.0288592
    outer loop
      vertex -1.7968 48.4532 -13
      vertex -1.41421 48.5858 1
      vertex -2 50 1
    endloop
  endfacet
  facet normal -0.923495 -0.382524 0.0288592
    outer loop
      vertex -1.41421 48.5858 1
      vertex -1.7968 48.4532 -13
      vertex -1.72357 48.2764 -13
    endloop
  endfacet
  facet normal -0.923495 -0.382524 0.0288592
    outer loop
      vertex -2 50 1
      vertex -2.4375 50 -13
      vertex -1.7968 48.4532 -13
    endloop
  endfacet
  facet normal 0.382525 -0.923494 0.0288592
    outer loop
      vertex 0 48 1
      vertex 0 47.5625 -13
      vertex 1.5468 48.2032 -13
    endloop
  endfacet
  facet normal -0.923495 0.382524 0.0288592
    outer loop
      vertex -1.7968 51.5468 -13
      vertex -1.41421 51.4142 1
      vertex -1.72357 51.7236 -13
    endloop
  endfacet
  facet normal -0.923495 0.382524 0.0288592
    outer loop
      vertex -1.41421 51.4142 1
      vertex -1.7968 51.5468 -13
      vertex -2 50 1
    endloop
  endfacet
  facet normal 0.382523 -0.923495 0.028859
    outer loop
      vertex 1.5468 48.2032 -13
      vertex 1.41421 48.5858 1
      vertex 0 48 1
    endloop
  endfacet
  facet normal 0.382523 -0.923495 0.028859
    outer loop
      vertex 1.41421 48.5858 1
      vertex 1.5468 48.2032 -13
      vertex 1.72357 48.2764 -13
    endloop
  endfacet
  facet normal 0.923495 -0.382524 0.0288592
    outer loop
      vertex 1.41421 48.5858 1
      vertex 1.7968 48.4532 -13
      vertex 2 50 1
    endloop
  endfacet
  facet normal 0.923495 -0.382524 0.0288592
    outer loop
      vertex 1.7968 48.4532 -13
      vertex 1.41421 48.5858 1
      vertex 1.72357 48.2764 -13
    endloop
  endfacet
  facet normal 0.991445 0.130527 0
    outer loop
      vertex 7.5 50 -13
      vertex 7.24444 51.9411 -15
      vertex 7.24444 51.9411 -13
    endloop
  endfacet
  facet normal 0.991445 0.130527 0
    outer loop
      vertex 7.24444 51.9411 -15
      vertex 7.5 50 -13
      vertex 7.5 50 -15
    endloop
  endfacet
  facet normal -0.991445 0.130527 0
    outer loop
      vertex -7.5 50 -15
      vertex -7.24444 51.9411 -13
      vertex -7.24444 51.9411 -15
    endloop
  endfacet
  facet normal -0.991445 0.130527 0
    outer loop
      vertex -7.24444 51.9411 -13
      vertex -7.5 50 -15
      vertex -7.5 50 -13
    endloop
  endfacet
  facet normal 0.130527 0.991445 -0
    outer loop
      vertex 1.94114 57.2444 -15
      vertex 0 57.5 -13
      vertex 1.94114 57.2444 -13
    endloop
  endfacet
  facet normal 0.130527 0.991445 0
    outer loop
      vertex 0 57.5 -13
      vertex 1.94114 57.2444 -15
      vertex 0 57.5 -15
    endloop
  endfacet
  facet normal -0.793353 -0.608762 0
    outer loop
      vertex -5.3033 44.6967 -15
      vertex -6.49519 46.25 -13
      vertex -6.49519 46.25 -15
    endloop
  endfacet
  facet normal -0.793353 -0.608762 0
    outer loop
      vertex -6.49519 46.25 -13
      vertex -5.3033 44.6967 -15
      vertex -5.3033 44.6967 -13
    endloop
  endfacet
  facet normal 0.793353 0.608762 0
    outer loop
      vertex 6.49519 53.75 -13
      vertex 5.3033 55.3033 -15
      vertex 5.3033 55.3033 -13
    endloop
  endfacet
  facet normal 0.793353 0.608762 0
    outer loop
      vertex 5.3033 55.3033 -15
      vertex 6.49519 53.75 -13
      vertex 6.49519 53.75 -15
    endloop
  endfacet
  facet normal 0.923879 0.382684 0
    outer loop
      vertex 7.24444 51.9411 -13
      vertex 6.49519 53.75 -15
      vertex 6.49519 53.75 -13
    endloop
  endfacet
  facet normal 0.923879 0.382684 0
    outer loop
      vertex 6.49519 53.75 -15
      vertex 7.24444 51.9411 -13
      vertex 7.24444 51.9411 -15
    endloop
  endfacet
  facet normal 0.608762 0.793353 -0
    outer loop
      vertex 5.3033 55.3033 -15
      vertex 3.75 56.4952 -13
      vertex 5.3033 55.3033 -13
    endloop
  endfacet
  facet normal 0.608762 0.793353 0
    outer loop
      vertex 3.75 56.4952 -13
      vertex 5.3033 55.3033 -15
      vertex 3.75 56.4952 -15
    endloop
  endfacet
  facet normal -0.608762 0.793353 0
    outer loop
      vertex -3.75 56.4952 -15
      vertex -5.3033 55.3033 -13
      vertex -3.75 56.4952 -13
    endloop
  endfacet
  facet normal -0.608762 0.793353 0
    outer loop
      vertex -5.3033 55.3033 -13
      vertex -3.75 56.4952 -15
      vertex -5.3033 55.3033 -15
    endloop
  endfacet
  facet normal 0 0 1
    outer loop
      vertex 2.4375 50 -13
      vertex 7.5 50 -13
      vertex 7.24444 51.9411 -13
    endloop
  endfacet
  facet normal 0 0 1
    outer loop
      vertex 1.7968 51.5468 -13
      vertex 7.24444 51.9411 -13
      vertex 6.49519 53.75 -13
    endloop
  endfacet
  facet normal 0 0 1
    outer loop
      vertex 7.5 50 -13
      vertex 2.4375 50 -13
      vertex 7.24444 48.0589 -13
    endloop
  endfacet
  facet normal 0 0 1
    outer loop
      vertex 1.72357 51.7236 -13
      vertex 6.49519 53.75 -13
      vertex 5.3033 55.3033 -13
    endloop
  endfacet
  facet normal -0 0 1
    outer loop
      vertex 1.7968 48.4532 -13
      vertex 7.24444 48.0589 -13
      vertex 2.4375 50 -13
    endloop
  endfacet
  facet normal 0 0 1
    outer loop
      vertex 1.72357 51.7236 -13
      vertex 5.3033 55.3033 -13
      vertex 3.75 56.4952 -13
    endloop
  endfacet
  facet normal 0 0 1
    outer loop
      vertex 7.24444 48.0589 -13
      vertex 1.7968 48.4532 -13
      vertex 6.49519 46.25 -13
    endloop
  endfacet
  facet normal -0 0 1
    outer loop
      vertex 1.72357 48.2764 -13
      vertex 6.49519 46.25 -13
      vertex 1.7968 48.4532 -13
    endloop
  endfacet
  facet normal 0 0 1
    outer loop
      vertex 1.5468 51.7968 -13
      vertex 3.75 56.4952 -13
      vertex 1.94114 57.2444 -13
    endloop
  endfacet
  facet normal 0 0 1
    outer loop
      vertex 7.24444 51.9411 -13
      vertex 1.7968 51.5468 -13
      vertex 2.4375 50 -13
    endloop
  endfacet
  facet normal 0 0 1
    outer loop
      vertex 6.49519 53.75 -13
      vertex 1.72357 51.7236 -13
      vertex 1.7968 51.5468 -13
    endloop
  endfacet
  facet normal 0 0 1
    outer loop
      vertex 3.75 56.4952 -13
      vertex 1.5468 51.7968 -13
      vertex 1.72357 51.7236 -13
    endloop
  endfacet
  facet normal 0 0 1
    outer loop
      vertex 0 52.4375 -13
      vertex 1.94114 57.2444 -13
      vertex 0 57.5 -13
    endloop
  endfacet
  facet normal 0 0 1
    outer loop
      vertex 1.94114 57.2444 -13
      vertex 0 52.4375 -13
      vertex 1.5468 51.7968 -13
    endloop
  endfacet
  facet normal -0 0 1
    outer loop
      vertex -1.94114 57.2444 -13
      vertex 0 52.4375 -13
      vertex 0 57.5 -13
    endloop
  endfacet
  facet normal 0 0 1
    outer loop
      vertex 0 52.4375 -13
      vertex -1.94114 57.2444 -13
      vertex -1.5468 51.7968 -13
    endloop
  endfacet
  facet normal -0 0 1
    outer loop
      vertex -3.75 56.4952 -13
      vertex -1.5468 51.7968 -13
      vertex -1.94114 57.2444 -13
    endloop
  endfacet
  facet normal 0 0 1
    outer loop
      vertex -1.5468 51.7968 -13
      vertex -3.75 56.4952 -13
      vertex -1.72357 51.7236 -13
    endloop
  endfacet
  facet normal -0 0 1
    outer loop
      vertex -5.3033 55.3033 -13
      vertex -1.72357 51.7236 -13
      vertex -3.75 56.4952 -13
    endloop
  endfacet
  facet normal -0 0 1
    outer loop
      vertex -6.49519 53.75 -13
      vertex -1.72357 51.7236 -13
      vertex -5.3033 55.3033 -13
    endloop
  endfacet
  facet normal 0 0 1
    outer loop
      vertex 6.49519 46.25 -13
      vertex 1.72357 48.2764 -13
      vertex 5.3033 44.6967 -13
    endloop
  endfacet
  facet normal 0 0 1
    outer loop
      vertex 5.3033 44.6967 -13
      vertex 1.72357 48.2764 -13
      vertex 3.75 43.5048 -13
    endloop
  endfacet
  facet normal -0 0 1
    outer loop
      vertex 1.5468 48.2032 -13
      vertex 3.75 43.5048 -13
      vertex 1.72357 48.2764 -13
    endloop
  endfacet
  facet normal 0 0 1
    outer loop
      vertex 3.75 43.5048 -13
      vertex 1.5468 48.2032 -13
      vertex 1.94114 42.7556 -13
    endloop
  endfacet
  facet normal -0 0 1
    outer loop
      vertex 0 47.5625 -13
      vertex 1.94114 42.7556 -13
      vertex 1.5468 48.2032 -13
    endloop
  endfacet
  facet normal 0 0 1
    outer loop
      vertex 0 47.5625 -13
      vertex 0 42.5 -13
      vertex 1.94114 42.7556 -13
    endloop
  endfacet
  facet normal 0 0 1
    outer loop
      vertex -1.94114 42.7556 -13
      vertex 0 47.5625 -13
      vertex -1.5468 48.2032 -13
    endloop
  endfacet
  facet normal 0 0 1
    outer loop
      vertex -3.75 43.5048 -13
      vertex -1.5468 48.2032 -13
      vertex -1.72357 48.2764 -13
    endloop
  endfacet
  facet normal 0 0 1
    outer loop
      vertex -6.49519 46.25 -13
      vertex -1.72357 48.2764 -13
      vertex -1.7968 48.4532 -13
    endloop
  endfacet
  facet normal 0 0 1
    outer loop
      vertex 0 47.5625 -13
      vertex -1.94114 42.7556 -13
      vertex 0 42.5 -13
    endloop
  endfacet
  facet normal 0 0 1
    outer loop
      vertex -7.24444 48.0589 -13
      vertex -1.7968 48.4532 -13
      vertex -2.4375 50 -13
    endloop
  endfacet
  facet normal 0 0 1
    outer loop
      vertex -1.72357 51.7236 -13
      vertex -6.49519 53.75 -13
      vertex -1.7968 51.5468 -13
    endloop
  endfacet
  facet normal 0 0 1
    outer loop
      vertex -1.5468 48.2032 -13
      vertex -3.75 43.5048 -13
      vertex -1.94114 42.7556 -13
    endloop
  endfacet
  facet normal -0 0 1
    outer loop
      vertex -7.24444 51.9411 -13
      vertex -1.7968 51.5468 -13
      vertex -6.49519 53.75 -13
    endloop
  endfacet
  facet normal 0 0 1
    outer loop
      vertex -1.72357 48.2764 -13
      vertex -5.3033 44.6967 -13
      vertex -3.75 43.5048 -13
    endloop
  endfacet
  facet normal 0 0 1
    outer loop
      vertex -1.7968 51.5468 -13
      vertex -7.24444 51.9411 -13
      vertex -2.4375 50 -13
    endloop
  endfacet
  facet normal 0 0 1
    outer loop
      vertex -1.72357 48.2764 -13
      vertex -6.49519 46.25 -13
      vertex -5.3033 44.6967 -13
    endloop
  endfacet
  facet normal 0 0 1
    outer loop
      vertex -7.5 50 -13
      vertex -2.4375 50 -13
      vertex -7.24444 51.9411 -13
    endloop
  endfacet
  facet normal 0 0 1
    outer loop
      vertex -1.7968 48.4532 -13
      vertex -7.24444 48.0589 -13
      vertex -6.49519 46.25 -13
    endloop
  endfacet
  facet normal 0 0 1
    outer loop
      vertex -2.4375 50 -13
      vertex -7.5 50 -13
      vertex -7.24444 48.0589 -13
    endloop
  endfacet
  facet normal -0.130527 0.991445 0
    outer loop
      vertex 0 57.5 -15
      vertex -1.94114 57.2444 -13
      vertex 0 57.5 -13
    endloop
  endfacet
  facet normal -0.130527 0.991445 0
    outer loop
      vertex -1.94114 57.2444 -13
      vertex 0 57.5 -15
      vertex -1.94114 57.2444 -15
    endloop
  endfacet
  facet normal -0.608762 -0.793353 0
    outer loop
      vertex -5.3033 44.6967 -15
      vertex -3.75 43.5048 -13
      vertex -5.3033 44.6967 -13
    endloop
  endfacet
  facet normal -0.608762 -0.793353 -0
    outer loop
      vertex -3.75 43.5048 -13
      vertex -5.3033 44.6967 -15
      vertex -3.75 43.5048 -15
    endloop
  endfacet
  facet normal -0.991445 -0.130527 0
    outer loop
      vertex -7.24444 48.0589 -15
      vertex -7.5 50 -13
      vertex -7.5 50 -15
    endloop
  endfacet
  facet normal -0.991445 -0.130527 0
    outer loop
      vertex -7.5 50 -13
      vertex -7.24444 48.0589 -15
      vertex -7.24444 48.0589 -13
    endloop
  endfacet
  facet normal 0.382683 0.92388 -0
    outer loop
      vertex 3.75 56.4952 -15
      vertex 1.94114 57.2444 -13
      vertex 3.75 56.4952 -13
    endloop
  endfacet
  facet normal 0.382683 0.92388 0
    outer loop
      vertex 1.94114 57.2444 -13
      vertex 3.75 56.4952 -15
      vertex 1.94114 57.2444 -15
    endloop
  endfacet
  facet normal -0.793353 0.608762 0
    outer loop
      vertex -6.49519 53.75 -15
      vertex -5.3033 55.3033 -13
      vertex -5.3033 55.3033 -15
    endloop
  endfacet
  facet normal -0.793353 0.608762 0
    outer loop
      vertex -5.3033 55.3033 -13
      vertex -6.49519 53.75 -15
      vertex -6.49519 53.75 -13
    endloop
  endfacet
  facet normal -0.923879 0.382684 0
    outer loop
      vertex -7.24444 51.9411 -15
      vertex -6.49519 53.75 -13
      vertex -6.49519 53.75 -15
    endloop
  endfacet
  facet normal -0.923879 0.382684 0
    outer loop
      vertex -6.49519 53.75 -13
      vertex -7.24444 51.9411 -15
      vertex -7.24444 51.9411 -13
    endloop
  endfacet
  facet normal -0.382683 0.92388 0
    outer loop
      vertex -1.94114 57.2444 -15
      vertex -3.75 56.4952 -13
      vertex -1.94114 57.2444 -13
    endloop
  endfacet
  facet normal -0.382683 0.92388 0
    outer loop
      vertex -3.75 56.4952 -13
      vertex -1.94114 57.2444 -15
      vertex -3.75 56.4952 -15
    endloop
  endfacet
  facet normal 0.991445 -0.130527 0
    outer loop
      vertex 7.24444 48.0589 -13
      vertex 7.5 50 -15
      vertex 7.5 50 -13
    endloop
  endfacet
  facet normal 0.991445 -0.130527 0
    outer loop
      vertex 7.5 50 -15
      vertex 7.24444 48.0589 -13
      vertex 7.24444 48.0589 -15
    endloop
  endfacet
  facet normal 0.130527 -0.991445 0
    outer loop
      vertex 0 42.5 -15
      vertex 1.94114 42.7556 -13
      vertex 0 42.5 -13
    endloop
  endfacet
  facet normal 0.130527 -0.991445 0
    outer loop
      vertex 1.94114 42.7556 -13
      vertex 0 42.5 -15
      vertex 1.94114 42.7556 -15
    endloop
  endfacet
  facet normal 0.608762 -0.793353 0
    outer loop
      vertex 3.75 43.5048 -15
      vertex 5.3033 44.6967 -13
      vertex 3.75 43.5048 -13
    endloop
  endfacet
  facet normal 0.608762 -0.793353 0
    outer loop
      vertex 5.3033 44.6967 -13
      vertex 3.75 43.5048 -15
      vertex 5.3033 44.6967 -15
    endloop
  endfacet
  facet normal -0.382683 -0.92388 0
    outer loop
      vertex -3.75 43.5048 -15
      vertex -1.94114 42.7556 -13
      vertex -3.75 43.5048 -13
    endloop
  endfacet
  facet normal -0.382683 -0.92388 -0
    outer loop
      vertex -1.94114 42.7556 -13
      vertex -3.75 43.5048 -15
      vertex -1.94114 42.7556 -15
    endloop
  endfacet
  facet normal -0.923879 -0.382684 0
    outer loop
      vertex -6.49519 46.25 -15
      vertex -7.24444 48.0589 -13
      vertex -7.24444 48.0589 -15
    endloop
  endfacet
  facet normal -0.923879 -0.382684 0
    outer loop
      vertex -7.24444 48.0589 -13
      vertex -6.49519 46.25 -15
      vertex -6.49519 46.25 -13
    endloop
  endfacet
  facet normal 0.382683 -0.92388 0
    outer loop
      vertex 1.94114 42.7556 -15
      vertex 3.75 43.5048 -13
      vertex 1.94114 42.7556 -13
    endloop
  endfacet
  facet normal 0.382683 -0.92388 0
    outer loop
      vertex 3.75 43.5048 -13
      vertex 1.94114 42.7556 -15
      vertex 3.75 43.5048 -15
    endloop
  endfacet
  facet normal 0.923879 -0.382684 0
    outer loop
      vertex 6.49519 46.25 -13
      vertex 7.24444 48.0589 -15
      vertex 7.24444 48.0589 -13
    endloop
  endfacet
  facet normal 0.923879 -0.382684 0
    outer loop
      vertex 7.24444 48.0589 -15
      vertex 6.49519 46.25 -13
      vertex 6.49519 46.25 -15
    endloop
  endfacet
  facet normal 0.793353 -0.608762 0
    outer loop
      vertex 5.3033 44.6967 -13
      vertex 6.49519 46.25 -15
      vertex 6.49519 46.25 -13
    endloop
  endfacet
  facet normal 0.793353 -0.608762 0
    outer loop
      vertex 6.49519 46.25 -15
      vertex 5.3033 44.6967 -13
      vertex 5.3033 44.6967 -15
    endloop
  endfacet
  facet normal -0.130527 -0.991445 0
    outer loop
      vertex -1.94114 42.7556 -15
      vertex 0 42.5 -13
      vertex -1.94114 42.7556 -13
    endloop
  endfacet
  facet normal -0.130527 -0.991445 -0
    outer loop
      vertex 0 42.5 -13
      vertex -1.94114 42.7556 -15
      vertex 0 42.5 -15
    endloop
  endfacet
endsolid OpenSCAD_Model
