solid OpenSCAD_Model
  facet normal -1 0 0
    outer loop
      vertex 3 -15 -14
      vertex 3 15 -3.4641
      vertex 3 15 -14
    endloop
  endfacet
  facet normal -1 -0 0
    outer loop
      vertex 3 15 -3.4641
      vertex 3 -15 -14
      vertex 3 -15 -3.4641
    endloop
  endfacet
  facet normal -1 0 0
    outer loop
      vertex 3 -15 3.4641
      vertex 3 15 21
      vertex 3 15 3.4641
    endloop
  endfacet
  facet normal -1 -0 0
    outer loop
      vertex 3 15 21
      vertex 3 -15 3.4641
      vertex 3 -15 21
    endloop
  endfacet
  facet normal 0 -1 0
    outer loop
      vertex -4.5 -15 7.79423
      vertex 3 -15 -3.4641
      vertex 3 -15 3.4641
    endloop
  endfacet
  facet normal -0 -1 0
    outer loop
      vertex 3 -15 -3.4641
      vertex -4.5 -15 7.79423
      vertex -4.5 -15 -7.79423
    endloop
  endfacet
  facet normal 0 -1 0
    outer loop
      vertex 3 -15 21
      vertex 45 -15 8.66025
      vertex 53 -15 21
    endloop
  endfacet
  facet normal 0 -1 0
    outer loop
      vertex 3 -15 3.4641
      vertex 45 -15 8.66025
      vertex 3 -15 21
    endloop
  endfacet
  facet normal 0 -1 0
    outer loop
      vertex 3 -15 -3.4641
      vertex 45 -15 8.66025
      vertex 3 -15 3.4641
    endloop
  endfacet
  facet normal 0 -1 0
    outer loop
      vertex 3 -15 -3.4641
      vertex 45 -15 -8.66025
      vertex 45 -15 8.66025
    endloop
  endfacet
  facet normal -0 -1 0
    outer loop
      vertex 45 -15 -8.66025
      vertex 3 -15 -3.4641
      vertex 3 -15 -14
    endloop
  endfacet
  facet normal 0 -1 -0
    outer loop
      vertex 53 -15 21
      vertex 45 -15 8.66025
      vertex 53 -15 4.04145
    endloop
  endfacet
  facet normal 0 -1 0
    outer loop
      vertex 45 -15 -8.66025
      vertex 53 -15 -14
      vertex 53 -15 -4.04145
    endloop
  endfacet
  facet normal 0 -1 0
    outer loop
      vertex 53 -15 -14
      vertex 45 -15 -8.66025
      vertex 3 -15 -14
    endloop
  endfacet
  facet normal 1 -0 0
    outer loop
      vertex 53 -15 -4.04145
      vertex 53 15 -14
      vertex 53 15 -4.04145
    endloop
  endfacet
  facet normal 1 0 0
    outer loop
      vertex 53 15 -14
      vertex 53 -15 -4.04145
      vertex 53 -15 -14
    endloop
  endfacet
  facet normal 1 -0 0
    outer loop
      vertex 53 -15 21
      vertex 53 15 4.04145
      vertex 53 15 21
    endloop
  endfacet
  facet normal 1 0 0
    outer loop
      vertex 53 15 4.04145
      vertex 53 -15 21
      vertex 53 -15 4.04145
    endloop
  endfacet
  facet normal 0 1 0
    outer loop
      vertex 53 15 -4.04145
      vertex 53 15 -14
      vertex 45 15 -8.66025
    endloop
  endfacet
  facet normal 0 1 0
    outer loop
      vertex 53 15 21
      vertex 45 15 8.66025
      vertex 3 15 21
    endloop
  endfacet
  facet normal -0 1 0
    outer loop
      vertex 45 15 8.66025
      vertex 53 15 21
      vertex 53 15 4.04145
    endloop
  endfacet
  facet normal 0 1 0
    outer loop
      vertex 45 15 8.66025
      vertex 3 15 3.4641
      vertex 3 15 21
    endloop
  endfacet
  facet normal 0 1 0
    outer loop
      vertex 45 15 8.66025
      vertex 3 15 -3.4641
      vertex 3 15 3.4641
    endloop
  endfacet
  facet normal 0 1 -0
    outer loop
      vertex 45 15 -8.66025
      vertex 3 15 -3.4641
      vertex 45 15 8.66025
    endloop
  endfacet
  facet normal 0 1 0
    outer loop
      vertex 3 15 -14
      vertex 45 15 -8.66025
      vertex 53 15 -14
    endloop
  endfacet
  facet normal 0 1 0
    outer loop
      vertex 45 15 -8.66025
      vertex 3 15 -14
      vertex 3 15 -3.4641
    endloop
  endfacet
  facet normal 0 1 -0
    outer loop
      vertex 3 15 -3.4641
      vertex -4.5 15 7.79423
      vertex 3 15 3.4641
    endloop
  endfacet
  facet normal 0 1 0
    outer loop
      vertex -4.5 15 7.79423
      vertex 3 15 -3.4641
      vertex -4.5 15 -7.79423
    endloop
  endfacet
  facet normal 0 0 -1
    outer loop
      vertex 3 -15 -14
      vertex 53 15 -14
      vertex 53 -15 -14
    endloop
  endfacet
  facet normal -0 0 -1
    outer loop
      vertex 53 15 -14
      vertex 3 -15 -14
      vertex 3 15 -14
    endloop
  endfacet
  facet normal 0 0 1
    outer loop
      vertex 53 15 21
      vertex 31 3.10862e-15 21
      vertex 53 -15 21
    endloop
  endfacet
  facet normal 0 0 1
    outer loop
      vertex 53 15 21
      vertex 30.9901 0.313952 21
      vertex 31 3.10862e-15 21
    endloop
  endfacet
  facet normal 0 0 1
    outer loop
      vertex 53 15 21
      vertex 30.9606 0.626666 21
      vertex 30.9901 0.313952 21
    endloop
  endfacet
  facet normal 0 0 1
    outer loop
      vertex 53 15 21
      vertex 30.9114 0.936906 21
      vertex 30.9606 0.626666 21
    endloop
  endfacet
  facet normal 0 0 1
    outer loop
      vertex 53 15 21
      vertex 30.8429 1.24345 21
      vertex 30.9114 0.936906 21
    endloop
  endfacet
  facet normal 0 0 1
    outer loop
      vertex 53 15 21
      vertex 30.7553 1.54508 21
      vertex 30.8429 1.24345 21
    endloop
  endfacet
  facet normal 0 0 1
    outer loop
      vertex 53 15 21
      vertex 30.6489 1.84062 21
      vertex 30.7553 1.54508 21
    endloop
  endfacet
  facet normal 0 0 1
    outer loop
      vertex 53 15 21
      vertex 30.5241 2.1289 21
      vertex 30.6489 1.84062 21
    endloop
  endfacet
  facet normal 0 0 1
    outer loop
      vertex 53 15 21
      vertex 30.3815 2.40877 21
      vertex 30.5241 2.1289 21
    endloop
  endfacet
  facet normal 0 0 1
    outer loop
      vertex 53 15 21
      vertex 30.2216 2.67913 21
      vertex 30.3815 2.40877 21
    endloop
  endfacet
  facet normal 0 0 1
    outer loop
      vertex 53 15 21
      vertex 30.0451 2.93893 21
      vertex 30.2216 2.67913 21
    endloop
  endfacet
  facet normal 0 0 1
    outer loop
      vertex 53 15 21
      vertex 29.8526 3.18712 21
      vertex 30.0451 2.93893 21
    endloop
  endfacet
  facet normal 0 0 1
    outer loop
      vertex 53 15 21
      vertex 29.6448 3.42274 21
      vertex 29.8526 3.18712 21
    endloop
  endfacet
  facet normal 0 0 1
    outer loop
      vertex 53 15 21
      vertex 29.4227 3.64484 21
      vertex 29.6448 3.42274 21
    endloop
  endfacet
  facet normal 0 0 1
    outer loop
      vertex 53 15 21
      vertex 29.1871 3.85257 21
      vertex 29.4227 3.64484 21
    endloop
  endfacet
  facet normal 0 0 1
    outer loop
      vertex 53 15 21
      vertex 28.9389 4.04508 21
      vertex 29.1871 3.85257 21
    endloop
  endfacet
  facet normal 0 0 1
    outer loop
      vertex 53 15 21
      vertex 28.6791 4.22164 21
      vertex 28.9389 4.04508 21
    endloop
  endfacet
  facet normal 0 0 1
    outer loop
      vertex 53 15 21
      vertex 28.4088 4.38153 21
      vertex 28.6791 4.22164 21
    endloop
  endfacet
  facet normal 0 0 1
    outer loop
      vertex 53 15 21
      vertex 28.1289 4.52413 21
      vertex 28.4088 4.38153 21
    endloop
  endfacet
  facet normal 0 0 1
    outer loop
      vertex 53 15 21
      vertex 27.8406 4.64888 21
      vertex 28.1289 4.52413 21
    endloop
  endfacet
  facet normal 0 0 1
    outer loop
      vertex 53 15 21
      vertex 27.5451 4.75528 21
      vertex 27.8406 4.64888 21
    endloop
  endfacet
  facet normal 0 0 1
    outer loop
      vertex 53 15 21
      vertex 27.2435 4.84292 21
      vertex 27.5451 4.75528 21
    endloop
  endfacet
  facet normal 0 0 1
    outer loop
      vertex 53 15 21
      vertex 26.9369 4.91144 21
      vertex 27.2435 4.84292 21
    endloop
  endfacet
  facet normal 0 0 1
    outer loop
      vertex 53 15 21
      vertex 26.6267 4.96057 21
      vertex 26.9369 4.91144 21
    endloop
  endfacet
  facet normal 0 0 1
    outer loop
      vertex 53 15 21
      vertex 26.314 4.99013 21
      vertex 26.6267 4.96057 21
    endloop
  endfacet
  facet normal -0 0 1
    outer loop
      vertex 3 15 21
      vertex 26.314 4.99013 21
      vertex 53 15 21
    endloop
  endfacet
  facet normal 0 0 1
    outer loop
      vertex 26.314 4.99013 21
      vertex 3 15 21
      vertex 26 5 21
    endloop
  endfacet
  facet normal 0 0 1
    outer loop
      vertex 26 5 21
      vertex 3 15 21
      vertex 25.686 4.99013 21
    endloop
  endfacet
  facet normal 0 0 1
    outer loop
      vertex 25.686 4.99013 21
      vertex 3 15 21
      vertex 25.3733 4.96057 21
    endloop
  endfacet
  facet normal 0 0 1
    outer loop
      vertex 25.3733 4.96057 21
      vertex 3 15 21
      vertex 25.0631 4.91144 21
    endloop
  endfacet
  facet normal 0 0 1
    outer loop
      vertex 25.0631 4.91144 21
      vertex 3 15 21
      vertex 24.7565 4.84292 21
    endloop
  endfacet
  facet normal 0 0 1
    outer loop
      vertex 21.0099 0.313952 21
      vertex 3 15 21
      vertex 21 3.10862e-15 21
    endloop
  endfacet
  facet normal 0 0 1
    outer loop
      vertex 21.0394 0.626666 21
      vertex 3 15 21
      vertex 21.0099 0.313952 21
    endloop
  endfacet
  facet normal 0 0 1
    outer loop
      vertex 21.0886 0.936906 21
      vertex 3 15 21
      vertex 21.0394 0.626666 21
    endloop
  endfacet
  facet normal 0 0 1
    outer loop
      vertex 21.1571 1.24345 21
      vertex 3 15 21
      vertex 21.0886 0.936906 21
    endloop
  endfacet
  facet normal 0 0 1
    outer loop
      vertex 21.2447 1.54508 21
      vertex 3 15 21
      vertex 21.1571 1.24345 21
    endloop
  endfacet
  facet normal 0 0 1
    outer loop
      vertex 21.3511 1.84062 21
      vertex 3 15 21
      vertex 21.2447 1.54508 21
    endloop
  endfacet
  facet normal 0 0 1
    outer loop
      vertex 21.4759 2.1289 21
      vertex 3 15 21
      vertex 21.3511 1.84062 21
    endloop
  endfacet
  facet normal 0 0 1
    outer loop
      vertex 21.6185 2.40877 21
      vertex 3 15 21
      vertex 21.4759 2.1289 21
    endloop
  endfacet
  facet normal 0 0 1
    outer loop
      vertex 21.7784 2.67913 21
      vertex 3 15 21
      vertex 21.6185 2.40877 21
    endloop
  endfacet
  facet normal 0 0 1
    outer loop
      vertex 21.9549 2.93893 21
      vertex 3 15 21
      vertex 21.7784 2.67913 21
    endloop
  endfacet
  facet normal 0 0 1
    outer loop
      vertex 22.1474 3.18712 21
      vertex 3 15 21
      vertex 21.9549 2.93893 21
    endloop
  endfacet
  facet normal 0 0 1
    outer loop
      vertex 22.3552 3.42274 21
      vertex 3 15 21
      vertex 22.1474 3.18712 21
    endloop
  endfacet
  facet normal 0 0 1
    outer loop
      vertex 22.5773 3.64484 21
      vertex 3 15 21
      vertex 22.3552 3.42274 21
    endloop
  endfacet
  facet normal 0 0 1
    outer loop
      vertex 22.8129 3.85257 21
      vertex 3 15 21
      vertex 22.5773 3.64484 21
    endloop
  endfacet
  facet normal 0 0 1
    outer loop
      vertex 23.0611 4.04508 21
      vertex 3 15 21
      vertex 22.8129 3.85257 21
    endloop
  endfacet
  facet normal 0 0 1
    outer loop
      vertex 23.3209 4.22164 21
      vertex 3 15 21
      vertex 23.0611 4.04508 21
    endloop
  endfacet
  facet normal 0 0 1
    outer loop
      vertex 23.5912 4.38153 21
      vertex 3 15 21
      vertex 23.3209 4.22164 21
    endloop
  endfacet
  facet normal 0 0 1
    outer loop
      vertex 23.8711 4.52413 21
      vertex 3 15 21
      vertex 23.5912 4.38153 21
    endloop
  endfacet
  facet normal 0 0 1
    outer loop
      vertex 24.1594 4.64888 21
      vertex 3 15 21
      vertex 23.8711 4.52413 21
    endloop
  endfacet
  facet normal 0 0 1
    outer loop
      vertex 24.4549 4.75528 21
      vertex 3 15 21
      vertex 24.1594 4.64888 21
    endloop
  endfacet
  facet normal 0 0 1
    outer loop
      vertex 24.7565 4.84292 21
      vertex 3 15 21
      vertex 24.4549 4.75528 21
    endloop
  endfacet
  facet normal -0 0 1
    outer loop
      vertex 30.9901 -0.313952 21
      vertex 53 -15 21
      vertex 31 3.10862e-15 21
    endloop
  endfacet
  facet normal -0 0 1
    outer loop
      vertex 30.9606 -0.626666 21
      vertex 53 -15 21
      vertex 30.9901 -0.313952 21
    endloop
  endfacet
  facet normal -0 0 1
    outer loop
      vertex 30.9114 -0.936906 21
      vertex 53 -15 21
      vertex 30.9606 -0.626666 21
    endloop
  endfacet
  facet normal -0 0 1
    outer loop
      vertex 30.8429 -1.24345 21
      vertex 53 -15 21
      vertex 30.9114 -0.936906 21
    endloop
  endfacet
  facet normal -0 0 1
    outer loop
      vertex 30.7553 -1.54508 21
      vertex 53 -15 21
      vertex 30.8429 -1.24345 21
    endloop
  endfacet
  facet normal -0 0 1
    outer loop
      vertex 30.6489 -1.84062 21
      vertex 53 -15 21
      vertex 30.7553 -1.54508 21
    endloop
  endfacet
  facet normal -0 0 1
    outer loop
      vertex 30.5241 -2.1289 21
      vertex 53 -15 21
      vertex 30.6489 -1.84062 21
    endloop
  endfacet
  facet normal -0 0 1
    outer loop
      vertex 30.3815 -2.40877 21
      vertex 53 -15 21
      vertex 30.5241 -2.1289 21
    endloop
  endfacet
  facet normal -0 0 1
    outer loop
      vertex 30.2216 -2.67913 21
      vertex 53 -15 21
      vertex 30.3815 -2.40877 21
    endloop
  endfacet
  facet normal -0 0 1
    outer loop
      vertex 30.0451 -2.93893 21
      vertex 53 -15 21
      vertex 30.2216 -2.67913 21
    endloop
  endfacet
  facet normal -0 0 1
    outer loop
      vertex 29.8526 -3.18712 21
      vertex 53 -15 21
      vertex 30.0451 -2.93893 21
    endloop
  endfacet
  facet normal -0 0 1
    outer loop
      vertex 29.6448 -3.42274 21
      vertex 53 -15 21
      vertex 29.8526 -3.18712 21
    endloop
  endfacet
  facet normal -0 0 1
    outer loop
      vertex 29.4227 -3.64484 21
      vertex 53 -15 21
      vertex 29.6448 -3.42274 21
    endloop
  endfacet
  facet normal -0 0 1
    outer loop
      vertex 29.1871 -3.85257 21
      vertex 53 -15 21
      vertex 29.4227 -3.64484 21
    endloop
  endfacet
  facet normal -0 0 1
    outer loop
      vertex 28.9389 -4.04508 21
      vertex 53 -15 21
      vertex 29.1871 -3.85257 21
    endloop
  endfacet
  facet normal -0 0 1
    outer loop
      vertex 28.6791 -4.22164 21
      vertex 53 -15 21
      vertex 28.9389 -4.04508 21
    endloop
  endfacet
  facet normal -0 0 1
    outer loop
      vertex 28.4088 -4.38153 21
      vertex 53 -15 21
      vertex 28.6791 -4.22164 21
    endloop
  endfacet
  facet normal -0 0 1
    outer loop
      vertex 28.1289 -4.52413 21
      vertex 53 -15 21
      vertex 28.4088 -4.38153 21
    endloop
  endfacet
  facet normal -0 0 1
    outer loop
      vertex 27.8406 -4.64888 21
      vertex 53 -15 21
      vertex 28.1289 -4.52413 21
    endloop
  endfacet
  facet normal -0 0 1
    outer loop
      vertex 27.5451 -4.75528 21
      vertex 53 -15 21
      vertex 27.8406 -4.64888 21
    endloop
  endfacet
  facet normal -0 0 1
    outer loop
      vertex 27.2435 -4.84292 21
      vertex 53 -15 21
      vertex 27.5451 -4.75528 21
    endloop
  endfacet
  facet normal -0 0 1
    outer loop
      vertex 26.9369 -4.91144 21
      vertex 53 -15 21
      vertex 27.2435 -4.84292 21
    endloop
  endfacet
  facet normal -0 0 1
    outer loop
      vertex 26.6267 -4.96057 21
      vertex 53 -15 21
      vertex 26.9369 -4.91144 21
    endloop
  endfacet
  facet normal -0 0 1
    outer loop
      vertex 26.314 -4.99013 21
      vertex 53 -15 21
      vertex 26.6267 -4.96057 21
    endloop
  endfacet
  facet normal 0 0 1
    outer loop
      vertex 3 -15 21
      vertex 26.314 -4.99013 21
      vertex 26 -5 21
    endloop
  endfacet
  facet normal 0 0 1
    outer loop
      vertex 3 -15 21
      vertex 26 -5 21
      vertex 25.686 -4.99013 21
    endloop
  endfacet
  facet normal 0 0 1
    outer loop
      vertex 3 -15 21
      vertex 25.686 -4.99013 21
      vertex 25.3733 -4.96057 21
    endloop
  endfacet
  facet normal 0 0 1
    outer loop
      vertex 3 -15 21
      vertex 25.3733 -4.96057 21
      vertex 25.0631 -4.91144 21
    endloop
  endfacet
  facet normal 0 0 1
    outer loop
      vertex 3 -15 21
      vertex 25.0631 -4.91144 21
      vertex 24.7565 -4.84292 21
    endloop
  endfacet
  facet normal 0 0 1
    outer loop
      vertex 3 -15 21
      vertex 24.7565 -4.84292 21
      vertex 24.4549 -4.75528 21
    endloop
  endfacet
  facet normal 0 0 1
    outer loop
      vertex 3 -15 21
      vertex 21 3.10862e-15 21
      vertex 3 15 21
    endloop
  endfacet
  facet normal 0 0 1
    outer loop
      vertex 21 3.10862e-15 21
      vertex 3 -15 21
      vertex 21.0099 -0.313952 21
    endloop
  endfacet
  facet normal 0 0 1
    outer loop
      vertex 21.0099 -0.313952 21
      vertex 3 -15 21
      vertex 21.0394 -0.626666 21
    endloop
  endfacet
  facet normal 0 0 1
    outer loop
      vertex 21.0394 -0.626666 21
      vertex 3 -15 21
      vertex 21.0886 -0.936906 21
    endloop
  endfacet
  facet normal 0 0 1
    outer loop
      vertex 21.0886 -0.936906 21
      vertex 3 -15 21
      vertex 21.1571 -1.24345 21
    endloop
  endfacet
  facet normal 0 0 1
    outer loop
      vertex 21.1571 -1.24345 21
      vertex 3 -15 21
      vertex 21.2447 -1.54508 21
    endloop
  endfacet
  facet normal 0 0 1
    outer loop
      vertex 21.2447 -1.54508 21
      vertex 3 -15 21
      vertex 21.3511 -1.84062 21
    endloop
  endfacet
  facet normal 0 0 1
    outer loop
      vertex 21.3511 -1.84062 21
      vertex 3 -15 21
      vertex 21.4759 -2.1289 21
    endloop
  endfacet
  facet normal 0 0 1
    outer loop
      vertex 21.4759 -2.1289 21
      vertex 3 -15 21
      vertex 21.6185 -2.40877 21
    endloop
  endfacet
  facet normal 0 0 1
    outer loop
      vertex 21.6185 -2.40877 21
      vertex 3 -15 21
      vertex 21.7784 -2.67913 21
    endloop
  endfacet
  facet normal 0 0 1
    outer loop
      vertex 21.7784 -2.67913 21
      vertex 3 -15 21
      vertex 21.9549 -2.93893 21
    endloop
  endfacet
  facet normal 0 0 1
    outer loop
      vertex 21.9549 -2.93893 21
      vertex 3 -15 21
      vertex 22.1474 -3.18712 21
    endloop
  endfacet
  facet normal 0 0 1
    outer loop
      vertex 22.1474 -3.18712 21
      vertex 3 -15 21
      vertex 22.3552 -3.42274 21
    endloop
  endfacet
  facet normal 0 0 1
    outer loop
      vertex 26.314 -4.99013 21
      vertex 3 -15 21
      vertex 53 -15 21
    endloop
  endfacet
  facet normal 0 0 1
    outer loop
      vertex 24.1594 -4.64888 21
      vertex 3 -15 21
      vertex 24.4549 -4.75528 21
    endloop
  endfacet
  facet normal 0 0 1
    outer loop
      vertex 23.8711 -4.52413 21
      vertex 3 -15 21
      vertex 24.1594 -4.64888 21
    endloop
  endfacet
  facet normal 0 0 1
    outer loop
      vertex 23.5912 -4.38153 21
      vertex 3 -15 21
      vertex 23.8711 -4.52413 21
    endloop
  endfacet
  facet normal 0 0 1
    outer loop
      vertex 23.3209 -4.22164 21
      vertex 3 -15 21
      vertex 23.5912 -4.38153 21
    endloop
  endfacet
  facet normal 0 0 1
    outer loop
      vertex 23.0611 -4.04508 21
      vertex 3 -15 21
      vertex 23.3209 -4.22164 21
    endloop
  endfacet
  facet normal 0 0 1
    outer loop
      vertex 22.8129 -3.85257 21
      vertex 3 -15 21
      vertex 23.0611 -4.04508 21
    endloop
  endfacet
  facet normal 0 0 1
    outer loop
      vertex 22.5773 -3.64484 21
      vertex 3 -15 21
      vertex 22.8129 -3.85257 21
    endloop
  endfacet
  facet normal 0 0 1
    outer loop
      vertex 22.3552 -3.42274 21
      vertex 3 -15 21
      vertex 22.5773 -3.64484 21
    endloop
  endfacet
  facet normal 0 0 1
    outer loop
      vertex 27.7678 1.76777 21
      vertex 27.7678 -1.76777 21
      vertex 28.5 3.10862e-15 21
    endloop
  endfacet
  facet normal 0 0 1
    outer loop
      vertex 26 2.5 21
      vertex 27.7678 -1.76777 21
      vertex 27.7678 1.76777 21
    endloop
  endfacet
  facet normal 0 0 1
    outer loop
      vertex 26 2.5 21
      vertex 26 -2.5 21
      vertex 27.7678 -1.76777 21
    endloop
  endfacet
  facet normal -0 0 1
    outer loop
      vertex 24.2322 1.76777 21
      vertex 26 -2.5 21
      vertex 26 2.5 21
    endloop
  endfacet
  facet normal 0 0 1
    outer loop
      vertex 24.2322 1.76777 21
      vertex 24.2322 -1.76777 21
      vertex 26 -2.5 21
    endloop
  endfacet
  facet normal 0 -0 1
    outer loop
      vertex 24.2322 -1.76777 21
      vertex 24.2322 1.76777 21
      vertex 23.5 3.10862e-15 21
    endloop
  endfacet
  facet normal 1 -0 0
    outer loop
      vertex 45 -15 8.66025
      vertex 45 15 -8.66025
      vertex 45 15 8.66025
    endloop
  endfacet
  facet normal 1 0 0
    outer loop
      vertex 45 15 -8.66025
      vertex 45 -15 8.66025
      vertex 45 -15 -8.66025
    endloop
  endfacet
  facet normal -0.5 0 -0.866025
    outer loop
      vertex 45 -15 8.66025
      vertex 53 15 4.04145
      vertex 53 -15 4.04145
    endloop
  endfacet
  facet normal -0.5 0 -0.866025
    outer loop
      vertex 53 15 4.04145
      vertex 45 -15 8.66025
      vertex 45 15 8.66025
    endloop
  endfacet
  facet normal -0.5 0 0.866025
    outer loop
      vertex 45 15 -8.66025
      vertex 53 -15 -4.04145
      vertex 53 15 -4.04145
    endloop
  endfacet
  facet normal -0.5 0 0.866025
    outer loop
      vertex 53 -15 -4.04145
      vertex 45 15 -8.66025
      vertex 45 -15 -8.66025
    endloop
  endfacet
  facet normal 0.975916 -0.218146 0
    outer loop
      vertex 30.8429 -1.24345 65.5
      vertex 30.9114 -0.936906 21
      vertex 30.9114 -0.936906 65.5
    endloop
  endfacet
  facet normal 0.975916 -0.218146 0
    outer loop
      vertex 30.9114 -0.936906 21
      vertex 30.8429 -1.24345 65.5
      vertex 30.8429 -1.24345 21
    endloop
  endfacet
  facet normal 0.999507 -0.0314119 1.39309e-17
    outer loop
      vertex 30.9901 -0.313952 65.5
      vertex 31 3.10862e-15 21
      vertex 31 2.28706e-14 65.5
    endloop
  endfacet
  facet normal 0.999507 -0.0314119 0
    outer loop
      vertex 31 3.10862e-15 21
      vertex 30.9901 -0.313952 65.5
      vertex 30.9901 -0.313952 21
    endloop
  endfacet
  facet normal 0.707105 -0.707108 0
    outer loop
      vertex 29.4227 -3.64484 21
      vertex 29.6448 -3.42274 65.5
      vertex 29.4227 -3.64484 65.5
    endloop
  endfacet
  facet normal 0.707105 -0.707108 0
    outer loop
      vertex 29.6448 -3.42274 65.5
      vertex 29.4227 -3.64484 21
      vertex 29.6448 -3.42274 21
    endloop
  endfacet
  facet normal -0.338741 -0.94088 0
    outer loop
      vertex 24.1594 -4.64888 21
      vertex 24.4549 -4.75528 65.5
      vertex 24.1594 -4.64888 65.5
    endloop
  endfacet
  facet normal -0.338741 -0.94088 -0
    outer loop
      vertex 24.4549 -4.75528 65.5
      vertex 24.1594 -4.64888 21
      vertex 24.4549 -4.75528 21
    endloop
  endfacet
  facet normal -0.827085 0.562077 0
    outer loop
      vertex 21.7784 2.67913 21
      vertex 21.9549 2.93893 65.5
      vertex 21.9549 2.93893 21
    endloop
  endfacet
  facet normal -0.827085 0.562077 0
    outer loop
      vertex 21.9549 2.93893 65.5
      vertex 21.7784 2.67913 21
      vertex 21.7784 2.67913 65.5
    endloop
  endfacet
  facet normal 0.960295 -0.278985 0
    outer loop
      vertex 30.7553 -1.54508 65.5
      vertex 30.8429 -1.24345 21
      vertex 30.8429 -1.24345 65.5
    endloop
  endfacet
  facet normal 0.960295 -0.278985 0
    outer loop
      vertex 30.8429 -1.24345 21
      vertex 30.7553 -1.54508 65.5
      vertex 30.7553 -1.54508 21
    endloop
  endfacet
  facet normal 0.0941082 -0.995562 0
    outer loop
      vertex 26.314 -4.99013 21
      vertex 26.6267 -4.96057 65.5
      vertex 26.314 -4.99013 65.5
    endloop
  endfacet
  facet normal 0.0941082 -0.995562 0
    outer loop
      vertex 26.6267 -4.96057 65.5
      vertex 26.314 -4.99013 21
      vertex 26.6267 -4.96057 21
    endloop
  endfacet
  facet normal 0.45399 -0.891007 0
    outer loop
      vertex 28.1289 -4.52413 21
      vertex 28.4088 -4.38153 65.5
      vertex 28.1289 -4.52413 65.5
    endloop
  endfacet
  facet normal 0.45399 -0.891007 0
    outer loop
      vertex 28.4088 -4.38153 65.5
      vertex 28.1289 -4.52413 21
      vertex 28.4088 -4.38153 21
    endloop
  endfacet
  facet normal -0.827085 -0.562077 0
    outer loop
      vertex 21.9549 -2.93893 21
      vertex 21.7784 -2.67913 65.5
      vertex 21.7784 -2.67913 21
    endloop
  endfacet
  facet normal -0.827085 -0.562077 0
    outer loop
      vertex 21.7784 -2.67913 65.5
      vertex 21.9549 -2.93893 21
      vertex 21.9549 -2.93893 65.5
    endloop
  endfacet
  facet normal -0.995562 -0.0941082 0
    outer loop
      vertex 21.0394 -0.626666 21
      vertex 21.0099 -0.313952 65.5
      vertex 21.0099 -0.313952 21
    endloop
  endfacet
  facet normal -0.995562 -0.0941082 0
    outer loop
      vertex 21.0099 -0.313952 65.5
      vertex 21.0394 -0.626666 21
      vertex 21.0394 -0.626666 65.5
    endloop
  endfacet
  facet normal -0.612911 -0.790152 0
    outer loop
      vertex 22.8129 -3.85257 21
      vertex 23.0611 -4.04508 65.5
      vertex 22.8129 -3.85257 65.5
    endloop
  endfacet
  facet normal -0.612911 -0.790152 -0
    outer loop
      vertex 23.0611 -4.04508 65.5
      vertex 22.8129 -3.85257 21
      vertex 23.0611 -4.04508 21
    endloop
  endfacet
  facet normal 0.891005 0.453993 0
    outer loop
      vertex 30.5241 2.1289 65.5
      vertex 30.3815 2.40877 21
      vertex 30.3815 2.40877 65.5
    endloop
  endfacet
  facet normal 0.891005 0.453993 0
    outer loop
      vertex 30.3815 2.40877 21
      vertex 30.5241 2.1289 65.5
      vertex 30.5241 2.1289 21
    endloop
  endfacet
  facet normal 0.218142 0.975917 -0
    outer loop
      vertex 27.2435 4.84292 21
      vertex 26.9369 4.91144 65.5
      vertex 27.2435 4.84292 65.5
    endloop
  endfacet
  facet normal 0.218142 0.975917 0
    outer loop
      vertex 26.9369 4.91144 65.5
      vertex 27.2435 4.84292 21
      vertex 26.9369 4.91144 21
    endloop
  endfacet
  facet normal 0.707105 0.707108 -0
    outer loop
      vertex 29.6448 3.42274 21
      vertex 29.4227 3.64484 65.5
      vertex 29.6448 3.42274 65.5
    endloop
  endfacet
  facet normal 0.707105 0.707108 0
    outer loop
      vertex 29.4227 3.64484 65.5
      vertex 29.6448 3.42274 21
      vertex 29.4227 3.64484 21
    endloop
  endfacet
  facet normal 0.987688 0.156434 0
    outer loop
      vertex 30.9606 0.626666 65.5
      vertex 30.9114 0.936906 21
      vertex 30.9114 0.936906 65.5
    endloop
  endfacet
  facet normal 0.987688 0.156434 0
    outer loop
      vertex 30.9114 0.936906 21
      vertex 30.9606 0.626666 65.5
      vertex 30.9606 0.626666 21
    endloop
  endfacet
  facet normal -0.338741 0.94088 0
    outer loop
      vertex 24.4549 4.75528 21
      vertex 24.1594 4.64888 65.5
      vertex 24.4549 4.75528 65.5
    endloop
  endfacet
  facet normal -0.338741 0.94088 0
    outer loop
      vertex 24.1594 4.64888 65.5
      vertex 24.4549 4.75528 21
      vertex 24.1594 4.64888 21
    endloop
  endfacet
  facet normal 0.891005 -0.453993 0
    outer loop
      vertex 30.3815 -2.40877 65.5
      vertex 30.5241 -2.1289 21
      vertex 30.5241 -2.1289 65.5
    endloop
  endfacet
  facet normal 0.891005 -0.453993 0
    outer loop
      vertex 30.5241 -2.1289 21
      vertex 30.3815 -2.40877 65.5
      vertex 30.3815 -2.40877 21
    endloop
  endfacet
  facet normal 0.750113 -0.661309 0
    outer loop
      vertex 29.6448 -3.42274 65.5
      vertex 29.8526 -3.18712 21
      vertex 29.8526 -3.18712 65.5
    endloop
  endfacet
  facet normal 0.750113 -0.661309 0
    outer loop
      vertex 29.8526 -3.18712 21
      vertex 29.6448 -3.42274 65.5
      vertex 29.6448 -3.42274 21
    endloop
  endfacet
  facet normal 0.218142 -0.975917 0
    outer loop
      vertex 26.9369 -4.91144 21
      vertex 27.2435 -4.84292 65.5
      vertex 26.9369 -4.91144 65.5
    endloop
  endfacet
  facet normal 0.218142 -0.975917 0
    outer loop
      vertex 27.2435 -4.84292 65.5
      vertex 26.9369 -4.91144 21
      vertex 27.2435 -4.84292 21
    endloop
  endfacet
  facet normal 0.338741 -0.94088 0
    outer loop
      vertex 27.5451 -4.75528 21
      vertex 27.8406 -4.64888 65.5
      vertex 27.5451 -4.75528 65.5
    endloop
  endfacet
  facet normal 0.338741 -0.94088 0
    outer loop
      vertex 27.8406 -4.64888 65.5
      vertex 27.5451 -4.75528 21
      vertex 27.8406 -4.64888 21
    endloop
  endfacet
  facet normal 0.156435 -0.987688 0
    outer loop
      vertex 26.6267 -4.96057 21
      vertex 26.9369 -4.91144 65.5
      vertex 26.6267 -4.96057 65.5
    endloop
  endfacet
  facet normal 0.156435 -0.987688 0
    outer loop
      vertex 26.9369 -4.91144 65.5
      vertex 26.6267 -4.96057 21
      vertex 26.9369 -4.91144 21
    endloop
  endfacet
  facet normal 0.612911 -0.790152 0
    outer loop
      vertex 28.9389 -4.04508 21
      vertex 29.1871 -3.85257 65.5
      vertex 28.9389 -4.04508 65.5
    endloop
  endfacet
  facet normal 0.612911 -0.790152 0
    outer loop
      vertex 29.1871 -3.85257 65.5
      vertex 28.9389 -4.04508 21
      vertex 29.1871 -3.85257 21
    endloop
  endfacet
  facet normal 0.562081 -0.827082 0
    outer loop
      vertex 28.6791 -4.22164 21
      vertex 28.9389 -4.04508 65.5
      vertex 28.6791 -4.22164 65.5
    endloop
  endfacet
  facet normal 0.562081 -0.827082 0
    outer loop
      vertex 28.9389 -4.04508 65.5
      vertex 28.6791 -4.22164 21
      vertex 28.9389 -4.04508 21
    endloop
  endfacet
  facet normal -0.975916 -0.218146 0
    outer loop
      vertex 21.1571 -1.24345 21
      vertex 21.0886 -0.936906 65.5
      vertex 21.0886 -0.936906 21
    endloop
  endfacet
  facet normal -0.975916 -0.218146 0
    outer loop
      vertex 21.0886 -0.936906 65.5
      vertex 21.1571 -1.24345 21
      vertex 21.1571 -1.24345 65.5
    endloop
  endfacet
  facet normal -0.707105 -0.707108 0
    outer loop
      vertex 22.3552 -3.42274 21
      vertex 22.5773 -3.64484 65.5
      vertex 22.3552 -3.42274 65.5
    endloop
  endfacet
  facet normal -0.707105 -0.707108 -0
    outer loop
      vertex 22.5773 -3.64484 65.5
      vertex 22.3552 -3.42274 21
      vertex 22.5773 -3.64484 21
    endloop
  endfacet
  facet normal -0.940879 -0.338742 0
    outer loop
      vertex 21.3511 -1.84062 21
      vertex 21.2447 -1.54508 65.5
      vertex 21.2447 -1.54508 21
    endloop
  endfacet
  facet normal -0.940879 -0.338742 0
    outer loop
      vertex 21.2447 -1.54508 65.5
      vertex 21.3511 -1.84062 21
      vertex 21.3511 -1.84062 65.5
    endloop
  endfacet
  facet normal -0.50904 -0.860743 0
    outer loop
      vertex 23.3209 -4.22164 21
      vertex 23.5912 -4.38153 65.5
      vertex 23.3209 -4.22164 65.5
    endloop
  endfacet
  facet normal -0.50904 -0.860743 -0
    outer loop
      vertex 23.5912 -4.38153 65.5
      vertex 23.3209 -4.22164 21
      vertex 23.5912 -4.38153 21
    endloop
  endfacet
  facet normal -0.0941082 -0.995562 0
    outer loop
      vertex 25.3733 -4.96057 21
      vertex 25.686 -4.99013 65.5
      vertex 25.3733 -4.96057 65.5
    endloop
  endfacet
  facet normal -0.0941082 -0.995562 -0
    outer loop
      vertex 25.686 -4.99013 65.5
      vertex 25.3733 -4.96057 21
      vertex 25.686 -4.99013 21
    endloop
  endfacet
  facet normal -0.278991 -0.960294 0
    outer loop
      vertex 24.4549 -4.75528 21
      vertex 24.7565 -4.84292 65.5
      vertex 24.4549 -4.75528 65.5
    endloop
  endfacet
  facet normal -0.278991 -0.960294 -0
    outer loop
      vertex 24.7565 -4.84292 65.5
      vertex 24.4549 -4.75528 21
      vertex 24.7565 -4.84292 21
    endloop
  endfacet
  facet normal -0.156435 -0.987688 0
    outer loop
      vertex 25.0631 -4.91144 21
      vertex 25.3733 -4.96057 65.5
      vertex 25.0631 -4.91144 65.5
    endloop
  endfacet
  facet normal -0.156435 -0.987688 -0
    outer loop
      vertex 25.3733 -4.96057 65.5
      vertex 25.0631 -4.91144 21
      vertex 25.3733 -4.96057 21
    endloop
  endfacet
  facet normal 0.156435 0.987688 -0
    outer loop
      vertex 26.9369 4.91144 21
      vertex 26.6267 4.96057 65.5
      vertex 26.9369 4.91144 65.5
    endloop
  endfacet
  facet normal 0.156435 0.987688 0
    outer loop
      vertex 26.6267 4.96057 65.5
      vertex 26.9369 4.91144 21
      vertex 26.6267 4.96057 21
    endloop
  endfacet
  facet normal -0.156435 0.987688 0
    outer loop
      vertex 25.3733 4.96057 21
      vertex 25.0631 4.91144 65.5
      vertex 25.3733 4.96057 65.5
    endloop
  endfacet
  facet normal -0.156435 0.987688 0
    outer loop
      vertex 25.0631 4.91144 65.5
      vertex 25.3733 4.96057 21
      vertex 25.0631 4.91144 21
    endloop
  endfacet
  facet normal -0.707105 0.707108 0
    outer loop
      vertex 22.5773 3.64484 21
      vertex 22.3552 3.42274 65.5
      vertex 22.5773 3.64484 65.5
    endloop
  endfacet
  facet normal -0.707105 0.707108 0
    outer loop
      vertex 22.3552 3.42274 65.5
      vertex 22.5773 3.64484 21
      vertex 22.3552 3.42274 21
    endloop
  endfacet
  facet normal -0.0941082 0.995562 0
    outer loop
      vertex 25.686 4.99013 21
      vertex 25.3733 4.96057 65.5
      vertex 25.686 4.99013 65.5
    endloop
  endfacet
  facet normal -0.0941082 0.995562 0
    outer loop
      vertex 25.3733 4.96057 65.5
      vertex 25.686 4.99013 21
      vertex 25.3733 4.96057 21
    endloop
  endfacet
  facet normal -0.612911 0.790152 0
    outer loop
      vertex 23.0611 4.04508 21
      vertex 22.8129 3.85257 65.5
      vertex 23.0611 4.04508 65.5
    endloop
  endfacet
  facet normal -0.612911 0.790152 0
    outer loop
      vertex 22.8129 3.85257 65.5
      vertex 23.0611 4.04508 21
      vertex 22.8129 3.85257 21
    endloop
  endfacet
  facet normal -0.750113 0.661309 0
    outer loop
      vertex 22.1474 3.18712 21
      vertex 22.3552 3.42274 65.5
      vertex 22.3552 3.42274 21
    endloop
  endfacet
  facet normal -0.750113 0.661309 0
    outer loop
      vertex 22.3552 3.42274 65.5
      vertex 22.1474 3.18712 21
      vertex 22.1474 3.18712 65.5
    endloop
  endfacet
  facet normal -0.917756 0.397145 0
    outer loop
      vertex 21.3511 1.84062 21
      vertex 21.4759 2.1289 65.5
      vertex 21.4759 2.1289 21
    endloop
  endfacet
  facet normal -0.917756 0.397145 0
    outer loop
      vertex 21.4759 2.1289 65.5
      vertex 21.3511 1.84062 21
      vertex 21.3511 1.84062 65.5
    endloop
  endfacet
  facet normal 0 0 1
    outer loop
      vertex 28.5 2.28706e-14 65.5
      vertex 31 2.28706e-14 65.5
      vertex 30.9901 0.313952 65.5
    endloop
  endfacet
  facet normal 0 0 1
    outer loop
      vertex 28.5 2.28706e-14 65.5
      vertex 30.9901 0.313952 65.5
      vertex 30.9606 0.626666 65.5
    endloop
  endfacet
  facet normal 0 0 1
    outer loop
      vertex 31 2.28706e-14 65.5
      vertex 28.5 2.28706e-14 65.5
      vertex 30.9901 -0.313952 65.5
    endloop
  endfacet
  facet normal 0 0 1
    outer loop
      vertex 28.5 2.28706e-14 65.5
      vertex 30.9606 0.626666 65.5
      vertex 30.9114 0.936906 65.5
    endloop
  endfacet
  facet normal 0 0 1
    outer loop
      vertex 30.9901 -0.313952 65.5
      vertex 28.5 2.28706e-14 65.5
      vertex 30.9606 -0.626666 65.5
    endloop
  endfacet
  facet normal 0 0 1
    outer loop
      vertex 28.5 2.28706e-14 65.5
      vertex 30.9114 0.936906 65.5
      vertex 30.8429 1.24345 65.5
    endloop
  endfacet
  facet normal 0 0 1
    outer loop
      vertex 30.9606 -0.626666 65.5
      vertex 28.5 2.28706e-14 65.5
      vertex 30.9114 -0.936906 65.5
    endloop
  endfacet
  facet normal 0 0 1
    outer loop
      vertex 28.5 2.28706e-14 65.5
      vertex 30.8429 1.24345 65.5
      vertex 30.7553 1.54508 65.5
    endloop
  endfacet
  facet normal 0 0 1
    outer loop
      vertex 30.9114 -0.936906 65.5
      vertex 28.5 2.28706e-14 65.5
      vertex 30.8429 -1.24345 65.5
    endloop
  endfacet
  facet normal 0 0 1
    outer loop
      vertex 28.5 2.28706e-14 65.5
      vertex 30.7553 1.54508 65.5
      vertex 30.6489 1.84062 65.5
    endloop
  endfacet
  facet normal 0 0 1
    outer loop
      vertex 30.8429 -1.24345 65.5
      vertex 28.5 2.28706e-14 65.5
      vertex 30.7553 -1.54508 65.5
    endloop
  endfacet
  facet normal 0 0 1
    outer loop
      vertex 27.7678 1.76777 65.5
      vertex 30.6489 1.84062 65.5
      vertex 30.5241 2.1289 65.5
    endloop
  endfacet
  facet normal 0 0 1
    outer loop
      vertex 30.7553 -1.54508 65.5
      vertex 28.5 2.28706e-14 65.5
      vertex 30.6489 -1.84062 65.5
    endloop
  endfacet
  facet normal 0 0 1
    outer loop
      vertex 27.7678 1.76777 65.5
      vertex 30.5241 2.1289 65.5
      vertex 30.3815 2.40877 65.5
    endloop
  endfacet
  facet normal -0 0 1
    outer loop
      vertex 27.7678 -1.76777 65.5
      vertex 30.6489 -1.84062 65.5
      vertex 28.5 2.28706e-14 65.5
    endloop
  endfacet
  facet normal 0 0 1
    outer loop
      vertex 27.7678 1.76777 65.5
      vertex 30.3815 2.40877 65.5
      vertex 30.2216 2.67913 65.5
    endloop
  endfacet
  facet normal 0 0 1
    outer loop
      vertex 30.6489 -1.84062 65.5
      vertex 27.7678 -1.76777 65.5
      vertex 30.5241 -2.1289 65.5
    endloop
  endfacet
  facet normal 0 0 1
    outer loop
      vertex 27.7678 1.76777 65.5
      vertex 30.2216 2.67913 65.5
      vertex 30.0451 2.93893 65.5
    endloop
  endfacet
  facet normal 0 0 1
    outer loop
      vertex 30.5241 -2.1289 65.5
      vertex 27.7678 -1.76777 65.5
      vertex 30.3815 -2.40877 65.5
    endloop
  endfacet
  facet normal 0 0 1
    outer loop
      vertex 27.7678 1.76777 65.5
      vertex 30.0451 2.93893 65.5
      vertex 29.8526 3.18712 65.5
    endloop
  endfacet
  facet normal 0 0 1
    outer loop
      vertex 30.3815 -2.40877 65.5
      vertex 27.7678 -1.76777 65.5
      vertex 30.2216 -2.67913 65.5
    endloop
  endfacet
  facet normal 0 0 1
    outer loop
      vertex 27.7678 1.76777 65.5
      vertex 29.8526 3.18712 65.5
      vertex 29.6448 3.42274 65.5
    endloop
  endfacet
  facet normal 0 0 1
    outer loop
      vertex 30.2216 -2.67913 65.5
      vertex 27.7678 -1.76777 65.5
      vertex 30.0451 -2.93893 65.5
    endloop
  endfacet
  facet normal 0 0 1
    outer loop
      vertex 27.7678 1.76777 65.5
      vertex 29.6448 3.42274 65.5
      vertex 29.4227 3.64484 65.5
    endloop
  endfacet
  facet normal 0 0 1
    outer loop
      vertex 30.0451 -2.93893 65.5
      vertex 27.7678 -1.76777 65.5
      vertex 29.8526 -3.18712 65.5
    endloop
  endfacet
  facet normal 0 0 1
    outer loop
      vertex 27.7678 1.76777 65.5
      vertex 29.4227 3.64484 65.5
      vertex 29.1871 3.85257 65.5
    endloop
  endfacet
  facet normal 0 0 1
    outer loop
      vertex 29.8526 -3.18712 65.5
      vertex 27.7678 -1.76777 65.5
      vertex 29.6448 -3.42274 65.5
    endloop
  endfacet
  facet normal 0 0 1
    outer loop
      vertex 27.7678 1.76777 65.5
      vertex 29.1871 3.85257 65.5
      vertex 28.9389 4.04508 65.5
    endloop
  endfacet
  facet normal 0 0 1
    outer loop
      vertex 29.6448 -3.42274 65.5
      vertex 27.7678 -1.76777 65.5
      vertex 29.4227 -3.64484 65.5
    endloop
  endfacet
  facet normal 0 0 1
    outer loop
      vertex 27.7678 1.76777 65.5
      vertex 28.9389 4.04508 65.5
      vertex 28.6791 4.22164 65.5
    endloop
  endfacet
  facet normal 0 0 1
    outer loop
      vertex 29.4227 -3.64484 65.5
      vertex 27.7678 -1.76777 65.5
      vertex 29.1871 -3.85257 65.5
    endloop
  endfacet
  facet normal 0 0 1
    outer loop
      vertex 29.1871 -3.85257 65.5
      vertex 27.7678 -1.76777 65.5
      vertex 28.9389 -4.04508 65.5
    endloop
  endfacet
  facet normal 0 0 1
    outer loop
      vertex 27.7678 1.76777 65.5
      vertex 28.6791 4.22164 65.5
      vertex 28.4088 4.38153 65.5
    endloop
  endfacet
  facet normal 0 0 1
    outer loop
      vertex 27.7678 1.76777 65.5
      vertex 28.4088 4.38153 65.5
      vertex 28.1289 4.52413 65.5
    endloop
  endfacet
  facet normal 0 0 1
    outer loop
      vertex 27.7678 1.76777 65.5
      vertex 28.1289 4.52413 65.5
      vertex 27.8406 4.64888 65.5
    endloop
  endfacet
  facet normal 0 0 1
    outer loop
      vertex 30.6489 1.84062 65.5
      vertex 27.7678 1.76777 65.5
      vertex 28.5 2.28706e-14 65.5
    endloop
  endfacet
  facet normal 0 0 1
    outer loop
      vertex 26 2.5 65.5
      vertex 27.8406 4.64888 65.5
      vertex 27.5451 4.75528 65.5
    endloop
  endfacet
  facet normal 0 0 1
    outer loop
      vertex 26 2.5 65.5
      vertex 27.5451 4.75528 65.5
      vertex 27.2435 4.84292 65.5
    endloop
  endfacet
  facet normal 0 0 1
    outer loop
      vertex 26 2.5 65.5
      vertex 27.2435 4.84292 65.5
      vertex 26.9369 4.91144 65.5
    endloop
  endfacet
  facet normal 0 0 1
    outer loop
      vertex 26 2.5 65.5
      vertex 26.9369 4.91144 65.5
      vertex 26.6267 4.96057 65.5
    endloop
  endfacet
  facet normal 0 0 1
    outer loop
      vertex 26 2.5 65.5
      vertex 26.6267 4.96057 65.5
      vertex 26.314 4.99013 65.5
    endloop
  endfacet
  facet normal 0 0 1
    outer loop
      vertex 26 2.5 65.5
      vertex 26.314 4.99013 65.5
      vertex 26 5 65.5
    endloop
  endfacet
  facet normal 0 0 1
    outer loop
      vertex 27.8406 4.64888 65.5
      vertex 26 2.5 65.5
      vertex 27.7678 1.76777 65.5
    endloop
  endfacet
  facet normal -0 0 1
    outer loop
      vertex 25.686 4.99013 65.5
      vertex 26 2.5 65.5
      vertex 26 5 65.5
    endloop
  endfacet
  facet normal -0 0 1
    outer loop
      vertex 25.3733 4.96057 65.5
      vertex 26 2.5 65.5
      vertex 25.686 4.99013 65.5
    endloop
  endfacet
  facet normal -0 0 1
    outer loop
      vertex 25.0631 4.91144 65.5
      vertex 26 2.5 65.5
      vertex 25.3733 4.96057 65.5
    endloop
  endfacet
  facet normal -0 0 1
    outer loop
      vertex 24.7565 4.84292 65.5
      vertex 26 2.5 65.5
      vertex 25.0631 4.91144 65.5
    endloop
  endfacet
  facet normal -0 0 1
    outer loop
      vertex 24.4549 4.75528 65.5
      vertex 26 2.5 65.5
      vertex 24.7565 4.84292 65.5
    endloop
  endfacet
  facet normal -0 0 1
    outer loop
      vertex 24.1594 4.64888 65.5
      vertex 26 2.5 65.5
      vertex 24.4549 4.75528 65.5
    endloop
  endfacet
  facet normal 0 0 1
    outer loop
      vertex 26 2.5 65.5
      vertex 24.1594 4.64888 65.5
      vertex 24.2322 1.76777 65.5
    endloop
  endfacet
  facet normal -0 0 1
    outer loop
      vertex 23.8711 4.52413 65.5
      vertex 24.2322 1.76777 65.5
      vertex 24.1594 4.64888 65.5
    endloop
  endfacet
  facet normal -0 0 1
    outer loop
      vertex 23.5912 4.38153 65.5
      vertex 24.2322 1.76777 65.5
      vertex 23.8711 4.52413 65.5
    endloop
  endfacet
  facet normal -0 0 1
    outer loop
      vertex 23.3209 4.22164 65.5
      vertex 24.2322 1.76777 65.5
      vertex 23.5912 4.38153 65.5
    endloop
  endfacet
  facet normal -0 0 1
    outer loop
      vertex 23.0611 4.04508 65.5
      vertex 24.2322 1.76777 65.5
      vertex 23.3209 4.22164 65.5
    endloop
  endfacet
  facet normal 0 0 1
    outer loop
      vertex 28.9389 -4.04508 65.5
      vertex 27.7678 -1.76777 65.5
      vertex 28.6791 -4.22164 65.5
    endloop
  endfacet
  facet normal 0 0 1
    outer loop
      vertex 28.6791 -4.22164 65.5
      vertex 27.7678 -1.76777 65.5
      vertex 28.4088 -4.38153 65.5
    endloop
  endfacet
  facet normal 0 0 1
    outer loop
      vertex 28.4088 -4.38153 65.5
      vertex 27.7678 -1.76777 65.5
      vertex 28.1289 -4.52413 65.5
    endloop
  endfacet
  facet normal 0 0 1
    outer loop
      vertex 28.1289 -4.52413 65.5
      vertex 27.7678 -1.76777 65.5
      vertex 27.8406 -4.64888 65.5
    endloop
  endfacet
  facet normal -0 0 1
    outer loop
      vertex 26 -2.5 65.5
      vertex 27.8406 -4.64888 65.5
      vertex 27.7678 -1.76777 65.5
    endloop
  endfacet
  facet normal 0 0 1
    outer loop
      vertex 27.8406 -4.64888 65.5
      vertex 26 -2.5 65.5
      vertex 27.5451 -4.75528 65.5
    endloop
  endfacet
  facet normal 0 0 1
    outer loop
      vertex 27.5451 -4.75528 65.5
      vertex 26 -2.5 65.5
      vertex 27.2435 -4.84292 65.5
    endloop
  endfacet
  facet normal 0 0 1
    outer loop
      vertex 27.2435 -4.84292 65.5
      vertex 26 -2.5 65.5
      vertex 26.9369 -4.91144 65.5
    endloop
  endfacet
  facet normal 0 0 1
    outer loop
      vertex 26.9369 -4.91144 65.5
      vertex 26 -2.5 65.5
      vertex 26.6267 -4.96057 65.5
    endloop
  endfacet
  facet normal 0 0 1
    outer loop
      vertex 26.6267 -4.96057 65.5
      vertex 26 -2.5 65.5
      vertex 26.314 -4.99013 65.5
    endloop
  endfacet
  facet normal 0 0 1
    outer loop
      vertex 26 -2.5 65.5
      vertex 26 -5 65.5
      vertex 26.314 -4.99013 65.5
    endloop
  endfacet
  facet normal 0 0 1
    outer loop
      vertex 26 -2.5 65.5
      vertex 25.686 -4.99013 65.5
      vertex 26 -5 65.5
    endloop
  endfacet
  facet normal 0 0 1
    outer loop
      vertex 26 -2.5 65.5
      vertex 25.3733 -4.96057 65.5
      vertex 25.686 -4.99013 65.5
    endloop
  endfacet
  facet normal 0 0 1
    outer loop
      vertex 26 -2.5 65.5
      vertex 25.0631 -4.91144 65.5
      vertex 25.3733 -4.96057 65.5
    endloop
  endfacet
  facet normal 0 0 1
    outer loop
      vertex 26 -2.5 65.5
      vertex 24.7565 -4.84292 65.5
      vertex 25.0631 -4.91144 65.5
    endloop
  endfacet
  facet normal 0 0 1
    outer loop
      vertex 26 -2.5 65.5
      vertex 24.4549 -4.75528 65.5
      vertex 24.7565 -4.84292 65.5
    endloop
  endfacet
  facet normal 0 0 1
    outer loop
      vertex 24.1594 -4.64888 65.5
      vertex 26 -2.5 65.5
      vertex 24.2322 -1.76777 65.5
    endloop
  endfacet
  facet normal 0 0 1
    outer loop
      vertex 26 -2.5 65.5
      vertex 24.1594 -4.64888 65.5
      vertex 24.4549 -4.75528 65.5
    endloop
  endfacet
  facet normal 0 0 1
    outer loop
      vertex 24.2322 -1.76777 65.5
      vertex 23.8711 -4.52413 65.5
      vertex 24.1594 -4.64888 65.5
    endloop
  endfacet
  facet normal 0 0 1
    outer loop
      vertex 24.2322 -1.76777 65.5
      vertex 23.5912 -4.38153 65.5
      vertex 23.8711 -4.52413 65.5
    endloop
  endfacet
  facet normal 0 0 1
    outer loop
      vertex 21.3511 -1.84062 65.5
      vertex 24.2322 -1.76777 65.5
      vertex 23.5 2.28706e-14 65.5
    endloop
  endfacet
  facet normal -0 0 1
    outer loop
      vertex 22.8129 3.85257 65.5
      vertex 24.2322 1.76777 65.5
      vertex 23.0611 4.04508 65.5
    endloop
  endfacet
  facet normal 0 0 1
    outer loop
      vertex 24.2322 -1.76777 65.5
      vertex 23.3209 -4.22164 65.5
      vertex 23.5912 -4.38153 65.5
    endloop
  endfacet
  facet normal -0 0 1
    outer loop
      vertex 22.5773 3.64484 65.5
      vertex 24.2322 1.76777 65.5
      vertex 22.8129 3.85257 65.5
    endloop
  endfacet
  facet normal 0 0 1
    outer loop
      vertex 24.2322 -1.76777 65.5
      vertex 23.0611 -4.04508 65.5
      vertex 23.3209 -4.22164 65.5
    endloop
  endfacet
  facet normal -0 0 1
    outer loop
      vertex 22.3552 3.42274 65.5
      vertex 24.2322 1.76777 65.5
      vertex 22.5773 3.64484 65.5
    endloop
  endfacet
  facet normal 0 0 1
    outer loop
      vertex 24.2322 -1.76777 65.5
      vertex 22.8129 -3.85257 65.5
      vertex 23.0611 -4.04508 65.5
    endloop
  endfacet
  facet normal -0 0 1
    outer loop
      vertex 22.1474 3.18712 65.5
      vertex 24.2322 1.76777 65.5
      vertex 22.3552 3.42274 65.5
    endloop
  endfacet
  facet normal 0 0 1
    outer loop
      vertex 24.2322 -1.76777 65.5
      vertex 22.5773 -3.64484 65.5
      vertex 22.8129 -3.85257 65.5
    endloop
  endfacet
  facet normal -0 0 1
    outer loop
      vertex 21.9549 2.93893 65.5
      vertex 24.2322 1.76777 65.5
      vertex 22.1474 3.18712 65.5
    endloop
  endfacet
  facet normal 0 0 1
    outer loop
      vertex 24.2322 -1.76777 65.5
      vertex 22.3552 -3.42274 65.5
      vertex 22.5773 -3.64484 65.5
    endloop
  endfacet
  facet normal -0 0 1
    outer loop
      vertex 21.7784 2.67913 65.5
      vertex 24.2322 1.76777 65.5
      vertex 21.9549 2.93893 65.5
    endloop
  endfacet
  facet normal 0 0 1
    outer loop
      vertex 24.2322 -1.76777 65.5
      vertex 22.1474 -3.18712 65.5
      vertex 22.3552 -3.42274 65.5
    endloop
  endfacet
  facet normal -0 0 1
    outer loop
      vertex 21.6185 2.40877 65.5
      vertex 24.2322 1.76777 65.5
      vertex 21.7784 2.67913 65.5
    endloop
  endfacet
  facet normal 0 0 1
    outer loop
      vertex 24.2322 -1.76777 65.5
      vertex 21.9549 -2.93893 65.5
      vertex 22.1474 -3.18712 65.5
    endloop
  endfacet
  facet normal -0 0 1
    outer loop
      vertex 21.4759 2.1289 65.5
      vertex 24.2322 1.76777 65.5
      vertex 21.6185 2.40877 65.5
    endloop
  endfacet
  facet normal 0 0 1
    outer loop
      vertex 24.2322 -1.76777 65.5
      vertex 21.7784 -2.67913 65.5
      vertex 21.9549 -2.93893 65.5
    endloop
  endfacet
  facet normal -0 0 1
    outer loop
      vertex 21.3511 1.84062 65.5
      vertex 24.2322 1.76777 65.5
      vertex 21.4759 2.1289 65.5
    endloop
  endfacet
  facet normal 0 0 1
    outer loop
      vertex 24.2322 -1.76777 65.5
      vertex 21.6185 -2.40877 65.5
      vertex 21.7784 -2.67913 65.5
    endloop
  endfacet
  facet normal 0 0 1
    outer loop
      vertex 24.2322 1.76777 65.5
      vertex 21.3511 1.84062 65.5
      vertex 23.5 2.28706e-14 65.5
    endloop
  endfacet
  facet normal 0 0 1
    outer loop
      vertex 24.2322 -1.76777 65.5
      vertex 21.4759 -2.1289 65.5
      vertex 21.6185 -2.40877 65.5
    endloop
  endfacet
  facet normal -0 0 1
    outer loop
      vertex 21.2447 1.54508 65.5
      vertex 23.5 2.28706e-14 65.5
      vertex 21.3511 1.84062 65.5
    endloop
  endfacet
  facet normal 0 0 1
    outer loop
      vertex 24.2322 -1.76777 65.5
      vertex 21.3511 -1.84062 65.5
      vertex 21.4759 -2.1289 65.5
    endloop
  endfacet
  facet normal -0 0 1
    outer loop
      vertex 21.1571 1.24345 65.5
      vertex 23.5 2.28706e-14 65.5
      vertex 21.2447 1.54508 65.5
    endloop
  endfacet
  facet normal 0 0 1
    outer loop
      vertex 23.5 2.28706e-14 65.5
      vertex 21.2447 -1.54508 65.5
      vertex 21.3511 -1.84062 65.5
    endloop
  endfacet
  facet normal -0 0 1
    outer loop
      vertex 21.0886 0.936906 65.5
      vertex 23.5 2.28706e-14 65.5
      vertex 21.1571 1.24345 65.5
    endloop
  endfacet
  facet normal 0 0 1
    outer loop
      vertex 23.5 2.28706e-14 65.5
      vertex 21.1571 -1.24345 65.5
      vertex 21.2447 -1.54508 65.5
    endloop
  endfacet
  facet normal -0 0 1
    outer loop
      vertex 21.0394 0.626666 65.5
      vertex 23.5 2.28706e-14 65.5
      vertex 21.0886 0.936906 65.5
    endloop
  endfacet
  facet normal 0 0 1
    outer loop
      vertex 23.5 2.28706e-14 65.5
      vertex 21.0886 -0.936906 65.5
      vertex 21.1571 -1.24345 65.5
    endloop
  endfacet
  facet normal -0 0 1
    outer loop
      vertex 21.0099 0.313952 65.5
      vertex 23.5 2.28706e-14 65.5
      vertex 21.0394 0.626666 65.5
    endloop
  endfacet
  facet normal 0 0 1
    outer loop
      vertex 23.5 2.28706e-14 65.5
      vertex 21.0394 -0.626666 65.5
      vertex 21.0886 -0.936906 65.5
    endloop
  endfacet
  facet normal 0 0 1
    outer loop
      vertex 21 2.28706e-14 65.5
      vertex 23.5 2.28706e-14 65.5
      vertex 21.0099 0.313952 65.5
    endloop
  endfacet
  facet normal 0 0 1
    outer loop
      vertex 23.5 2.28706e-14 65.5
      vertex 21.0099 -0.313952 65.5
      vertex 21.0394 -0.626666 65.5
    endloop
  endfacet
  facet normal 0 0 1
    outer loop
      vertex 23.5 2.28706e-14 65.5
      vertex 21 2.28706e-14 65.5
      vertex 21.0099 -0.313952 65.5
    endloop
  endfacet
  facet normal 0.995562 -0.0941082 0
    outer loop
      vertex 30.9606 -0.626666 65.5
      vertex 30.9901 -0.313952 21
      vertex 30.9901 -0.313952 65.5
    endloop
  endfacet
  facet normal 0.995562 -0.0941082 0
    outer loop
      vertex 30.9901 -0.313952 21
      vertex 30.9606 -0.626666 65.5
      vertex 30.9606 -0.626666 21
    endloop
  endfacet
  facet normal 0.987688 -0.156434 0
    outer loop
      vertex 30.9114 -0.936906 65.5
      vertex 30.9606 -0.626666 21
      vertex 30.9606 -0.626666 65.5
    endloop
  endfacet
  facet normal 0.987688 -0.156434 0
    outer loop
      vertex 30.9606 -0.626666 21
      vertex 30.9114 -0.936906 65.5
      vertex 30.9114 -0.936906 21
    endloop
  endfacet
  facet normal 0.917756 -0.397145 0
    outer loop
      vertex 30.5241 -2.1289 65.5
      vertex 30.6489 -1.84062 21
      vertex 30.6489 -1.84062 65.5
    endloop
  endfacet
  facet normal 0.917756 -0.397145 0
    outer loop
      vertex 30.6489 -1.84062 21
      vertex 30.5241 -2.1289 65.5
      vertex 30.5241 -2.1289 21
    endloop
  endfacet
  facet normal 0.940879 -0.338742 0
    outer loop
      vertex 30.6489 -1.84062 65.5
      vertex 30.7553 -1.54508 21
      vertex 30.7553 -1.54508 65.5
    endloop
  endfacet
  facet normal 0.940879 -0.338742 0
    outer loop
      vertex 30.7553 -1.54508 21
      vertex 30.6489 -1.84062 65.5
      vertex 30.6489 -1.84062 21
    endloop
  endfacet
  facet normal 0.790153 -0.61291 0
    outer loop
      vertex 29.8526 -3.18712 65.5
      vertex 30.0451 -2.93893 21
      vertex 30.0451 -2.93893 65.5
    endloop
  endfacet
  facet normal 0.790153 -0.61291 0
    outer loop
      vertex 30.0451 -2.93893 21
      vertex 29.8526 -3.18712 65.5
      vertex 29.8526 -3.18712 21
    endloop
  endfacet
  facet normal 0.86074 -0.509044 0
    outer loop
      vertex 30.2216 -2.67913 65.5
      vertex 30.3815 -2.40877 21
      vertex 30.3815 -2.40877 65.5
    endloop
  endfacet
  facet normal 0.86074 -0.509044 0
    outer loop
      vertex 30.3815 -2.40877 21
      vertex 30.2216 -2.67913 65.5
      vertex 30.2216 -2.67913 21
    endloop
  endfacet
  facet normal 0.827085 -0.562077 0
    outer loop
      vertex 30.0451 -2.93893 65.5
      vertex 30.2216 -2.67913 21
      vertex 30.2216 -2.67913 65.5
    endloop
  endfacet
  facet normal 0.827085 -0.562077 0
    outer loop
      vertex 30.2216 -2.67913 21
      vertex 30.0451 -2.93893 65.5
      vertex 30.0451 -2.93893 21
    endloop
  endfacet
  facet normal 0.0314118 -0.999507 0
    outer loop
      vertex 26 -5 21
      vertex 26.314 -4.99013 65.5
      vertex 26 -5 65.5
    endloop
  endfacet
  facet normal 0.0314118 -0.999507 0
    outer loop
      vertex 26.314 -4.99013 65.5
      vertex 26 -5 21
      vertex 26.314 -4.99013 21
    endloop
  endfacet
  facet normal 0.278991 -0.960294 0
    outer loop
      vertex 27.2435 -4.84292 21
      vertex 27.5451 -4.75528 65.5
      vertex 27.2435 -4.84292 65.5
    endloop
  endfacet
  facet normal 0.278991 -0.960294 0
    outer loop
      vertex 27.5451 -4.75528 65.5
      vertex 27.2435 -4.84292 21
      vertex 27.5451 -4.75528 21
    endloop
  endfacet
  facet normal 0.397149 -0.917754 0
    outer loop
      vertex 27.8406 -4.64888 21
      vertex 28.1289 -4.52413 65.5
      vertex 27.8406 -4.64888 65.5
    endloop
  endfacet
  facet normal 0.397149 -0.917754 0
    outer loop
      vertex 28.1289 -4.52413 65.5
      vertex 27.8406 -4.64888 21
      vertex 28.1289 -4.52413 21
    endloop
  endfacet
  facet normal 0.50904 -0.860743 0
    outer loop
      vertex 28.4088 -4.38153 21
      vertex 28.6791 -4.22164 65.5
      vertex 28.4088 -4.38153 65.5
    endloop
  endfacet
  facet normal 0.50904 -0.860743 0
    outer loop
      vertex 28.6791 -4.22164 65.5
      vertex 28.4088 -4.38153 21
      vertex 28.6791 -4.22164 21
    endloop
  endfacet
  facet normal 0.661309 -0.750113 0
    outer loop
      vertex 29.1871 -3.85257 21
      vertex 29.4227 -3.64484 65.5
      vertex 29.1871 -3.85257 65.5
    endloop
  endfacet
  facet normal 0.661309 -0.750113 0
    outer loop
      vertex 29.4227 -3.64484 65.5
      vertex 29.1871 -3.85257 21
      vertex 29.4227 -3.64484 21
    endloop
  endfacet
  facet normal -0.999507 -0.0314119 1.39309e-17
    outer loop
      vertex 21.0099 -0.313952 21
      vertex 21 2.28706e-14 65.5
      vertex 21 3.10862e-15 21
    endloop
  endfacet
  facet normal -0.999507 -0.0314119 0
    outer loop
      vertex 21 2.28706e-14 65.5
      vertex 21.0099 -0.313952 21
      vertex 21.0099 -0.313952 65.5
    endloop
  endfacet
  facet normal -0.86074 -0.509044 0
    outer loop
      vertex 21.7784 -2.67913 21
      vertex 21.6185 -2.40877 65.5
      vertex 21.6185 -2.40877 21
    endloop
  endfacet
  facet normal -0.86074 -0.509044 0
    outer loop
      vertex 21.6185 -2.40877 65.5
      vertex 21.7784 -2.67913 21
      vertex 21.7784 -2.67913 65.5
    endloop
  endfacet
  facet normal -0.917756 -0.397145 0
    outer loop
      vertex 21.4759 -2.1289 21
      vertex 21.3511 -1.84062 65.5
      vertex 21.3511 -1.84062 21
    endloop
  endfacet
  facet normal -0.917756 -0.397145 0
    outer loop
      vertex 21.3511 -1.84062 65.5
      vertex 21.4759 -2.1289 21
      vertex 21.4759 -2.1289 65.5
    endloop
  endfacet
  facet normal -0.891005 -0.453993 0
    outer loop
      vertex 21.6185 -2.40877 21
      vertex 21.4759 -2.1289 65.5
      vertex 21.4759 -2.1289 21
    endloop
  endfacet
  facet normal -0.891005 -0.453993 0
    outer loop
      vertex 21.4759 -2.1289 65.5
      vertex 21.6185 -2.40877 21
      vertex 21.6185 -2.40877 65.5
    endloop
  endfacet
  facet normal -0.987688 -0.156434 0
    outer loop
      vertex 21.0886 -0.936906 21
      vertex 21.0394 -0.626666 65.5
      vertex 21.0394 -0.626666 21
    endloop
  endfacet
  facet normal -0.987688 -0.156434 0
    outer loop
      vertex 21.0394 -0.626666 65.5
      vertex 21.0886 -0.936906 21
      vertex 21.0886 -0.936906 65.5
    endloop
  endfacet
  facet normal -0.960295 -0.278985 0
    outer loop
      vertex 21.2447 -1.54508 21
      vertex 21.1571 -1.24345 65.5
      vertex 21.1571 -1.24345 21
    endloop
  endfacet
  facet normal -0.960295 -0.278985 0
    outer loop
      vertex 21.1571 -1.24345 65.5
      vertex 21.2447 -1.54508 21
      vertex 21.2447 -1.54508 65.5
    endloop
  endfacet
  facet normal -0.661309 -0.750113 0
    outer loop
      vertex 22.5773 -3.64484 21
      vertex 22.8129 -3.85257 65.5
      vertex 22.5773 -3.64484 65.5
    endloop
  endfacet
  facet normal -0.661309 -0.750113 -0
    outer loop
      vertex 22.8129 -3.85257 65.5
      vertex 22.5773 -3.64484 21
      vertex 22.8129 -3.85257 21
    endloop
  endfacet
  facet normal -0.397149 -0.917754 0
    outer loop
      vertex 23.8711 -4.52413 21
      vertex 24.1594 -4.64888 65.5
      vertex 23.8711 -4.52413 65.5
    endloop
  endfacet
  facet normal -0.397149 -0.917754 -0
    outer loop
      vertex 24.1594 -4.64888 65.5
      vertex 23.8711 -4.52413 21
      vertex 24.1594 -4.64888 21
    endloop
  endfacet
  facet normal -0.562081 -0.827082 0
    outer loop
      vertex 23.0611 -4.04508 21
      vertex 23.3209 -4.22164 65.5
      vertex 23.0611 -4.04508 65.5
    endloop
  endfacet
  facet normal -0.562081 -0.827082 -0
    outer loop
      vertex 23.3209 -4.22164 65.5
      vertex 23.0611 -4.04508 21
      vertex 23.3209 -4.22164 21
    endloop
  endfacet
  facet normal -0.45399 -0.891007 0
    outer loop
      vertex 23.5912 -4.38153 21
      vertex 23.8711 -4.52413 65.5
      vertex 23.5912 -4.38153 65.5
    endloop
  endfacet
  facet normal -0.45399 -0.891007 -0
    outer loop
      vertex 23.8711 -4.52413 65.5
      vertex 23.5912 -4.38153 21
      vertex 23.8711 -4.52413 21
    endloop
  endfacet
  facet normal -0.218142 -0.975917 0
    outer loop
      vertex 24.7565 -4.84292 21
      vertex 25.0631 -4.91144 65.5
      vertex 24.7565 -4.84292 65.5
    endloop
  endfacet
  facet normal -0.218142 -0.975917 -0
    outer loop
      vertex 25.0631 -4.91144 65.5
      vertex 24.7565 -4.84292 21
      vertex 25.0631 -4.91144 21
    endloop
  endfacet
  facet normal -0.0314118 -0.999507 0
    outer loop
      vertex 25.686 -4.99013 21
      vertex 26 -5 65.5
      vertex 25.686 -4.99013 65.5
    endloop
  endfacet
  facet normal -0.0314118 -0.999507 -0
    outer loop
      vertex 26 -5 65.5
      vertex 25.686 -4.99013 21
      vertex 26 -5 21
    endloop
  endfacet
  facet normal 0.0314118 0.999507 -0
    outer loop
      vertex 26.314 4.99013 21
      vertex 26 5 65.5
      vertex 26.314 4.99013 65.5
    endloop
  endfacet
  facet normal 0.0314118 0.999507 0
    outer loop
      vertex 26 5 65.5
      vertex 26.314 4.99013 21
      vertex 26 5 21
    endloop
  endfacet
  facet normal 0.338741 0.94088 -0
    outer loop
      vertex 27.8406 4.64888 21
      vertex 27.5451 4.75528 65.5
      vertex 27.8406 4.64888 65.5
    endloop
  endfacet
  facet normal 0.338741 0.94088 0
    outer loop
      vertex 27.5451 4.75528 65.5
      vertex 27.8406 4.64888 21
      vertex 27.5451 4.75528 21
    endloop
  endfacet
  facet normal 0.612911 0.790152 -0
    outer loop
      vertex 29.1871 3.85257 21
      vertex 28.9389 4.04508 65.5
      vertex 29.1871 3.85257 65.5
    endloop
  endfacet
  facet normal 0.612911 0.790152 0
    outer loop
      vertex 28.9389 4.04508 65.5
      vertex 29.1871 3.85257 21
      vertex 28.9389 4.04508 21
    endloop
  endfacet
  facet normal 0.50904 0.860743 -0
    outer loop
      vertex 28.6791 4.22164 21
      vertex 28.4088 4.38153 65.5
      vertex 28.6791 4.22164 65.5
    endloop
  endfacet
  facet normal 0.50904 0.860743 0
    outer loop
      vertex 28.4088 4.38153 65.5
      vertex 28.6791 4.22164 21
      vertex 28.4088 4.38153 21
    endloop
  endfacet
  facet normal 0.397149 0.917754 -0
    outer loop
      vertex 28.1289 4.52413 21
      vertex 27.8406 4.64888 65.5
      vertex 28.1289 4.52413 65.5
    endloop
  endfacet
  facet normal 0.397149 0.917754 0
    outer loop
      vertex 27.8406 4.64888 65.5
      vertex 28.1289 4.52413 21
      vertex 27.8406 4.64888 21
    endloop
  endfacet
  facet normal 0.750113 0.661309 0
    outer loop
      vertex 29.8526 3.18712 65.5
      vertex 29.6448 3.42274 21
      vertex 29.6448 3.42274 65.5
    endloop
  endfacet
  facet normal 0.750113 0.661309 0
    outer loop
      vertex 29.6448 3.42274 21
      vertex 29.8526 3.18712 65.5
      vertex 29.8526 3.18712 21
    endloop
  endfacet
  facet normal 0.827085 0.562077 0
    outer loop
      vertex 30.2216 2.67913 65.5
      vertex 30.0451 2.93893 21
      vertex 30.0451 2.93893 65.5
    endloop
  endfacet
  facet normal 0.827085 0.562077 0
    outer loop
      vertex 30.0451 2.93893 21
      vertex 30.2216 2.67913 65.5
      vertex 30.2216 2.67913 21
    endloop
  endfacet
  facet normal 0.917756 0.397145 0
    outer loop
      vertex 30.6489 1.84062 65.5
      vertex 30.5241 2.1289 21
      vertex 30.5241 2.1289 65.5
    endloop
  endfacet
  facet normal 0.917756 0.397145 0
    outer loop
      vertex 30.5241 2.1289 21
      vertex 30.6489 1.84062 65.5
      vertex 30.6489 1.84062 21
    endloop
  endfacet
  facet normal 0.960295 0.278985 0
    outer loop
      vertex 30.8429 1.24345 65.5
      vertex 30.7553 1.54508 21
      vertex 30.7553 1.54508 65.5
    endloop
  endfacet
  facet normal 0.960295 0.278985 0
    outer loop
      vertex 30.7553 1.54508 21
      vertex 30.8429 1.24345 65.5
      vertex 30.8429 1.24345 21
    endloop
  endfacet
  facet normal -0.397149 0.917754 0
    outer loop
      vertex 24.1594 4.64888 21
      vertex 23.8711 4.52413 65.5
      vertex 24.1594 4.64888 65.5
    endloop
  endfacet
  facet normal -0.397149 0.917754 0
    outer loop
      vertex 23.8711 4.52413 65.5
      vertex 24.1594 4.64888 21
      vertex 23.8711 4.52413 21
    endloop
  endfacet
  facet normal -0.218142 0.975917 0
    outer loop
      vertex 25.0631 4.91144 21
      vertex 24.7565 4.84292 65.5
      vertex 25.0631 4.91144 65.5
    endloop
  endfacet
  facet normal -0.218142 0.975917 0
    outer loop
      vertex 24.7565 4.84292 65.5
      vertex 25.0631 4.91144 21
      vertex 24.7565 4.84292 21
    endloop
  endfacet
  facet normal -0.278991 0.960294 0
    outer loop
      vertex 24.7565 4.84292 21
      vertex 24.4549 4.75528 65.5
      vertex 24.7565 4.84292 65.5
    endloop
  endfacet
  facet normal -0.278991 0.960294 0
    outer loop
      vertex 24.4549 4.75528 65.5
      vertex 24.7565 4.84292 21
      vertex 24.4549 4.75528 21
    endloop
  endfacet
  facet normal -0.562081 0.827082 0
    outer loop
      vertex 23.3209 4.22164 21
      vertex 23.0611 4.04508 65.5
      vertex 23.3209 4.22164 65.5
    endloop
  endfacet
  facet normal -0.562081 0.827082 0
    outer loop
      vertex 23.0611 4.04508 65.5
      vertex 23.3209 4.22164 21
      vertex 23.0611 4.04508 21
    endloop
  endfacet
  facet normal -0.45399 0.891007 0
    outer loop
      vertex 23.8711 4.52413 21
      vertex 23.5912 4.38153 65.5
      vertex 23.8711 4.52413 65.5
    endloop
  endfacet
  facet normal -0.45399 0.891007 0
    outer loop
      vertex 23.5912 4.38153 65.5
      vertex 23.8711 4.52413 21
      vertex 23.5912 4.38153 21
    endloop
  endfacet
  facet normal -0.661309 0.750113 0
    outer loop
      vertex 22.8129 3.85257 21
      vertex 22.5773 3.64484 65.5
      vertex 22.8129 3.85257 65.5
    endloop
  endfacet
  facet normal -0.661309 0.750113 0
    outer loop
      vertex 22.5773 3.64484 65.5
      vertex 22.8129 3.85257 21
      vertex 22.5773 3.64484 21
    endloop
  endfacet
  facet normal -0.790153 0.61291 0
    outer loop
      vertex 21.9549 2.93893 21
      vertex 22.1474 3.18712 65.5
      vertex 22.1474 3.18712 21
    endloop
  endfacet
  facet normal -0.790153 0.61291 0
    outer loop
      vertex 22.1474 3.18712 65.5
      vertex 21.9549 2.93893 21
      vertex 21.9549 2.93893 65.5
    endloop
  endfacet
  facet normal -0.86074 0.509044 0
    outer loop
      vertex 21.6185 2.40877 21
      vertex 21.7784 2.67913 65.5
      vertex 21.7784 2.67913 21
    endloop
  endfacet
  facet normal -0.86074 0.509044 0
    outer loop
      vertex 21.7784 2.67913 65.5
      vertex 21.6185 2.40877 21
      vertex 21.6185 2.40877 65.5
    endloop
  endfacet
  facet normal -0.987688 0.156434 0
    outer loop
      vertex 21.0394 0.626666 21
      vertex 21.0886 0.936906 65.5
      vertex 21.0886 0.936906 21
    endloop
  endfacet
  facet normal -0.987688 0.156434 0
    outer loop
      vertex 21.0886 0.936906 65.5
      vertex 21.0394 0.626666 21
      vertex 21.0394 0.626666 65.5
    endloop
  endfacet
  facet normal -0.999507 0.0314119 0
    outer loop
      vertex 21.0099 0.313952 21
      vertex 21 2.28706e-14 65.5
      vertex 21.0099 0.313952 65.5
    endloop
  endfacet
  facet normal -0.999507 0.0314119 -1.39497e-17
    outer loop
      vertex 21 2.28706e-14 65.5
      vertex 21.0099 0.313952 21
      vertex 21 3.10862e-15 21
    endloop
  endfacet
  facet normal -0.940879 0.338742 0
    outer loop
      vertex 21.2447 1.54508 21
      vertex 21.3511 1.84062 65.5
      vertex 21.3511 1.84062 21
    endloop
  endfacet
  facet normal -0.940879 0.338742 0
    outer loop
      vertex 21.3511 1.84062 65.5
      vertex 21.2447 1.54508 21
      vertex 21.2447 1.54508 65.5
    endloop
  endfacet
  facet normal -0.975916 0.218146 0
    outer loop
      vertex 21.0886 0.936906 21
      vertex 21.1571 1.24345 65.5
      vertex 21.1571 1.24345 21
    endloop
  endfacet
  facet normal -0.975916 0.218146 0
    outer loop
      vertex 21.1571 1.24345 65.5
      vertex 21.0886 0.936906 21
      vertex 21.0886 0.936906 65.5
    endloop
  endfacet
  facet normal -0.790153 -0.61291 0
    outer loop
      vertex 22.1474 -3.18712 21
      vertex 21.9549 -2.93893 65.5
      vertex 21.9549 -2.93893 21
    endloop
  endfacet
  facet normal -0.790153 -0.61291 0
    outer loop
      vertex 21.9549 -2.93893 65.5
      vertex 22.1474 -3.18712 21
      vertex 22.1474 -3.18712 65.5
    endloop
  endfacet
  facet normal -0.750113 -0.661309 0
    outer loop
      vertex 22.3552 -3.42274 21
      vertex 22.1474 -3.18712 65.5
      vertex 22.1474 -3.18712 21
    endloop
  endfacet
  facet normal -0.750113 -0.661309 0
    outer loop
      vertex 22.1474 -3.18712 65.5
      vertex 22.3552 -3.42274 21
      vertex 22.3552 -3.42274 65.5
    endloop
  endfacet
  facet normal 0.0941082 0.995562 -0
    outer loop
      vertex 26.6267 4.96057 21
      vertex 26.314 4.99013 65.5
      vertex 26.6267 4.96057 65.5
    endloop
  endfacet
  facet normal 0.0941082 0.995562 0
    outer loop
      vertex 26.314 4.99013 65.5
      vertex 26.6267 4.96057 21
      vertex 26.314 4.99013 21
    endloop
  endfacet
  facet normal 0.278991 0.960294 -0
    outer loop
      vertex 27.5451 4.75528 21
      vertex 27.2435 4.84292 65.5
      vertex 27.5451 4.75528 65.5
    endloop
  endfacet
  facet normal 0.278991 0.960294 0
    outer loop
      vertex 27.2435 4.84292 65.5
      vertex 27.5451 4.75528 21
      vertex 27.2435 4.84292 21
    endloop
  endfacet
  facet normal 0.661309 0.750113 -0
    outer loop
      vertex 29.4227 3.64484 21
      vertex 29.1871 3.85257 65.5
      vertex 29.4227 3.64484 65.5
    endloop
  endfacet
  facet normal 0.661309 0.750113 0
    outer loop
      vertex 29.1871 3.85257 65.5
      vertex 29.4227 3.64484 21
      vertex 29.1871 3.85257 21
    endloop
  endfacet
  facet normal 0.45399 0.891007 -0
    outer loop
      vertex 28.4088 4.38153 21
      vertex 28.1289 4.52413 65.5
      vertex 28.4088 4.38153 65.5
    endloop
  endfacet
  facet normal 0.45399 0.891007 0
    outer loop
      vertex 28.1289 4.52413 65.5
      vertex 28.4088 4.38153 21
      vertex 28.1289 4.52413 21
    endloop
  endfacet
  facet normal 0.562081 0.827082 -0
    outer loop
      vertex 28.9389 4.04508 21
      vertex 28.6791 4.22164 65.5
      vertex 28.9389 4.04508 65.5
    endloop
  endfacet
  facet normal 0.562081 0.827082 0
    outer loop
      vertex 28.6791 4.22164 65.5
      vertex 28.9389 4.04508 21
      vertex 28.6791 4.22164 21
    endloop
  endfacet
  facet normal 0.86074 0.509044 0
    outer loop
      vertex 30.3815 2.40877 65.5
      vertex 30.2216 2.67913 21
      vertex 30.2216 2.67913 65.5
    endloop
  endfacet
  facet normal 0.86074 0.509044 0
    outer loop
      vertex 30.2216 2.67913 21
      vertex 30.3815 2.40877 65.5
      vertex 30.3815 2.40877 21
    endloop
  endfacet
  facet normal 0.940879 0.338742 0
    outer loop
      vertex 30.7553 1.54508 65.5
      vertex 30.6489 1.84062 21
      vertex 30.6489 1.84062 65.5
    endloop
  endfacet
  facet normal 0.940879 0.338742 0
    outer loop
      vertex 30.6489 1.84062 21
      vertex 30.7553 1.54508 65.5
      vertex 30.7553 1.54508 21
    endloop
  endfacet
  facet normal 0.995562 0.0941082 0
    outer loop
      vertex 30.9901 0.313952 65.5
      vertex 30.9606 0.626666 21
      vertex 30.9606 0.626666 65.5
    endloop
  endfacet
  facet normal 0.995562 0.0941082 0
    outer loop
      vertex 30.9606 0.626666 21
      vertex 30.9901 0.313952 65.5
      vertex 30.9901 0.313952 21
    endloop
  endfacet
  facet normal 0.975916 0.218146 0
    outer loop
      vertex 30.9114 0.936906 65.5
      vertex 30.8429 1.24345 21
      vertex 30.8429 1.24345 65.5
    endloop
  endfacet
  facet normal 0.975916 0.218146 0
    outer loop
      vertex 30.8429 1.24345 21
      vertex 30.9114 0.936906 65.5
      vertex 30.9114 0.936906 21
    endloop
  endfacet
  facet normal -0.0314118 0.999507 0
    outer loop
      vertex 26 5 21
      vertex 25.686 4.99013 65.5
      vertex 26 5 65.5
    endloop
  endfacet
  facet normal -0.0314118 0.999507 0
    outer loop
      vertex 25.686 4.99013 65.5
      vertex 26 5 21
      vertex 25.686 4.99013 21
    endloop
  endfacet
  facet normal -0.50904 0.860743 0
    outer loop
      vertex 23.5912 4.38153 21
      vertex 23.3209 4.22164 65.5
      vertex 23.5912 4.38153 65.5
    endloop
  endfacet
  facet normal -0.50904 0.860743 0
    outer loop
      vertex 23.3209 4.22164 65.5
      vertex 23.5912 4.38153 21
      vertex 23.3209 4.22164 21
    endloop
  endfacet
  facet normal -0.891005 0.453993 0
    outer loop
      vertex 21.4759 2.1289 21
      vertex 21.6185 2.40877 65.5
      vertex 21.6185 2.40877 21
    endloop
  endfacet
  facet normal -0.891005 0.453993 0
    outer loop
      vertex 21.6185 2.40877 65.5
      vertex 21.4759 2.1289 21
      vertex 21.4759 2.1289 65.5
    endloop
  endfacet
  facet normal -0.995562 0.0941082 0
    outer loop
      vertex 21.0099 0.313952 21
      vertex 21.0394 0.626666 65.5
      vertex 21.0394 0.626666 21
    endloop
  endfacet
  facet normal -0.995562 0.0941082 0
    outer loop
      vertex 21.0394 0.626666 65.5
      vertex 21.0099 0.313952 21
      vertex 21.0099 0.313952 65.5
    endloop
  endfacet
  facet normal -0.960295 0.278985 0
    outer loop
      vertex 21.1571 1.24345 21
      vertex 21.2447 1.54508 65.5
      vertex 21.2447 1.54508 21
    endloop
  endfacet
  facet normal -0.960295 0.278985 0
    outer loop
      vertex 21.2447 1.54508 65.5
      vertex 21.1571 1.24345 21
      vertex 21.1571 1.24345 65.5
    endloop
  endfacet
  facet normal 0.790153 0.61291 0
    outer loop
      vertex 30.0451 2.93893 65.5
      vertex 29.8526 3.18712 21
      vertex 29.8526 3.18712 65.5
    endloop
  endfacet
  facet normal 0.790153 0.61291 0
    outer loop
      vertex 29.8526 3.18712 21
      vertex 30.0451 2.93893 65.5
      vertex 30.0451 2.93893 21
    endloop
  endfacet
  facet normal 0.999507 0.0314119 0
    outer loop
      vertex 31 2.28706e-14 65.5
      vertex 30.9901 0.313952 21
      vertex 30.9901 0.313952 65.5
    endloop
  endfacet
  facet normal 0.999507 0.0314119 -1.39309e-17
    outer loop
      vertex 30.9901 0.313952 21
      vertex 31 2.28706e-14 65.5
      vertex 31 3.10862e-15 21
    endloop
  endfacet
  facet normal -0.92388 0.382683 -1.69506e-16
    outer loop
      vertex 27.7678 -1.76777 21
      vertex 28.5 2.28706e-14 65.5
      vertex 28.5 3.10862e-15 21
    endloop
  endfacet
  facet normal -0.92388 0.382683 0
    outer loop
      vertex 28.5 2.28706e-14 65.5
      vertex 27.7678 -1.76777 21
      vertex 27.7678 -1.76777 65.5
    endloop
  endfacet
  facet normal 0.92388 0.382683 -1.69506e-16
    outer loop
      vertex 24.2322 -1.76777 65.5
      vertex 23.5 3.10862e-15 21
      vertex 23.5 2.28706e-14 65.5
    endloop
  endfacet
  facet normal 0.92388 0.382683 0
    outer loop
      vertex 23.5 3.10862e-15 21
      vertex 24.2322 -1.76777 65.5
      vertex 24.2322 -1.76777 21
    endloop
  endfacet
  facet normal -0.382683 0.92388 0
    outer loop
      vertex 27.7678 -1.76777 21
      vertex 26 -2.5 65.5
      vertex 27.7678 -1.76777 65.5
    endloop
  endfacet
  facet normal -0.382683 0.92388 0
    outer loop
      vertex 26 -2.5 65.5
      vertex 27.7678 -1.76777 21
      vertex 26 -2.5 21
    endloop
  endfacet
  facet normal 0.382683 0.92388 -0
    outer loop
      vertex 26 -2.5 21
      vertex 24.2322 -1.76777 65.5
      vertex 26 -2.5 65.5
    endloop
  endfacet
  facet normal 0.382683 0.92388 0
    outer loop
      vertex 24.2322 -1.76777 65.5
      vertex 26 -2.5 21
      vertex 24.2322 -1.76777 21
    endloop
  endfacet
  facet normal -0.382683 -0.92388 0
    outer loop
      vertex 26 2.5 21
      vertex 27.7678 1.76777 65.5
      vertex 26 2.5 65.5
    endloop
  endfacet
  facet normal -0.382683 -0.92388 -0
    outer loop
      vertex 27.7678 1.76777 65.5
      vertex 26 2.5 21
      vertex 27.7678 1.76777 21
    endloop
  endfacet
  facet normal 0.92388 -0.382683 0
    outer loop
      vertex 23.5 2.28706e-14 65.5
      vertex 24.2322 1.76777 21
      vertex 24.2322 1.76777 65.5
    endloop
  endfacet
  facet normal 0.92388 -0.382683 1.69506e-16
    outer loop
      vertex 24.2322 1.76777 21
      vertex 23.5 2.28706e-14 65.5
      vertex 23.5 3.10862e-15 21
    endloop
  endfacet
  facet normal 0.382683 -0.92388 0
    outer loop
      vertex 24.2322 1.76777 21
      vertex 26 2.5 65.5
      vertex 24.2322 1.76777 65.5
    endloop
  endfacet
  facet normal 0.382683 -0.92388 0
    outer loop
      vertex 26 2.5 65.5
      vertex 24.2322 1.76777 21
      vertex 26 2.5 21
    endloop
  endfacet
  facet normal -0.92388 -0.382683 0
    outer loop
      vertex 27.7678 1.76777 21
      vertex 28.5 2.28706e-14 65.5
      vertex 27.7678 1.76777 65.5
    endloop
  endfacet
  facet normal -0.92388 -0.382683 1.69946e-16
    outer loop
      vertex 28.5 2.28706e-14 65.5
      vertex 27.7678 1.76777 21
      vertex 28.5 3.10862e-15 21
    endloop
  endfacet
  facet normal -1 0 6.11782e-08
    outer loop
      vertex -4.5 -15 -7.79423
      vertex -4.5 15 7.79423
      vertex -4.5 15 -7.79423
    endloop
  endfacet
  facet normal -1 0 6.11782e-08
    outer loop
      vertex -4.5 15 7.79423
      vertex -4.5 -15 -7.79423
      vertex -4.5 -15 7.79423
    endloop
  endfacet
  facet normal 0.5 0 0.866025
    outer loop
      vertex -4.5 15 7.79423
      vertex 3 -15 3.4641
      vertex 3 15 3.4641
    endloop
  endfacet
  facet normal 0.5 0 0.866025
    outer loop
      vertex 3 -15 3.4641
      vertex -4.5 15 7.79423
      vertex -4.5 -15 7.79423
    endloop
  endfacet
  facet normal 0.5 0 -0.866025
    outer loop
      vertex -4.5 -15 -7.79423
      vertex 3 15 -3.4641
      vertex 3 -15 -3.4641
    endloop
  endfacet
  facet normal 0.5 0 -0.866025
    outer loop
      vertex 3 15 -3.4641
      vertex -4.5 -15 -7.79423
      vertex -4.5 15 -7.79423
    endloop
  endfacet
  facet normal 0.919962 0.38106 0.0919962
    outer loop
      vertex 2.3 50 -13
      vertex 1.86066 51.0607 -13
      vertex 2 50 -10
    endloop
  endfacet
  facet normal -0.38106 -0.919962 0.091996
    outer loop
      vertex -1.06066 48.1393 -13
      vertex -1.41421 48.5858 -10
      vertex -1.62635 48.3737 -13
    endloop
  endfacet
  facet normal -0.38106 -0.919962 0.091996
    outer loop
      vertex -1.41421 48.5858 -10
      vertex -1.06066 48.1393 -13
      vertex 0 48 -10
    endloop
  endfacet
  facet normal 0.38106 0.919962 0.091996
    outer loop
      vertex 1.06066 51.8607 -13
      vertex 1.41421 51.4142 -10
      vertex 1.62635 51.6263 -13
    endloop
  endfacet
  facet normal 0.38106 0.919962 0.091996
    outer loop
      vertex 1.41421 51.4142 -10
      vertex 1.06066 51.8607 -13
      vertex 0 52 -10
    endloop
  endfacet
  facet normal -0.38106 -0.919962 0.091996
    outer loop
      vertex 0 48 -10
      vertex -1.06066 48.1393 -13
      vertex 0 47.7 -13
    endloop
  endfacet
  facet normal 0 0 1
    outer loop
      vertex 1.41421 51.4142 -10
      vertex 1.41421 48.5858 -10
      vertex 2 50 -10
    endloop
  endfacet
  facet normal 0 0 1
    outer loop
      vertex 0 52 -10
      vertex 1.41421 48.5858 -10
      vertex 1.41421 51.4142 -10
    endloop
  endfacet
  facet normal 0 0 1
    outer loop
      vertex 0 52 -10
      vertex 0 48 -10
      vertex 1.41421 48.5858 -10
    endloop
  endfacet
  facet normal -0 0 1
    outer loop
      vertex -1.41421 51.4142 -10
      vertex 0 48 -10
      vertex 0 52 -10
    endloop
  endfacet
  facet normal 0 0 1
    outer loop
      vertex -1.41421 51.4142 -10
      vertex -1.41421 48.5858 -10
      vertex 0 48 -10
    endloop
  endfacet
  facet normal 0 -0 1
    outer loop
      vertex -1.41421 48.5858 -10
      vertex -1.41421 51.4142 -10
      vertex -2 50 -10
    endloop
  endfacet
  facet normal 0.38106 0.919962 0.091996
    outer loop
      vertex 0 52.3 -13
      vertex 0 52 -10
      vertex 1.06066 51.8607 -13
    endloop
  endfacet
  facet normal 0 0 -1
    outer loop
      vertex 7.24444 48.0589 -15
      vertex 7.24444 51.9411 -15
      vertex 7.5 50 -15
    endloop
  endfacet
  facet normal 0 0 -1
    outer loop
      vertex 6.49519 46.25 -15
      vertex 7.24444 51.9411 -15
      vertex 7.24444 48.0589 -15
    endloop
  endfacet
  facet normal 0 0 -1
    outer loop
      vertex 6.49519 46.25 -15
      vertex 6.49519 53.75 -15
      vertex 7.24444 51.9411 -15
    endloop
  endfacet
  facet normal 0 0 -1
    outer loop
      vertex 5.3033 44.6967 -15
      vertex 6.49519 53.75 -15
      vertex 6.49519 46.25 -15
    endloop
  endfacet
  facet normal 0 0 -1
    outer loop
      vertex 5.3033 44.6967 -15
      vertex 5.3033 55.3033 -15
      vertex 6.49519 53.75 -15
    endloop
  endfacet
  facet normal 0 0 -1
    outer loop
      vertex 3.75 43.5048 -15
      vertex 5.3033 55.3033 -15
      vertex 5.3033 44.6967 -15
    endloop
  endfacet
  facet normal 0 0 -1
    outer loop
      vertex 3.75 43.5048 -15
      vertex 3.75 56.4952 -15
      vertex 5.3033 55.3033 -15
    endloop
  endfacet
  facet normal 0 0 -1
    outer loop
      vertex 1.94114 42.7556 -15
      vertex 3.75 56.4952 -15
      vertex 3.75 43.5048 -15
    endloop
  endfacet
  facet normal 0 0 -1
    outer loop
      vertex 1.94114 42.7556 -15
      vertex 1.94114 57.2444 -15
      vertex 3.75 56.4952 -15
    endloop
  endfacet
  facet normal 0 0 -1
    outer loop
      vertex 0 42.5 -15
      vertex 1.94114 57.2444 -15
      vertex 1.94114 42.7556 -15
    endloop
  endfacet
  facet normal 0 0 -1
    outer loop
      vertex 0 42.5 -15
      vertex 0 57.5 -15
      vertex 1.94114 57.2444 -15
    endloop
  endfacet
  facet normal 0 0 -1
    outer loop
      vertex -1.94114 42.7556 -15
      vertex 0 57.5 -15
      vertex 0 42.5 -15
    endloop
  endfacet
  facet normal 0 0 -1
    outer loop
      vertex -1.94114 42.7556 -15
      vertex -1.94114 57.2444 -15
      vertex 0 57.5 -15
    endloop
  endfacet
  facet normal 0 0 -1
    outer loop
      vertex -1.94114 42.7556 -15
      vertex -3.75 56.4952 -15
      vertex -1.94114 57.2444 -15
    endloop
  endfacet
  facet normal 0 0 -1
    outer loop
      vertex -3.75 43.5048 -15
      vertex -3.75 56.4952 -15
      vertex -1.94114 42.7556 -15
    endloop
  endfacet
  facet normal 0 0 -1
    outer loop
      vertex -5.3033 44.6967 -15
      vertex -3.75 56.4952 -15
      vertex -3.75 43.5048 -15
    endloop
  endfacet
  facet normal 0 0 -1
    outer loop
      vertex -5.3033 44.6967 -15
      vertex -5.3033 55.3033 -15
      vertex -3.75 56.4952 -15
    endloop
  endfacet
  facet normal 0 0 -1
    outer loop
      vertex -6.49519 46.25 -15
      vertex -5.3033 55.3033 -15
      vertex -5.3033 44.6967 -15
    endloop
  endfacet
  facet normal 0 0 -1
    outer loop
      vertex -6.49519 46.25 -15
      vertex -6.49519 53.75 -15
      vertex -5.3033 55.3033 -15
    endloop
  endfacet
  facet normal 0 0 -1
    outer loop
      vertex -7.24444 48.0589 -15
      vertex -6.49519 53.75 -15
      vertex -6.49519 46.25 -15
    endloop
  endfacet
  facet normal 0 0 -1
    outer loop
      vertex -7.24444 48.0589 -15
      vertex -7.24444 51.9411 -15
      vertex -6.49519 53.75 -15
    endloop
  endfacet
  facet normal 0 -0 -1
    outer loop
      vertex -7.24444 51.9411 -15
      vertex -7.24444 48.0589 -15
      vertex -7.5 50 -15
    endloop
  endfacet
  facet normal 0.919962 0.381061 0.0919962
    outer loop
      vertex 1.41421 51.4142 -10
      vertex 1.86066 51.0607 -13
      vertex 1.62635 51.6263 -13
    endloop
  endfacet
  facet normal 0.919962 0.38106 0.0919963
    outer loop
      vertex 1.86066 51.0607 -13
      vertex 1.41421 51.4142 -10
      vertex 2 50 -10
    endloop
  endfacet
  facet normal 0.919962 -0.38106 0.0919962
    outer loop
      vertex 2 50 -10
      vertex 1.86066 48.9393 -13
      vertex 2.3 50 -13
    endloop
  endfacet
  facet normal -0.38106 0.919962 0.091996
    outer loop
      vertex 0 52.3 -13
      vertex -1.06066 51.8607 -13
      vertex 0 52 -10
    endloop
  endfacet
  facet normal -0.38106 0.919962 0.091996
    outer loop
      vertex -1.06066 51.8607 -13
      vertex -1.41421 51.4142 -10
      vertex 0 52 -10
    endloop
  endfacet
  facet normal -0.38106 0.919962 0.091996
    outer loop
      vertex -1.41421 51.4142 -10
      vertex -1.06066 51.8607 -13
      vertex -1.62635 51.6263 -13
    endloop
  endfacet
  facet normal -0.919962 0.38106 0.0919962
    outer loop
      vertex -1.86066 51.0607 -13
      vertex -2.3 50 -13
      vertex -2 50 -10
    endloop
  endfacet
  facet normal -0.919962 -0.38106 0.0919963
    outer loop
      vertex -1.86066 48.9393 -13
      vertex -1.41421 48.5858 -10
      vertex -2 50 -10
    endloop
  endfacet
  facet normal -0.919962 -0.381061 0.0919962
    outer loop
      vertex -1.41421 48.5858 -10
      vertex -1.86066 48.9393 -13
      vertex -1.62635 48.3737 -13
    endloop
  endfacet
  facet normal -0.919962 -0.38106 0.0919962
    outer loop
      vertex -2 50 -10
      vertex -2.3 50 -13
      vertex -1.86066 48.9393 -13
    endloop
  endfacet
  facet normal 0.38106 -0.919962 0.091996
    outer loop
      vertex 0 48 -10
      vertex 0 47.7 -13
      vertex 1.06066 48.1393 -13
    endloop
  endfacet
  facet normal -0.919962 0.381061 0.0919962
    outer loop
      vertex -1.86066 51.0607 -13
      vertex -1.41421 51.4142 -10
      vertex -1.62635 51.6263 -13
    endloop
  endfacet
  facet normal -0.919962 0.38106 0.0919963
    outer loop
      vertex -1.41421 51.4142 -10
      vertex -1.86066 51.0607 -13
      vertex -2 50 -10
    endloop
  endfacet
  facet normal 0.38106 -0.919962 0.091996
    outer loop
      vertex 1.06066 48.1393 -13
      vertex 1.41421 48.5858 -10
      vertex 0 48 -10
    endloop
  endfacet
  facet normal 0.38106 -0.919962 0.091996
    outer loop
      vertex 1.41421 48.5858 -10
      vertex 1.06066 48.1393 -13
      vertex 1.62635 48.3737 -13
    endloop
  endfacet
  facet normal 0.919962 -0.38106 0.0919963
    outer loop
      vertex 1.41421 48.5858 -10
      vertex 1.86066 48.9393 -13
      vertex 2 50 -10
    endloop
  endfacet
  facet normal 0.919962 -0.381061 0.0919962
    outer loop
      vertex 1.86066 48.9393 -13
      vertex 1.41421 48.5858 -10
      vertex 1.62635 48.3737 -13
    endloop
  endfacet
  facet normal 0.991445 0.130527 0
    outer loop
      vertex 7.5 50 -13
      vertex 7.24444 51.9411 -15
      vertex 7.24444 51.9411 -13
    endloop
  endfacet
  facet normal 0.991445 0.130527 0
    outer loop
      vertex 7.24444 51.9411 -15
      vertex 7.5 50 -13
      vertex 7.5 50 -15
    endloop
  endfacet
  facet normal -0.991445 0.130527 0
    outer loop
      vertex -7.5 50 -15
      vertex -7.24444 51.9411 -13
      vertex -7.24444 51.9411 -15
    endloop
  endfacet
  facet normal -0.991445 0.130527 0
    outer loop
      vertex -7.24444 51.9411 -13
      vertex -7.5 50 -15
      vertex -7.5 50 -13
    endloop
  endfacet
  facet normal 0.130527 0.991445 -0
    outer loop
      vertex 1.94114 57.2444 -15
      vertex 0 57.5 -13
      vertex 1.94114 57.2444 -13
    endloop
  endfacet
  facet normal 0.130527 0.991445 0
    outer loop
      vertex 0 57.5 -13
      vertex 1.94114 57.2444 -15
      vertex 0 57.5 -15
    endloop
  endfacet
  facet normal -0.130527 -0.991445 0
    outer loop
      vertex -1.94114 42.7556 -15
      vertex 0 42.5 -13
      vertex -1.94114 42.7556 -13
    endloop
  endfacet
  facet normal -0.130527 -0.991445 -0
    outer loop
      vertex 0 42.5 -13
      vertex -1.94114 42.7556 -15
      vertex 0 42.5 -15
    endloop
  endfacet
  facet normal -0.793353 -0.608762 0
    outer loop
      vertex -5.3033 44.6967 -15
      vertex -6.49519 46.25 -13
      vertex -6.49519 46.25 -15
    endloop
  endfacet
  facet normal -0.793353 -0.608762 0
    outer loop
      vertex -6.49519 46.25 -13
      vertex -5.3033 44.6967 -15
      vertex -5.3033 44.6967 -13
    endloop
  endfacet
  facet normal 0.793353 0.608762 0
    outer loop
      vertex 6.49519 53.75 -13
      vertex 5.3033 55.3033 -15
      vertex 5.3033 55.3033 -13
    endloop
  endfacet
  facet normal 0.793353 0.608762 0
    outer loop
      vertex 5.3033 55.3033 -15
      vertex 6.49519 53.75 -13
      vertex 6.49519 53.75 -15
    endloop
  endfacet
  facet normal 0.923879 0.382684 0
    outer loop
      vertex 7.24444 51.9411 -13
      vertex 6.49519 53.75 -15
      vertex 6.49519 53.75 -13
    endloop
  endfacet
  facet normal 0.923879 0.382684 0
    outer loop
      vertex 6.49519 53.75 -15
      vertex 7.24444 51.9411 -13
      vertex 7.24444 51.9411 -15
    endloop
  endfacet
  facet normal 0.608762 0.793353 -0
    outer loop
      vertex 5.3033 55.3033 -15
      vertex 3.75 56.4952 -13
      vertex 5.3033 55.3033 -13
    endloop
  endfacet
  facet normal 0.608762 0.793353 0
    outer loop
      vertex 3.75 56.4952 -13
      vertex 5.3033 55.3033 -15
      vertex 3.75 56.4952 -15
    endloop
  endfacet
  facet normal -0.608762 0.793353 0
    outer loop
      vertex -3.75 56.4952 -15
      vertex -5.3033 55.3033 -13
      vertex -3.75 56.4952 -13
    endloop
  endfacet
  facet normal -0.608762 0.793353 0
    outer loop
      vertex -5.3033 55.3033 -13
      vertex -3.75 56.4952 -15
      vertex -5.3033 55.3033 -15
    endloop
  endfacet
  facet normal 0 0 1
    outer loop
      vertex 2.3 50 -13
      vertex 7.5 50 -13
      vertex 7.24444 51.9411 -13
    endloop
  endfacet
  facet normal 0 0 1
    outer loop
      vertex 1.86066 51.0607 -13
      vertex 7.24444 51.9411 -13
      vertex 6.49519 53.75 -13
    endloop
  endfacet
  facet normal 0 0 1
    outer loop
      vertex 7.5 50 -13
      vertex 2.3 50 -13
      vertex 7.24444 48.0589 -13
    endloop
  endfacet
  facet normal 0 0 1
    outer loop
      vertex 1.62635 51.6263 -13
      vertex 6.49519 53.75 -13
      vertex 5.3033 55.3033 -13
    endloop
  endfacet
  facet normal -0 0 1
    outer loop
      vertex 1.86066 48.9393 -13
      vertex 7.24444 48.0589 -13
      vertex 2.3 50 -13
    endloop
  endfacet
  facet normal 0 0 1
    outer loop
      vertex 1.62635 51.6263 -13
      vertex 5.3033 55.3033 -13
      vertex 3.75 56.4952 -13
    endloop
  endfacet
  facet normal 0 0 1
    outer loop
      vertex 7.24444 48.0589 -13
      vertex 1.86066 48.9393 -13
      vertex 6.49519 46.25 -13
    endloop
  endfacet
  facet normal -0 0 1
    outer loop
      vertex 1.62635 48.3737 -13
      vertex 6.49519 46.25 -13
      vertex 1.86066 48.9393 -13
    endloop
  endfacet
  facet normal 0 0 1
    outer loop
      vertex 1.06066 51.8607 -13
      vertex 3.75 56.4952 -13
      vertex 1.94114 57.2444 -13
    endloop
  endfacet
  facet normal 0 0 1
    outer loop
      vertex 7.24444 51.9411 -13
      vertex 1.86066 51.0607 -13
      vertex 2.3 50 -13
    endloop
  endfacet
  facet normal 0 0 1
    outer loop
      vertex 6.49519 53.75 -13
      vertex 1.62635 51.6263 -13
      vertex 1.86066 51.0607 -13
    endloop
  endfacet
  facet normal 0 0 1
    outer loop
      vertex 3.75 56.4952 -13
      vertex 1.06066 51.8607 -13
      vertex 1.62635 51.6263 -13
    endloop
  endfacet
  facet normal 0 0 1
    outer loop
      vertex 0 52.3 -13
      vertex 1.94114 57.2444 -13
      vertex 0 57.5 -13
    endloop
  endfacet
  facet normal 0 0 1
    outer loop
      vertex 1.94114 57.2444 -13
      vertex 0 52.3 -13
      vertex 1.06066 51.8607 -13
    endloop
  endfacet
  facet normal -0 0 1
    outer loop
      vertex -1.94114 57.2444 -13
      vertex 0 52.3 -13
      vertex 0 57.5 -13
    endloop
  endfacet
  facet normal 0 0 1
    outer loop
      vertex 0 52.3 -13
      vertex -1.94114 57.2444 -13
      vertex -1.06066 51.8607 -13
    endloop
  endfacet
  facet normal -0 0 1
    outer loop
      vertex -3.75 56.4952 -13
      vertex -1.06066 51.8607 -13
      vertex -1.94114 57.2444 -13
    endloop
  endfacet
  facet normal 0 0 1
    outer loop
      vertex -1.06066 51.8607 -13
      vertex -3.75 56.4952 -13
      vertex -1.62635 51.6263 -13
    endloop
  endfacet
  facet normal -0 0 1
    outer loop
      vertex -5.3033 55.3033 -13
      vertex -1.62635 51.6263 -13
      vertex -3.75 56.4952 -13
    endloop
  endfacet
  facet normal -0 0 1
    outer loop
      vertex -6.49519 53.75 -13
      vertex -1.62635 51.6263 -13
      vertex -5.3033 55.3033 -13
    endloop
  endfacet
  facet normal 0 0 1
    outer loop
      vertex 6.49519 46.25 -13
      vertex 1.62635 48.3737 -13
      vertex 5.3033 44.6967 -13
    endloop
  endfacet
  facet normal 0 0 1
    outer loop
      vertex 5.3033 44.6967 -13
      vertex 1.62635 48.3737 -13
      vertex 3.75 43.5048 -13
    endloop
  endfacet
  facet normal -0 0 1
    outer loop
      vertex 1.06066 48.1393 -13
      vertex 3.75 43.5048 -13
      vertex 1.62635 48.3737 -13
    endloop
  endfacet
  facet normal 0 0 1
    outer loop
      vertex 3.75 43.5048 -13
      vertex 1.06066 48.1393 -13
      vertex 1.94114 42.7556 -13
    endloop
  endfacet
  facet normal -0 0 1
    outer loop
      vertex 0 47.7 -13
      vertex 1.94114 42.7556 -13
      vertex 1.06066 48.1393 -13
    endloop
  endfacet
  facet normal 0 0 1
    outer loop
      vertex 0 47.7 -13
      vertex 0 42.5 -13
      vertex 1.94114 42.7556 -13
    endloop
  endfacet
  facet normal 0 0 1
    outer loop
      vertex -1.94114 42.7556 -13
      vertex 0 47.7 -13
      vertex -1.06066 48.1393 -13
    endloop
  endfacet
  facet normal 0 0 1
    outer loop
      vertex -3.75 43.5048 -13
      vertex -1.06066 48.1393 -13
      vertex -1.62635 48.3737 -13
    endloop
  endfacet
  facet normal 0 0 1
    outer loop
      vertex -6.49519 46.25 -13
      vertex -1.62635 48.3737 -13
      vertex -1.86066 48.9393 -13
    endloop
  endfacet
  facet normal 0 0 1
    outer loop
      vertex 0 47.7 -13
      vertex -1.94114 42.7556 -13
      vertex 0 42.5 -13
    endloop
  endfacet
  facet normal 0 0 1
    outer loop
      vertex -7.24444 48.0589 -13
      vertex -1.86066 48.9393 -13
      vertex -2.3 50 -13
    endloop
  endfacet
  facet normal 0 0 1
    outer loop
      vertex -1.62635 51.6263 -13
      vertex -6.49519 53.75 -13
      vertex -1.86066 51.0607 -13
    endloop
  endfacet
  facet normal 0 0 1
    outer loop
      vertex -1.06066 48.1393 -13
      vertex -3.75 43.5048 -13
      vertex -1.94114 42.7556 -13
    endloop
  endfacet
  facet normal -0 0 1
    outer loop
      vertex -7.24444 51.9411 -13
      vertex -1.86066 51.0607 -13
      vertex -6.49519 53.75 -13
    endloop
  endfacet
  facet normal 0 0 1
    outer loop
      vertex -1.62635 48.3737 -13
      vertex -5.3033 44.6967 -13
      vertex -3.75 43.5048 -13
    endloop
  endfacet
  facet normal 0 0 1
    outer loop
      vertex -1.86066 51.0607 -13
      vertex -7.24444 51.9411 -13
      vertex -2.3 50 -13
    endloop
  endfacet
  facet normal 0 0 1
    outer loop
      vertex -1.62635 48.3737 -13
      vertex -6.49519 46.25 -13
      vertex -5.3033 44.6967 -13
    endloop
  endfacet
  facet normal 0 0 1
    outer loop
      vertex -7.5 50 -13
      vertex -2.3 50 -13
      vertex -7.24444 51.9411 -13
    endloop
  endfacet
  facet normal 0 0 1
    outer loop
      vertex -1.86066 48.9393 -13
      vertex -7.24444 48.0589 -13
      vertex -6.49519 46.25 -13
    endloop
  endfacet
  facet normal 0 0 1
    outer loop
      vertex -2.3 50 -13
      vertex -7.5 50 -13
      vertex -7.24444 48.0589 -13
    endloop
  endfacet
  facet normal -0.130527 0.991445 0
    outer loop
      vertex 0 57.5 -15
      vertex -1.94114 57.2444 -13
      vertex 0 57.5 -13
    endloop
  endfacet
  facet normal -0.130527 0.991445 0
    outer loop
      vertex -1.94114 57.2444 -13
      vertex 0 57.5 -15
      vertex -1.94114 57.2444 -15
    endloop
  endfacet
  facet normal -0.608762 -0.793353 0
    outer loop
      vertex -5.3033 44.6967 -15
      vertex -3.75 43.5048 -13
      vertex -5.3033 44.6967 -13
    endloop
  endfacet
  facet normal -0.608762 -0.793353 -0
    outer loop
      vertex -3.75 43.5048 -13
      vertex -5.3033 44.6967 -15
      vertex -3.75 43.5048 -15
    endloop
  endfacet
  facet normal -0.991445 -0.130527 0
    outer loop
      vertex -7.24444 48.0589 -15
      vertex -7.5 50 -13
      vertex -7.5 50 -15
    endloop
  endfacet
  facet normal -0.991445 -0.130527 0
    outer loop
      vertex -7.5 50 -13
      vertex -7.24444 48.0589 -15
      vertex -7.24444 48.0589 -13
    endloop
  endfacet
  facet normal 0.382683 0.92388 -0
    outer loop
      vertex 3.75 56.4952 -15
      vertex 1.94114 57.2444 -13
      vertex 3.75 56.4952 -13
    endloop
  endfacet
  facet normal 0.382683 0.92388 0
    outer loop
      vertex 1.94114 57.2444 -13
      vertex 3.75 56.4952 -15
      vertex 1.94114 57.2444 -15
    endloop
  endfacet
  facet normal -0.793353 0.608762 0
    outer loop
      vertex -6.49519 53.75 -15
      vertex -5.3033 55.3033 -13
      vertex -5.3033 55.3033 -15
    endloop
  endfacet
  facet normal -0.793353 0.608762 0
    outer loop
      vertex -5.3033 55.3033 -13
      vertex -6.49519 53.75 -15
      vertex -6.49519 53.75 -13
    endloop
  endfacet
  facet normal -0.923879 0.382684 0
    outer loop
      vertex -7.24444 51.9411 -15
      vertex -6.49519 53.75 -13
      vertex -6.49519 53.75 -15
    endloop
  endfacet
  facet normal -0.923879 0.382684 0
    outer loop
      vertex -6.49519 53.75 -13
      vertex -7.24444 51.9411 -15
      vertex -7.24444 51.9411 -13
    endloop
  endfacet
  facet normal -0.382683 0.92388 0
    outer loop
      vertex -1.94114 57.2444 -15
      vertex -3.75 56.4952 -13
      vertex -1.94114 57.2444 -13
    endloop
  endfacet
  facet normal -0.382683 0.92388 0
    outer loop
      vertex -3.75 56.4952 -13
      vertex -1.94114 57.2444 -15
      vertex -3.75 56.4952 -15
    endloop
  endfacet
  facet normal 0.991445 -0.130527 0
    outer loop
      vertex 7.24444 48.0589 -13
      vertex 7.5 50 -15
      vertex 7.5 50 -13
    endloop
  endfacet
  facet normal 0.991445 -0.130527 0
    outer loop
      vertex 7.5 50 -15
      vertex 7.24444 48.0589 -13
      vertex 7.24444 48.0589 -15
    endloop
  endfacet
  facet normal 0.130527 -0.991445 0
    outer loop
      vertex 0 42.5 -15
      vertex 1.94114 42.7556 -13
      vertex 0 42.5 -13
    endloop
  endfacet
  facet normal 0.130527 -0.991445 0
    outer loop
      vertex 1.94114 42.7556 -13
      vertex 0 42.5 -15
      vertex 1.94114 42.7556 -15
    endloop
  endfacet
  facet normal 0.608762 -0.793353 0
    outer loop
      vertex 3.75 43.5048 -15
      vertex 5.3033 44.6967 -13
      vertex 3.75 43.5048 -13
    endloop
  endfacet
  facet normal 0.608762 -0.793353 0
    outer loop
      vertex 5.3033 44.6967 -13
      vertex 3.75 43.5048 -15
      vertex 5.3033 44.6967 -15
    endloop
  endfacet
  facet normal -0.382683 -0.92388 0
    outer loop
      vertex -3.75 43.5048 -15
      vertex -1.94114 42.7556 -13
      vertex -3.75 43.5048 -13
    endloop
  endfacet
  facet normal -0.382683 -0.92388 -0
    outer loop
      vertex -1.94114 42.7556 -13
      vertex -3.75 43.5048 -15
      vertex -1.94114 42.7556 -15
    endloop
  endfacet
  facet normal -0.923879 -0.382684 0
    outer loop
      vertex -6.49519 46.25 -15
      vertex -7.24444 48.0589 -13
      vertex -7.24444 48.0589 -15
    endloop
  endfacet
  facet normal -0.923879 -0.382684 0
    outer loop
      vertex -7.24444 48.0589 -13
      vertex -6.49519 46.25 -15
      vertex -6.49519 46.25 -13
    endloop
  endfacet
  facet normal 0.382683 -0.92388 0
    outer loop
      vertex 1.94114 42.7556 -15
      vertex 3.75 43.5048 -13
      vertex 1.94114 42.7556 -13
    endloop
  endfacet
  facet normal 0.382683 -0.92388 0
    outer loop
      vertex 3.75 43.5048 -13
      vertex 1.94114 42.7556 -15
      vertex 3.75 43.5048 -15
    endloop
  endfacet
  facet normal 0.923879 -0.382684 0
    outer loop
      vertex 6.49519 46.25 -13
      vertex 7.24444 48.0589 -15
      vertex 7.24444 48.0589 -13
    endloop
  endfacet
  facet normal 0.923879 -0.382684 0
    outer loop
      vertex 7.24444 48.0589 -15
      vertex 6.49519 46.25 -13
      vertex 6.49519 46.25 -15
    endloop
  endfacet
  facet normal 0.793353 -0.608762 0
    outer loop
      vertex 5.3033 44.6967 -13
      vertex 6.49519 46.25 -15
      vertex 6.49519 46.25 -13
    endloop
  endfacet
  facet normal 0.793353 -0.608762 0
    outer loop
      vertex 6.49519 46.25 -15
      vertex 5.3033 44.6967 -13
      vertex 5.3033 44.6967 -15
    endloop
  endfacet
endsolid OpenSCAD_Model
